<svg xmlns="http://www.w3.org/2000/svg" display="none">
    <symbol id="youtube" viewBox="0 0 24 24">
        <path d="m23.469 5.929.03.196c-.29-1.029-1.073-1.823-2.068-2.112l-.021-.005c-1.871-.508-9.4-.508-9.4-.508s-7.51-.01-9.4.508c-1.014.294-1.798 1.088-2.083 2.096l-.005.021c-.699 3.651-.704 8.038.031 11.947l-.031-.198c.29 1.029 1.073 1.823 2.068 2.112l.021.005c1.869.509 9.4.509 9.4.509s7.509 0 9.4-.509c1.015-.294 1.799-1.088 2.084-2.096l.005-.021c.318-1.698.5-3.652.5-5.648 0-.073 0-.147-.001-.221.001-.068.001-.149.001-.23 0-1.997-.182-3.951-.531-5.846zm-13.861 9.722v-7.293l6.266 3.652z"/>
    </symbol>

    <symbol id="vk" viewBox="0 0 511.962 511.962">
        <g>
            <path d="M507.399,370.471c-1.376-2.304-9.888-20.8-50.848-58.816c-42.88-39.808-37.12-33.344,14.528-102.176
                c31.456-41.92,44.032-67.52,40.096-78.464c-3.744-10.432-26.88-7.68-26.88-7.68l-76.928,0.448c0,0-5.696-0.768-9.952,1.76
                c-4.128,2.496-6.784,8.256-6.784,8.256s-12.192,32.448-28.448,60.032c-34.272,58.208-48,61.28-53.6,57.664
                c-13.024-8.416-9.76-33.856-9.76-51.904c0-56.416,8.544-79.936-16.672-86.016c-8.384-2.016-14.528-3.36-35.936-3.584
                c-27.456-0.288-50.72,0.096-63.872,6.528c-8.768,4.288-15.52,13.856-11.392,14.4c5.088,0.672,16.608,3.104,22.72,11.424
                c7.904,10.72,7.616,34.848,7.616,34.848s4.544,66.4-10.592,74.656c-10.4,5.664-24.64-5.888-55.2-58.72
                c-15.648-27.04-27.488-56.96-27.488-56.96s-2.272-5.568-6.336-8.544c-4.928-3.616-11.84-4.768-11.84-4.768l-73.152,0.448
                c0,0-10.976,0.32-15.008,5.088c-3.584,4.256-0.288,13.024-0.288,13.024s57.28,133.984,122.112,201.536
                c59.488,61.92,127.008,57.856,127.008,57.856h30.592c0,0,9.248-1.024,13.952-6.112c4.352-4.672,4.192-13.44,4.192-13.44
                s-0.608-41.056,18.464-47.104c18.784-5.952,42.912,39.68,68.48,57.248c19.328,13.28,34.016,10.368,34.016,10.368l68.384-0.96
                C488.583,400.807,524.359,398.599,507.399,370.471z"/>
        </g>
    </symbol>

    <symbol id="arrow-list" viewBox="0 0 492.002 492.002">
        <g>
            <path d="M484.136,328.473L264.988,109.329c-5.064-5.064-11.816-7.844-19.172-7.844c-7.208,0-13.964,2.78-19.02,7.844
                L7.852,328.265C2.788,333.333,0,340.089,0,347.297c0,7.208,2.784,13.968,7.852,19.032l16.124,16.124
                c5.064,5.064,11.824,7.86,19.032,7.86s13.964-2.796,19.032-7.86l183.852-183.852l184.056,184.064
                c5.064,5.06,11.82,7.852,19.032,7.852c7.208,0,13.96-2.792,19.028-7.852l16.128-16.132
                C494.624,356.041,494.624,338.965,484.136,328.473z"/>
        </g>
    </symbol>

    <symbol id="icon-reviews"  viewBox="0 0 60 60">
     <path d="M30,1.5c-16.542,0-30,12.112-30,27c0,5.204,1.646,10.245,4.768,14.604c-0.591,6.537-2.175,11.39-4.475,13.689	c-0.304,0.304-0.38,0.769-0.188,1.153C0.275,58.289,0.625,58.5,1,58.5c0.046,0,0.092-0.003,0.139-0.01	c0.405-0.057,9.813-1.411,16.618-5.339C21.621,54.71,25.737,55.5,30,55.5c16.542,0,30-12.112,30-27S46.542,1.5,30,1.5z M16,32.5	c-2.206,0-4-1.794-4-4s1.794-4,4-4s4,1.794,4,4S18.206,32.5,16,32.5z M30,32.5c-2.206,0-4-1.794-4-4s1.794-4,4-4s4,1.794,4,4	S32.206,32.5,30,32.5z M44,32.5c-2.206,0-4-1.794-4-4s1.794-4,4-4s4,1.794,4,4S46.206,32.5,44,32.5z"></path>
    </symbol>

    <symbol id="fb"  viewBox="0 0 512 512">
        <g>
            <path d="M288,176v-64c0-17.664,14.336-32,32-32h32V0h-64c-53.024,0-96,42.976-96,96v80h-64v80h64v256h96V256h64l32-80H288z"/>
        </g>
    </symbol>

    <symbol id="tw"  viewBox="0 0 512 512">
        <g>
            <path d="M512,97.248c-19.04,8.352-39.328,13.888-60.48,16.576c21.76-12.992,38.368-33.408,46.176-58.016
                c-20.288,12.096-42.688,20.64-66.56,25.408C411.872,60.704,384.416,48,354.464,48c-58.112,0-104.896,47.168-104.896,104.992
                c0,8.32,0.704,16.32,2.432,23.936c-87.264-4.256-164.48-46.08-216.352-109.792c-9.056,15.712-14.368,33.696-14.368,53.056
                c0,36.352,18.72,68.576,46.624,87.232c-16.864-0.32-33.408-5.216-47.424-12.928c0,0.32,0,0.736,0,1.152
                c0,51.008,36.384,93.376,84.096,103.136c-8.544,2.336-17.856,3.456-27.52,3.456c-6.72,0-13.504-0.384-19.872-1.792
                c13.6,41.568,52.192,72.128,98.08,73.12c-35.712,27.936-81.056,44.768-130.144,44.768c-8.608,0-16.864-0.384-25.12-1.44
                C46.496,446.88,101.6,464,161.024,464c193.152,0,298.752-160,298.752-298.688c0-4.64-0.16-9.12-0.384-13.568
                C480.224,136.96,497.728,118.496,512,97.248z"/>
        </g>
    </symbol>

    <symbol id="in"  viewBox="0 0 511 511.9">
        <path d="m510.949219 150.5c-1.199219-27.199219-5.597657-45.898438-11.898438-62.101562-6.5-17.199219-16.5-32.597657-29.601562-45.398438-12.800781-13-28.300781-23.101562-45.300781-29.5-16.296876-6.300781-34.898438-10.699219-62.097657-11.898438-27.402343-1.300781-36.101562-1.601562-105.601562-1.601562s-78.199219.300781-105.5 1.5c-27.199219 1.199219-45.898438 5.601562-62.097657 11.898438-17.203124 6.5-32.601562 16.5-45.402343 29.601562-13 12.800781-23.097657 28.300781-29.5 45.300781-6.300781 16.300781-10.699219 34.898438-11.898438 62.097657-1.300781 27.402343-1.601562 36.101562-1.601562 105.601562s.300781 78.199219 1.5 105.5c1.199219 27.199219 5.601562 45.898438 11.902343 62.101562 6.5 17.199219 16.597657 32.597657 29.597657 45.398438 12.800781 13 28.300781 23.101562 45.300781 29.5 16.300781 6.300781 34.898438 10.699219 62.101562 11.898438 27.296876 1.203124 36 1.5 105.5 1.5s78.199219-.296876 105.5-1.5c27.199219-1.199219 45.898438-5.597657 62.097657-11.898438 34.402343-13.300781 61.601562-40.5 74.902343-74.898438 6.296876-16.300781 10.699219-34.902343 11.898438-62.101562 1.199219-27.300781 1.5-36 1.5-105.5s-.101562-78.199219-1.300781-105.5zm-46.097657 209c-1.101562 25-5.300781 38.5-8.800781 47.5-8.601562 22.300781-26.300781 40-48.601562 48.601562-9 3.5-22.597657 7.699219-47.5 8.796876-27 1.203124-35.097657 1.5-103.398438 1.5s-76.5-.296876-103.402343-1.5c-25-1.097657-38.5-5.296876-47.5-8.796876-11.097657-4.101562-21.199219-10.601562-29.398438-19.101562-8.5-8.300781-15-18.300781-19.101562-29.398438-3.5-9-7.699219-22.601562-8.796876-47.5-1.203124-27-1.5-35.101562-1.5-103.402343s.296876-76.5 1.5-103.398438c1.097657-25 5.296876-38.5 8.796876-47.5 4.101562-11.101562 10.601562-21.199219 19.203124-29.402343 8.296876-8.5 18.296876-15 29.398438-19.097657 9-3.5 22.601562-7.699219 47.5-8.800781 27-1.199219 35.101562-1.5 103.398438-1.5 68.402343 0 76.5.300781 103.402343 1.5 25 1.101562 38.5 5.300781 47.5 8.800781 11.097657 4.097657 21.199219 10.597657 29.398438 19.097657 8.5 8.300781 15 18.300781 19.101562 29.402343 3.5 9 7.699219 22.597657 8.800781 47.5 1.199219 27 1.5 35.097657 1.5 103.398438s-.300781 76.300781-1.5 103.300781zm0 0"/><path d="m256.449219 124.5c-72.597657 0-131.5 58.898438-131.5 131.5s58.902343 131.5 131.5 131.5c72.601562 0 131.5-58.898438 131.5-131.5s-58.898438-131.5-131.5-131.5zm0 216.800781c-47.097657 0-85.300781-38.199219-85.300781-85.300781s38.203124-85.300781 85.300781-85.300781c47.101562 0 85.300781 38.199219 85.300781 85.300781s-38.199219 85.300781-85.300781 85.300781zm0 0"/><path d="m423.851562 119.300781c0 16.953125-13.746093 30.699219-30.703124 30.699219-16.953126 0-30.699219-13.746094-30.699219-30.699219 0-16.957031 13.746093-30.699219 30.699219-30.699219 16.957031 0 30.703124 13.742188 30.703124 30.699219zm0 0"/>
    </symbol>

    <symbol id="em"  viewBox="0 0 512 512">
        <g>
            <path d="M467,61H45C20.218,61,0,81.196,0,106v300c0,24.72,20.128,45,45,45h422c24.72,0,45-20.128,45-45V106
                C512,81.28,491.872,61,467,61z M460.786,91L256.954,294.833L51.359,91H460.786z M30,399.788V112.069l144.479,143.24L30,399.788z
                 M51.213,421l144.57-144.57l50.657,50.222c5.864,5.814,15.327,5.795,21.167-0.046L317,277.213L460.787,421H51.213z M482,399.787
                L338.213,256L482,112.212V399.787z"/>
        </g>
    </symbol>

    <symbol id="pk"  viewBox="0 0 64 64">
        <path d="M57,2H7A5.006,5.006,0,0,0,2,7V45a5.006,5.006,0,0,0,5,5H23.557l-2.25,6H19a3,3,0,0,0-3,3v2a1,1,0,0,0,1,1H47a1,1,0,0,0,1-1V59a3,3,0,0,0-3-3H42.693l-2.25-6H57a5.006,5.006,0,0,0,5-5V7A5.006,5.006,0,0,0,57,2ZM7,4H57a3,3,0,0,1,3,3V38H4V7A3,3,0,0,1,7,4ZM46,59v1H18V59a1,1,0,0,1,1-1H45A1,1,0,0,1,46,59Zm-5.443-3H23.443l2.25-6H38.307ZM57,48H7a3,3,0,0,1-3-3V40H60v5A3,3,0,0,1,57,48Z"/>
    </symbol>

    <symbol id="vk"  viewBox="0 0 511.962 511.962">
        <g>
            <path d="M507.399,370.471c-1.376-2.304-9.888-20.8-50.848-58.816c-42.88-39.808-37.12-33.344,14.528-102.176
                c31.456-41.92,44.032-67.52,40.096-78.464c-3.744-10.432-26.88-7.68-26.88-7.68l-76.928,0.448c0,0-5.696-0.768-9.952,1.76
                c-4.128,2.496-6.784,8.256-6.784,8.256s-12.192,32.448-28.448,60.032c-34.272,58.208-48,61.28-53.6,57.664
                c-13.024-8.416-9.76-33.856-9.76-51.904c0-56.416,8.544-79.936-16.672-86.016c-8.384-2.016-14.528-3.36-35.936-3.584
                c-27.456-0.288-50.72,0.096-63.872,6.528c-8.768,4.288-15.52,13.856-11.392,14.4c5.088,0.672,16.608,3.104,22.72,11.424
                c7.904,10.72,7.616,34.848,7.616,34.848s4.544,66.4-10.592,74.656c-10.4,5.664-24.64-5.888-55.2-58.72
                c-15.648-27.04-27.488-56.96-27.488-56.96s-2.272-5.568-6.336-8.544c-4.928-3.616-11.84-4.768-11.84-4.768l-73.152,0.448
                c0,0-10.976,0.32-15.008,5.088c-3.584,4.256-0.288,13.024-0.288,13.024s57.28,133.984,122.112,201.536
                c59.488,61.92,127.008,57.856,127.008,57.856h30.592c0,0,9.248-1.024,13.952-6.112c4.352-4.672,4.192-13.44,4.192-13.44
                s-0.608-41.056,18.464-47.104c18.784-5.952,42.912,39.68,68.48,57.248c19.328,13.28,34.016,10.368,34.016,10.368l68.384-0.96
                C488.583,400.807,524.359,398.599,507.399,370.471z"/>
        </g>
    </symbol>
    
    <symbol id="vi"  viewBox="0 0 322 322">
        <g id="XMLID_7_">
            <path id="XMLID_8_" d="M275.445,135.123c0.387-45.398-38.279-87.016-86.192-92.771c-0.953-0.113-1.991-0.285-3.09-0.467
                c-2.372-0.393-4.825-0.797-7.3-0.797c-9.82,0-12.445,6.898-13.136,11.012c-0.672,4-0.031,7.359,1.902,9.988
                c3.252,4.422,8.974,5.207,13.57,5.836c1.347,0.186,2.618,0.359,3.682,0.598c43.048,9.619,57.543,24.742,64.627,67.424
                c0.173,1.043,0.251,2.328,0.334,3.691c0.309,5.102,0.953,15.717,12.365,15.717h0.001c0.95,0,1.971-0.082,3.034-0.244
                c10.627-1.615,10.294-11.318,10.134-15.98c-0.045-1.313-0.088-2.555,0.023-3.381C275.429,135.541,275.444,135.332,275.445,135.123z
                "/>
            <path id="XMLID_9_" d="M176.077,25.688c1.275,0.092,2.482,0.18,3.487,0.334c70.689,10.871,103.198,44.363,112.207,115.605
                c0.153,1.211,0.177,2.688,0.202,4.252c0.09,5.566,0.275,17.145,12.71,17.385l0.386,0.004c3.9,0,7.002-1.176,9.221-3.498
                c3.871-4.049,3.601-10.064,3.383-14.898c-0.053-1.186-0.104-2.303-0.091-3.281C318.481,68.729,255.411,2.658,182.614,0.201
                c-0.302-0.01-0.59,0.006-0.881,0.047c-0.143,0.021-0.408,0.047-0.862,0.047c-0.726,0-1.619-0.063-2.566-0.127
                C177.16,0.09,175.862,0,174.546,0c-11.593,0-13.797,8.24-14.079,13.152C159.817,24.504,170.799,25.303,176.077,25.688z"/>
            <path id="XMLID_10_" d="M288.36,233.703c-1.503-1.148-3.057-2.336-4.512-3.508c-7.718-6.211-15.929-11.936-23.87-17.473
                c-1.648-1.148-3.296-2.297-4.938-3.449c-10.172-7.145-19.317-10.617-27.957-10.617c-11.637,0-21.783,6.43-30.157,19.109
                c-3.71,5.621-8.211,8.354-13.758,8.354c-3.28,0-7.007-0.936-11.076-2.783c-32.833-14.889-56.278-37.717-69.685-67.85
                c-6.481-14.564-4.38-24.084,7.026-31.832c6.477-4.396,18.533-12.58,17.679-28.252c-0.967-17.797-40.235-71.346-56.78-77.428
                c-7.005-2.576-14.365-2.6-21.915-0.06c-19.02,6.394-32.669,17.623-39.475,32.471C2.365,64.732,2.662,81.578,9.801,99.102
                c20.638,50.666,49.654,94.84,86.245,131.293c35.816,35.684,79.837,64.914,130.839,86.875c4.597,1.978,9.419,3.057,12.94,3.844
                c1.2,0.27,2.236,0.5,2.991,0.707c0.415,0.113,0.843,0.174,1.272,0.178l0.403,0.002c0.001,0,0,0,0.002,0
                c23.988,0,52.791-21.92,61.637-46.91C313.88,253.209,299.73,242.393,288.36,233.703z"/>
            <path id="XMLID_11_" d="M186.687,83.564c-4.107,0.104-12.654,0.316-15.653,9.021c-1.403,4.068-1.235,7.6,0.5,10.498
                c2.546,4.252,7.424,5.555,11.861,6.27c16.091,2.582,24.355,11.48,26.008,28c0.768,7.703,5.955,13.082,12.615,13.082h0.001
                c0.492,0,0.995-0.029,1.496-0.09c8.01-0.953,11.893-6.838,11.542-17.49c0.128-11.117-5.69-23.738-15.585-33.791
                C209.543,88.98,197.574,83.301,186.687,83.564z"/>
        </g>
    </symbol>

    <symbol id="icon-phone" viewBox="0 0 384 384">
        
        <g>
            <path d="M353.188,252.052c-23.51,0-46.594-3.677-68.469-10.906c-10.719-3.656-23.896-0.302-30.438,6.417l-43.177,32.594
                c-50.073-26.729-80.917-57.563-107.281-107.26l31.635-42.052c8.219-8.208,11.167-20.198,7.635-31.448
                c-7.26-21.99-10.948-45.063-10.948-68.583C132.146,13.823,118.323,0,101.333,0H30.813C13.823,0,0,13.823,0,30.813
                C0,225.563,158.438,384,353.188,384c16.99,0,30.813-13.823,30.813-30.813v-70.323C384,265.875,370.177,252.052,353.188,252.052z"
                />
        </g>
        
    </symbol>

    <symbol id="icon-plus" viewBox="0 0 341.4 341.4">
        <g>
            <polygon points="192,149.4 192,0 149.4,0 149.4,149.4 0,149.4 0,192 149.4,192 149.4,341.4 192,341.4 192,192 341.4,192 
                341.4,149.4 "/>
        </g>
    </symbol>

    <symbol id="icon-search" viewBox="0 0 515.558 515.558">
        <path d="m378.344 332.78c25.37-34.645 40.545-77.2 40.545-123.333 0-115.484-93.961-209.445-209.445-209.445s-209.444 93.961-209.444 209.445 93.961 209.445 209.445 209.445c46.133 0 88.692-15.177 123.337-40.547l137.212 137.212 45.564-45.564c0-.001-137.214-137.213-137.214-137.213zm-168.899 21.667c-79.958 0-145-65.042-145-145s65.042-145 145-145 145 65.042 145 145-65.043 145-145 145z"/>
    </symbol>

    <symbol id="icon-open" viewBox="0 0 512 512">
        <g><path d="m174 240h-108c-36.393 0-66-29.607-66-66v-108c0-36.393 29.607-66 66-66h108c36.393 0 66 29.607 66 66v108c0 36.393-29.607 66-66 66zm-108-208c-18.748 0-34 15.252-34 34v108c0 18.748 15.252 34 34 34h108c18.748 0 34-15.252 34-34v-108c0-18.748-15.252-34-34-34z"/><path d="m446 240h-108c-36.393 0-66-29.607-66-66v-108c0-36.393 29.607-66 66-66h108c36.393 0 66 29.607 66 66v108c0 36.393-29.607 66-66 66zm-108-208c-18.748 0-34 15.252-34 34v108c0 18.748 15.252 34 34 34h108c18.748 0 34-15.252 34-34v-108c0-18.748-15.252-34-34-34z"/><path d="m392 512c-66.168 0-120-53.832-120-120s53.832-120 120-120 120 53.832 120 120-53.832 120-120 120zm0-208c-48.523 0-88 39.477-88 88s39.477 88 88 88 88-39.477 88-88-39.477-88-88-88z"/><path d="m174 512h-108c-36.393 0-66-29.607-66-66v-108c0-36.393 29.607-66 66-66h108c36.393 0 66 29.607 66 66v108c0 36.393-29.607 66-66 66zm-108-208c-18.748 0-34 15.252-34 34v108c0 18.748 15.252 34 34 34h108c18.748 0 34-15.252 34-34v-108c0-18.748-15.252-34-34-34z"/></g>
    </symbol>
   

</svg>