<svg xmlns="http://www.w3.org/2000/svg" xmlns:xlink="http://www.w3.org/1999/xlink" display="none">

        <!-- иконка поиска -->
    <symbol id="search" viewBox="0 0 18 18">
        <path d="M12.5 11H11.71L11.43 10.73C12.63 9.33 13.25 7.42 12.91 5.39C12.44 2.61 10.12 0.39 7.32 0.05C3.09 -0.47 -0.47 3.09 0.05 7.32C0.39 10.12 2.61 12.44 5.39 12.91C7.42 13.25 9.33 12.63 10.73 11.43L11 11.71V12.5L15.25 16.75C15.66 17.16 16.33 17.16 16.74 16.75C17.15 16.34 17.15 15.67 16.74 15.26L12.5 11ZM6.5 11C4.01 11 2 8.99 2 6.5C2 4.01 4.01 2 6.5 2C8.99 2 11 4.01 11 6.5C11 8.99 8.99 11 6.5 11Z"/> 
    </symbol>

        <!-- иконка триугольника -->
    <symbol id="triangle" viewBox="0 0 11 6">
        <path d="M5.5 6L11 0H0L5.5 6Z"/>
    </symbol>

        <!-- иконка пользователя -->
    <symbol id="user" viewBox="0 0 27 34">
        <path d="M21.6743 22C21.3028 22 20.5596 22 19.5688 21.5C18.2064 21 17.3395 19.875 17.0917 18.125V18H17.2156C17.8349 17.625 18.3303 17.125 18.9495 16.375C19.9404 15 20.6835 13.125 20.9312 11.5C20.9312 11.375 20.9312 11.25 21.055 11.125V11C21.4266 10 21.6743 8.875 21.6743 7.75C21.6743 3.5 18.3303 0 14.1193 0C13.0046 0 12.0138 0.25 11.0229 0.625C10.6514 0.625 10.2798 0.75 9.90826 0.875C8.17431 1.375 6.81193 2.625 6.06881 4.375C5.20184 6 5.07798 7.875 5.44954 9.75L5.57339 10C5.69725 10.25 5.69725 10.375 5.69725 10.625C5.69725 10.875 5.8211 11 5.8211 11.125C5.8211 11.125 5.8211 11.25 5.94495 11.25H6.06881V11.375C6.56422 14.25 7.92661 16.625 9.7844 18H9.90826V18.125C9.66055 19.625 8.79358 20.875 7.43119 21.625C7.05963 21.875 6.31651 22.125 5.32569 22.125C2.35321 22.125 0 24.375 0 27.25V33.125C0 33.625 0.37156 34 0.866973 34H26.133C26.6284 34 27 33.625 27 33.125V27.25C27 24.375 24.6468 22.125 21.6743 22ZM7.18349 9.25V9C6.56422 6 7.92661 3.125 10.2798 2.5L11.5183 2.25C12.3853 1.875 13.1284 1.625 13.9954 1.625C17.0917 1.625 19.6927 4.25 19.8165 7.625V7.875L19.5688 7.75C19.0734 7.375 18.2064 7 17.4633 7H12.1376C11.7661 7.125 11.5183 7 11.2706 6.75C11.0229 6.625 10.8991 6.5 10.7752 6.25C10.6514 5.875 10.2798 5.5 9.7844 5.625C9.28899 5.625 9.04128 5.875 8.79358 6.375C8.66973 7.25 8.17431 8.125 7.30734 9.125L7.18349 9.25ZM9.7844 15.75C8.66973 14.625 8.05046 13 7.80275 11.25C8.66973 10.25 9.41284 9.375 10.0321 8.125L10.156 8L10.2798 8.125C10.7752 8.5 11.5183 8.75 12.1376 8.75H17.4633C18.2064 8.75 18.8257 9.125 19.0734 9.75C19.0734 11.875 18.4541 13.75 17.3395 15.25C16.3486 16.75 14.8624 17.5 13.3761 17.5C12.1376 17.625 10.7752 16.875 9.7844 15.75ZM9.41284 22.25C10.5275 21.25 11.2706 20.25 11.5183 19V18.875H11.6422C12.8807 19.375 14.1193 19.375 15.2339 18.875H15.3578V19C15.7294 20.25 16.4725 21.375 17.5872 22.375L17.711 22.5L17.5872 22.625L13.5 28.25L9.41284 22.25ZM25.2661 32.375H1.73395V27.25C1.73395 25.25 3.46789 23.625 5.57339 23.625C5.57339 23.625 6.81193 23.625 7.80275 23.125H7.92661L12.1376 28.875C12.5092 29.375 13.0046 29.625 13.6239 29.625C14.1193 29.625 14.7385 29.375 15.1101 28.875L19.3211 23.125H19.445C20.5596 23.5 21.6743 23.625 21.6743 23.625C23.7798 23.625 25.5138 25.25 25.5138 27.25V32.375H25.2661Z"/>
    </symbol>

        <!-- крестик -->
    <symbol id="close" viewBox="0 0 14 14">
        <path d="M14 1.41L12.59 0L7 5.59L1.41 0L0 1.41L5.59 7L0 12.59L1.41 14L7 8.41L12.59 14L14 12.59L8.41 7L14 1.41Z"/>
    </symbol>

        <!-- arrow -->
    <symbol id="arrow_left" viewBox="0 0 6 11">
        <path d="M-2.36425e-07 5.5L6 9.53674e-07L6 11L-2.36425e-07 5.5Z"/>
    </symbol>

        <!-- arrow -->
    <symbol id="arrow_right" viewBox="0 0 6 11">
        <path d="M6 5.5L-4.80825e-07 9.53674e-07L0 11L6 5.5Z"/>
    </symbol>

        <!-- arrow-min -->
        <symbol id="arrow_min"  viewBox="0 0 11 6">
        <path d="M5.5 6L11 0H0L5.5 6Z" fill="#EB291C"/>
    </symbol>

        <!-- arrow-add -->
    <symbol id="arrow_add"  viewBox="0 0 11 6">
        <path d="M5.5 -4.76837e-07L11 6H0L5.5 -4.76837e-07Z" fill="#1BAC67"/>
    </symbol>

        <!-- time -->
    <symbol id="time"  viewBox="0 0 24 24">
        <path d="M11.99 2C6.47 2 2 6.48 2 12C2 17.52 6.47 22 11.99 22C17.52 22 22 17.52 22 12C22 6.48 17.52 2 11.99 2ZM12 20C7.58 20 4 16.42 4 12C4 7.58 7.58 4 12 4C16.42 4 20 7.58 20 12C20 16.42 16.42 20 12 20Z" fill="#A3ADB5"/>
        <path d="M12.5 7H11V13L16.25 16.15L17 14.92L12.5 12.25V7Z" fill="#A3ADB5"/>
    </symbol>

        <!-- voice -->
    <symbol id="voice"  viewBox="0 0 22 15">
        <path d="M11 2C14.79 2 18.17 4.13 19.82 7.5C18.17 10.87 14.79 13 11 13C7.21 13 3.83 10.87 2.18 7.5C3.83 4.13 7.21 2 11 2ZM11 0C6 0 1.73 3.11 0 7.5C1.73 11.89 6 15 11 15C16 15 20.27 11.89 22 7.5C20.27 3.11 16 0 11 0ZM11 5C12.38 5 13.5 6.12 13.5 7.5C13.5 8.88 12.38 10 11 10C9.62 10 8.5 8.88 8.5 7.5C8.5 6.12 9.62 5 11 5ZM11 3C8.52 3 6.5 5.02 6.5 7.5C6.5 9.98 8.52 12 11 12C13.48 12 15.5 9.98 15.5 7.5C15.5 5.02 13.48 3 11 3Z" fill="#A3ADB5"/>
    </symbol>

        <!-- telegram -->
    <symbol id="telegram"  viewBox="0 0 18 15">
        <path d="M17.7638 0.104316C17.5913 -0.0179335 17.3648 -0.0344335 17.1773 0.0638165L0.302283 8.87632C0.102783 8.98057 -0.0149666 9.19357 0.00153336 9.41782C0.0187834 9.64282 0.168033 9.83482 0.380283 9.90757L5.07153 11.5111L15.0623 2.96857L7.33128 12.2828L15.1935 14.9701C15.252 14.9896 15.3135 15.0001 15.375 15.0001C15.477 15.0001 15.5783 14.9723 15.6675 14.9183C15.81 14.8313 15.9068 14.6851 15.9315 14.5208L17.994 0.645816C18.0248 0.435816 17.9363 0.227316 17.7638 0.104316Z"/>
    </symbol>

        <!-- arrow-prev -->
    <symbol id="arrow-prev"  viewBox="0 0 22 66">
        <path d="M20.8 64.1L0.999989 33L20.8 1" stroke-width="2" stroke-miterlimit="10" stroke-linecap="round" stroke-linejoin="round"/>
    </symbol>

        <!-- arrow-next-->
    <symbol id="arrow-next"  viewBox="0 0 22 66">
        <path d="M1 64.1L20.8 33L1 1" stroke-width="2" stroke-miterlimit="10" stroke-linecap="round" stroke-linejoin="round"/>
    </symbol>

        <!-- icon-user-->
    <symbol id="icon-user"  viewBox="0 0 16 16">
            <path d="M8 1.9C9.16 1.9 10.1 2.84 10.1 4C10.1 5.16 9.16 6.1 8 6.1C6.84 6.1 5.9 5.16 5.9 4C5.9 2.84 6.84 1.9 8 1.9ZM8 10.9C10.97 10.9 14.1 12.36 14.1 13V14.1H1.9V13C1.9 12.36 5.03 10.9 8 10.9ZM8 0C5.79 0 4 1.79 4 4C4 6.21 5.79 8 8 8C10.21 8 12 6.21 12 4C12 1.79 10.21 0 8 0ZM8 9C5.33 9 0 10.34 0 13V16H16V13C16 10.34 10.67 9 8 9Z" fill="#A3ADB5" />
    </symbol>

        <!-- loading-->
    <symbol id="loading"  viewBox="0 0 16 16">
        <path d="M13.6498 2.35C12.1998 0.9 10.2098 0 7.99977 0C3.57977 0 0.00976562 3.58 0.00976562 8C0.00976562 12.42 3.57977 16 7.99977 16C11.7298 16 14.8398 13.45 15.7298 10H13.6498C12.8298 12.33 10.6098 14 7.99977 14C4.68977 14 1.99977 11.31 1.99977 8C1.99977 4.69 4.68977 2 7.99977 2C9.65977 2 11.1398 2.69 12.2198 3.78L8.99977 7H15.9998V0L13.6498 2.35Z" />
    </symbol>

        <!-- arrow-pag-prev-->
    <symbol id="arrow-pag-prev"  viewBox="0 0 31 16">
        <path d="M0.292891 8.70711C-0.0976334 8.31658 -0.0976334 7.68342 0.292891 7.29289L6.65685 0.928932C7.04738 0.538408 7.68054 0.538408 8.07107 0.928932C8.46159 1.31946 8.46159 1.95262 8.07107 2.34315L2.41421 8L8.07107 13.6569C8.46159 14.0474 8.46159 14.6805 8.07107 15.0711C7.68054 15.4616 7.04738 15.4616 6.65685 15.0711L0.292891 8.70711ZM31 9H0.999998V7H31V9Z"/>
    </symbol>

    <!-- arrow-pag-next-->
    <symbol id="arrow-pag-next"  viewBox="0 0 31 16">
        <path d="M30.7071 8.70711C31.0976 8.31658 31.0976 7.68342 30.7071 7.29289L24.3431 0.928932C23.9526 0.538408 23.3195 0.538408 22.9289 0.928932C22.5384 1.31946 22.5384 1.95262 22.9289 2.34315L28.5858 8L22.9289 13.6569C22.5384 14.0474 22.5384 14.6805 22.9289 15.0711C23.3195 15.4616 23.9526 15.4616 24.3431 15.0711L30.7071 8.70711ZM0 9H30V7H0V9Z"/>
    </symbol>

</svg>