<?xml version="1.0" encoding="UTF-8"?>
<svg width="88px" height="317px" viewBox="0 0 88 317" version="1.1" xmlns="http://www.w3.org/2000/svg" xmlns:xlink="http://www.w3.org/1999/xlink">
    <!-- Generator: Sketch 39.1 (31720) - http://www.bohemiancoding.com/sketch -->
    <title>О нас</title>
    <desc>Created with Sketch.</desc>
    <defs></defs>
    <g id="Page-1" stroke="none" stroke-width="1" fill="none" fill-rule="evenodd">
        <g id="Дизайн" transform="translate(0.000000, -706.000000)" fill="#EDEDED">
            <g id="About-Us" transform="translate(0.000000, 700.000000)">
                <path d="M-41.7773438,161.835938 C-41.7773438,174.257875 -45.3417612,184.570271 -52.4707031,192.773438 C-59.599645,200.976604 -68.8280684,205.078125 -80.15625,205.078125 C-91.1719301,205.078125 -100.117153,200.976604 -106.992188,192.773438 C-113.867222,184.570271 -117.304688,174.257875 -117.304688,161.835938 L-117.304688,160.605469 C-117.304688,148.222594 -113.867222,137.910197 -106.992188,129.667969 C-100.117153,121.42574 -91.1719301,117.304688 -80.15625,117.304688 C-68.8280684,117.304688 -59.599645,121.42574 -52.4707031,129.667969 C-45.3417612,137.910197 -41.7773438,148.222594 -41.7773438,160.605469 L-41.7773438,161.835938 Z M-53.3203125,160.488281 C-53.3203125,150.566357 -55.6933356,142.470734 -60.4394531,136.201172 C-65.1855706,129.931609 -71.7577705,126.796875 -80.15625,126.796875 C-88.2031652,126.796875 -94.4823993,129.941375 -98.9941406,136.230469 C-103.505882,142.519563 -105.761719,150.605419 -105.761719,160.488281 L-105.761719,161.835938 C-105.761719,171.835987 -103.505882,179.970672 -98.9941406,186.240234 C-94.4823993,192.509797 -88.2031652,195.644531 -80.15625,195.644531 C-71.6405824,195.644531 -65.0390859,192.519563 -60.3515625,186.269531 C-55.6640391,180.0195 -53.3203125,171.87505 -53.3203125,161.835938 L-53.3203125,160.488281 Z M-1.7578125,147.890625 L-1.7578125,140.449219 L28.8867188,140.449219 L28.8867188,147.890625 L19.3359375,149.53125 L19.3359375,167.871094 L47.5195312,167.871094 L47.5195312,149.53125 L37.96875,147.890625 L37.96875,140.449219 L47.5195312,140.449219 L59.1210938,140.449219 L68.671875,140.449219 L68.671875,147.890625 L59.1210938,149.53125 L59.1210938,194.824219 L68.671875,196.464844 L68.671875,203.847656 L37.96875,203.847656 L37.96875,196.464844 L47.5195312,194.824219 L47.5195312,176.894531 L19.3359375,176.894531 L19.3359375,194.824219 L28.8867188,196.464844 L28.8867188,203.847656 L-1.7578125,203.847656 L-1.7578125,196.464844 L7.79296875,194.824219 L7.79296875,149.53125 L-1.7578125,147.890625 Z M120.878906,203.847656 C120.527342,202.128898 120.253907,200.585944 120.058594,199.21875 C119.86328,197.851556 119.726563,196.484382 119.648438,195.117188 C117.421864,197.968764 114.638689,200.341787 111.298828,202.236328 C107.958968,204.130869 104.39455,205.078125 100.605469,205.078125 C94.0038732,205.078125 88.9843922,203.466813 85.546875,200.244141 C82.1093578,197.021468 80.390625,192.480498 80.390625,186.621094 C80.390625,180.605439 82.8222413,175.966813 87.6855469,172.705078 C92.5488524,169.443343 99.2187076,167.8125 107.695312,167.8125 L119.589844,167.8125 L119.589844,160.429688 C119.589844,156.718731 118.41798,153.779308 116.074219,151.611328 C113.730457,149.443349 110.468771,148.359375 106.289062,148.359375 C103.398423,148.359375 100.84962,148.730465 98.6425781,149.472656 C96.4355358,150.214847 94.6484443,151.230462 93.28125,152.519531 L92.0507812,159.199219 L83.1445312,159.199219 L83.1445312,146.894531 C86.0351707,144.589832 89.5312295,142.744148 93.6328125,141.357422 C97.7343955,139.970696 102.187476,139.277344 106.992188,139.277344 C114.179723,139.277344 119.999978,141.113263 124.453125,144.785156 C128.906272,148.45705 131.132812,153.710903 131.132812,160.546875 L131.132812,191.074219 C131.132812,191.894535 131.142578,192.695309 131.162109,193.476562 C131.181641,194.257816 131.230468,195.039059 131.308594,195.820312 L135.996094,196.464844 L135.996094,203.847656 L120.878906,203.847656 Z M102.304688,195.410156 C106.132832,195.410156 109.62889,194.492197 112.792969,192.65625 C115.957047,190.820303 118.222649,188.613294 119.589844,186.035156 L119.589844,175.605469 L107.285156,175.605469 C102.55857,175.605469 98.8183731,176.699208 96.0644531,178.886719 C93.3105331,181.07423 91.9335938,183.730453 91.9335938,186.855469 C91.9335938,189.62892 92.7929602,191.74804 94.5117188,193.212891 C96.2304773,194.677742 98.8281076,195.410156 102.304688,195.410156 L102.304688,195.410156 Z M174.082031,196.054688 C177.910175,196.054688 181.279282,194.873059 184.189453,192.509766 C187.099624,190.146473 188.554688,187.246111 188.554688,183.808594 L198.925781,183.808594 L199.042969,184.160156 C199.238282,189.628934 196.806666,194.482401 191.748047,198.720703 C186.689428,202.959006 180.800815,205.078125 174.082031,205.078125 C164.863235,205.078125 157.82229,202.070343 152.958984,196.054688 C148.095679,190.039032 145.664062,182.480514 145.664062,173.378906 L145.664062,170.917969 C145.664062,161.894486 148.105444,154.365265 152.988281,148.330078 C157.871118,142.294892 164.902298,139.277344 174.082031,139.277344 C179.160182,139.277344 183.720683,140.117179 187.763672,141.796875 C191.806661,143.476571 195.156237,145.781235 197.8125,148.710938 L198.339844,162.773438 L189.140625,162.773438 L186.621094,152.8125 C185.253899,151.484368 183.496104,150.41016 181.347656,149.589844 C179.199208,148.769527 176.777357,148.359375 174.082031,148.359375 C168.027313,148.359375 163.701185,150.537088 161.103516,154.892578 C158.505846,159.248069 157.207031,164.589812 157.207031,170.917969 L157.207031,173.378906 C157.207031,179.863314 158.496081,185.26365 161.074219,189.580078 C163.652357,193.896506 167.988251,196.054688 174.082031,196.054688 L174.082031,196.054688 Z" id="О-нас" transform="translate(43.886719, 161.191406) scale(-1, -1) rotate(90.000000) translate(-43.886719, -161.191406) "></path>
            </g>
        </g>
    </g>
</svg>