<?xml version="1.0" encoding="UTF-8"?>
<svg width="512px" height="512px" viewBox="0 0 512 512" version="1.1" xmlns="http://www.w3.org/2000/svg" xmlns:xlink="http://www.w3.org/1999/xlink">
    <!-- Generator: Sketch 39.1 (31720) - http://www.bohemiancoding.com/sketch -->
    <title>apartments</title>
    <desc>Created with Sketch.</desc>
    <defs></defs>
    <g id="Page-1" stroke="none" stroke-width="1" fill="none" fill-rule="evenodd">
        <g id="apartments" fill="#FEE078">
            <g id="Layer_1">
                <g id="Group">
                    <path d="M502.746,493.494 L498.069,493.494 C499.097,490.597 499.662,487.483 499.662,484.239 C499.662,477.378 497.164,470.913 492.752,465.917 C493.242,463.841 493.494,461.709 493.494,459.567 C493.494,447.505 485.757,437.22 474.988,433.401 L474.988,107.951 C474.988,102.84 470.845,98.698 465.735,98.698 L326.939,98.698 L326.939,9.253 C326.939,4.142 322.796,0 317.686,0 L46.266,0 C41.156,0 37.013,4.142 37.013,9.253 L37.013,433.4 C26.244,437.22 18.507,447.504 18.507,459.566 C18.507,461.708 18.759,463.841 19.248,465.916 C14.837,470.913 12.338,477.376 12.338,484.238 C12.338,487.483 12.903,490.597 13.931,493.493 L9.254,493.493 C4.144,493.493 0.001,497.635 0.001,502.746 C0.001,507.856 4.144,511.999 9.254,511.999 L502.746,511.999 C507.856,511.999 511.999,507.856 511.999,502.746 C511.999,497.636 507.856,493.494 502.746,493.494 L502.746,493.494 Z M326.939,117.204 L456.481,117.204 L456.481,433.405 C455.429,433.78 454.397,434.212 453.397,434.713 C449.591,432.815 445.376,431.809 441.06,431.809 C436.743,431.809 432.529,432.816 428.723,434.713 C424.917,432.815 420.703,431.809 416.386,431.809 C412.069,431.809 407.855,432.816 404.049,434.713 C400.243,432.815 396.029,431.809 391.712,431.809 C387.395,431.809 383.181,432.816 379.375,434.713 C375.569,432.815 371.354,431.809 367.038,431.809 C362.721,431.809 358.507,432.816 354.701,434.713 C350.895,432.815 346.681,431.809 342.364,431.809 C338.047,431.809 333.833,432.816 330.027,434.713 C329.025,434.213 327.995,433.78 326.943,433.405 L326.943,117.204 L326.939,117.204 Z M55.519,18.506 L308.433,18.506 L308.433,107.951 L308.433,433.405 C307.381,433.78 306.349,434.212 305.349,434.713 C301.543,432.815 297.328,431.809 293.012,431.809 C289.83,431.809 286.706,432.36 283.759,433.407 L283.759,428.721 C283.759,423.61 279.616,419.468 274.506,419.468 C269.396,419.468 265.253,423.61 265.253,428.721 L265.253,431.984 C262.022,432.346 258.893,433.271 256,434.713 C253.107,433.271 249.978,432.345 246.747,431.984 L246.747,428.721 C246.747,423.61 242.604,419.468 237.494,419.468 C232.384,419.468 228.241,423.61 228.241,428.721 L228.241,433.405 C225.294,432.359 222.17,431.807 218.988,431.807 C215.806,431.807 212.682,432.358 209.735,433.405 L209.735,428.721 C209.735,423.61 205.592,419.468 200.482,419.468 C195.372,419.468 191.229,423.61 191.229,428.721 L191.229,431.984 C187.998,432.346 184.869,433.271 181.976,434.713 C179.083,433.271 175.954,432.345 172.723,431.984 L172.723,428.721 C172.723,423.61 168.58,419.468 163.47,419.468 C158.36,419.468 154.217,423.61 154.217,428.721 L154.217,433.405 C151.27,432.359 148.146,431.807 144.964,431.807 C141.782,431.807 138.658,432.358 135.711,433.405 L135.711,428.721 C135.711,423.61 131.568,419.468 126.458,419.468 C121.348,419.468 117.205,423.61 117.205,428.721 L117.205,431.984 C113.974,432.346 110.845,433.271 107.952,434.713 C105.059,433.271 101.93,432.345 98.699,431.984 L98.699,428.721 C98.699,423.61 94.556,419.468 89.446,419.468 C84.336,419.468 80.193,423.61 80.193,428.721 L80.193,433.405 C77.246,432.359 74.122,431.807 70.94,431.807 C66.623,431.807 62.409,432.814 58.603,434.711 C57.601,434.211 56.571,433.778 55.519,433.403 L55.519,18.506 L55.519,18.506 Z M471.925,493.492 C471.909,493.492 471.894,493.495 471.877,493.495 L40.146,493.495 C40.129,493.495 40.114,493.492 40.098,493.492 C34.995,493.492 30.845,489.342 30.845,484.239 C30.845,481.077 32.45,478.163 35.137,476.444 C39.277,473.796 40.626,468.375 38.209,464.097 C37.416,462.692 37.014,461.169 37.014,459.567 C37.014,454.464 41.164,450.314 46.267,450.314 C49.17,450.314 51.218,451.606 52.426,452.689 C55.942,455.844 61.268,455.844 64.784,452.689 C65.992,451.606 68.04,450.314 70.943,450.314 C73.845,450.314 75.894,451.606 77.102,452.689 C80.618,455.844 85.944,455.844 89.46,452.689 C90.668,451.606 92.716,450.314 95.619,450.314 C98.522,450.314 100.57,451.606 101.778,452.689 C105.294,455.844 110.62,455.844 114.136,452.689 C115.344,451.606 117.392,450.314 120.295,450.314 C123.197,450.314 125.246,451.606 126.454,452.689 C129.97,455.844 135.296,455.844 138.812,452.689 C140.02,451.606 142.068,450.314 144.971,450.314 C147.873,450.314 149.922,451.606 151.13,452.689 C154.646,455.844 159.972,455.844 163.488,452.689 C164.696,451.606 166.744,450.314 169.647,450.314 C172.549,450.314 174.598,451.606 175.806,452.689 C179.322,455.844 184.648,455.844 188.164,452.689 C189.372,451.606 191.42,450.314 194.323,450.314 C197.225,450.314 199.274,451.606 200.482,452.689 C203.998,455.844 209.324,455.844 212.84,452.689 C214.048,451.606 216.096,450.314 218.999,450.314 C221.901,450.314 223.95,451.606 225.158,452.689 C228.674,455.844 234,455.844 237.516,452.689 C238.724,451.606 240.772,450.314 243.675,450.314 C246.577,450.314 248.626,451.606 249.834,452.689 C253.35,455.844 258.676,455.844 262.192,452.689 C263.4,451.606 265.448,450.314 268.351,450.314 C271.253,450.314 273.302,451.606 274.51,452.689 C278.026,455.844 283.352,455.844 286.868,452.689 C288.076,451.606 290.124,450.314 293.027,450.314 C295.929,450.314 297.978,451.606 299.186,452.689 C302.702,455.844 308.028,455.844 311.544,452.689 C312.752,451.606 314.8,450.314 317.703,450.314 C320.605,450.314 322.654,451.606 323.862,452.689 C327.378,455.844 332.704,455.844 336.22,452.689 C337.428,451.606 339.476,450.314 342.379,450.314 C345.281,450.314 347.33,451.606 348.538,452.689 C352.054,455.844 357.38,455.844 360.896,452.689 C362.104,451.606 364.152,450.314 367.055,450.314 C369.957,450.314 372.006,451.606 373.214,452.689 C376.73,455.844 382.056,455.844 385.572,452.689 C386.78,451.606 388.828,450.314 391.731,450.314 C394.633,450.314 396.682,451.606 397.89,452.689 C401.406,455.844 406.732,455.844 410.248,452.689 C411.456,451.606 413.504,450.314 416.407,450.314 C419.309,450.314 421.358,451.606 422.566,452.689 C426.082,455.844 431.408,455.844 434.924,452.689 C436.132,451.606 438.18,450.314 441.083,450.314 C443.985,450.314 446.034,451.606 447.242,452.689 C450.758,455.844 456.084,455.844 459.6,452.689 C460.808,451.606 462.856,450.314 465.759,450.314 C470.862,450.314 475.012,454.464 475.012,459.567 C475.012,461.17 474.61,462.692 473.817,464.097 C471.399,468.376 472.749,473.797 476.889,476.444 C479.577,478.164 481.182,481.078 481.182,484.239 C481.178,489.341 477.028,493.492 471.925,493.492 L471.925,493.492 Z" id="Shape"></path>
                    <path d="M354.698,166.553 L428.722,166.553 C433.832,166.553 437.975,162.411 437.975,157.3 C437.975,152.189 433.832,148.047 428.722,148.047 L354.698,148.047 C349.588,148.047 345.445,152.189 345.445,157.3 C345.445,162.412 349.588,166.553 354.698,166.553 L354.698,166.553 Z" id="Shape"></path>
                    <path d="M354.698,215.903 L428.722,215.903 C433.832,215.903 437.975,211.761 437.975,206.65 C437.975,201.539 433.832,197.397 428.722,197.397 L354.698,197.397 C349.588,197.397 345.445,201.539 345.445,206.65 C345.445,211.761 349.588,215.903 354.698,215.903 L354.698,215.903 Z" id="Shape"></path>
                    <path d="M354.698,265.252 L428.722,265.252 C433.832,265.252 437.975,261.11 437.975,255.999 C437.975,250.888 433.832,246.746 428.722,246.746 L354.698,246.746 C349.588,246.746 345.445,250.888 345.445,255.999 C345.445,261.11 349.588,265.252 354.698,265.252 L354.698,265.252 Z" id="Shape"></path>
                    <path d="M354.698,314.601 L428.722,314.601 C433.832,314.601 437.975,310.459 437.975,305.348 C437.975,300.237 433.832,296.095 428.722,296.095 L354.698,296.095 C349.588,296.095 345.445,300.237 345.445,305.348 C345.445,310.459 349.588,314.601 354.698,314.601 L354.698,314.601 Z" id="Shape"></path>
                    <path d="M354.698,363.95 L428.722,363.95 C433.832,363.95 437.975,359.808 437.975,354.697 C437.975,349.586 433.832,345.444 428.722,345.444 L354.698,345.444 C349.588,345.444 345.445,349.586 345.445,354.697 C345.445,359.808 349.588,363.95 354.698,363.95 L354.698,363.95 Z" id="Shape"></path>
                    <path d="M354.698,413.299 L428.722,413.299 C433.832,413.299 437.975,409.157 437.975,404.046 C437.975,398.935 433.832,394.793 428.722,394.793 L354.698,394.793 C349.588,394.793 345.445,398.935 345.445,404.046 C345.445,409.158 349.588,413.299 354.698,413.299 L354.698,413.299 Z" id="Shape"></path>
                    <path d="M89.447,80.192 C94.557,80.192 98.7,76.05 98.7,70.939 L98.7,58.602 C98.7,53.491 94.557,49.349 89.447,49.349 C84.337,49.349 80.194,53.491 80.194,58.602 L80.194,70.939 C80.194,76.051 84.337,80.192 89.447,80.192 L89.447,80.192 Z" id="Shape"></path>
                    <path d="M126.458,80.192 C131.568,80.192 135.711,76.05 135.711,70.939 L135.711,58.602 C135.711,53.491 131.568,49.349 126.458,49.349 C121.348,49.349 117.205,53.491 117.205,58.602 L117.205,70.939 C117.206,76.051 121.348,80.192 126.458,80.192 L126.458,80.192 Z" id="Shape"></path>
                    <path d="M163.47,80.192 C168.58,80.192 172.723,76.05 172.723,70.939 L172.723,58.602 C172.723,53.491 168.58,49.349 163.47,49.349 C158.36,49.349 154.217,53.491 154.217,58.602 L154.217,70.939 C154.217,76.051 158.36,80.192 163.47,80.192 L163.47,80.192 Z" id="Shape"></path>
                    <path d="M200.482,80.192 C205.592,80.192 209.735,76.05 209.735,70.939 L209.735,58.602 C209.735,53.491 205.592,49.349 200.482,49.349 C195.372,49.349 191.229,53.491 191.229,58.602 L191.229,70.939 C191.229,76.051 195.372,80.192 200.482,80.192 L200.482,80.192 Z" id="Shape"></path>
                    <path d="M237.494,80.192 C242.604,80.192 246.747,76.05 246.747,70.939 L246.747,58.602 C246.747,53.491 242.604,49.349 237.494,49.349 C232.384,49.349 228.241,53.491 228.241,58.602 L228.241,70.939 C228.241,76.051 232.384,80.192 237.494,80.192 L237.494,80.192 Z" id="Shape"></path>
                    <path d="M274.506,80.192 C279.616,80.192 283.759,76.05 283.759,70.939 L283.759,58.602 C283.759,53.491 279.616,49.349 274.506,49.349 C269.396,49.349 265.253,53.491 265.253,58.602 L265.253,70.939 C265.253,76.051 269.396,80.192 274.506,80.192 L274.506,80.192 Z" id="Shape"></path>
                    <path d="M89.447,141.879 C94.557,141.879 98.7,137.737 98.7,132.626 L98.7,120.289 C98.7,115.178 94.557,111.036 89.447,111.036 C84.337,111.036 80.194,115.178 80.194,120.289 L80.194,132.626 C80.194,137.737 84.337,141.879 89.447,141.879 L89.447,141.879 Z" id="Shape"></path>
                    <path d="M126.458,141.879 C131.568,141.879 135.711,137.737 135.711,132.626 L135.711,120.289 C135.711,115.178 131.568,111.036 126.458,111.036 C121.348,111.036 117.205,115.178 117.205,120.289 L117.205,132.626 C117.206,137.737 121.348,141.879 126.458,141.879 L126.458,141.879 Z" id="Shape"></path>
                    <path d="M163.47,141.879 C168.58,141.879 172.723,137.737 172.723,132.626 L172.723,120.289 C172.723,115.178 168.58,111.036 163.47,111.036 C158.36,111.036 154.217,115.178 154.217,120.289 L154.217,132.626 C154.217,137.737 158.36,141.879 163.47,141.879 L163.47,141.879 Z" id="Shape"></path>
                    <path d="M200.482,141.879 C205.592,141.879 209.735,137.737 209.735,132.626 L209.735,120.289 C209.735,115.178 205.592,111.036 200.482,111.036 C195.372,111.036 191.229,115.178 191.229,120.289 L191.229,132.626 C191.229,137.737 195.372,141.879 200.482,141.879 L200.482,141.879 Z" id="Shape"></path>
                    <path d="M237.494,141.879 C242.604,141.879 246.747,137.737 246.747,132.626 L246.747,120.289 C246.747,115.178 242.604,111.036 237.494,111.036 C232.384,111.036 228.241,115.178 228.241,120.289 L228.241,132.626 C228.241,137.737 232.384,141.879 237.494,141.879 L237.494,141.879 Z" id="Shape"></path>
                    <path d="M274.506,141.879 C279.616,141.879 283.759,137.737 283.759,132.626 L283.759,120.289 C283.759,115.178 279.616,111.036 274.506,111.036 C269.396,111.036 265.253,115.178 265.253,120.289 L265.253,132.626 C265.253,137.737 269.396,141.879 274.506,141.879 L274.506,141.879 Z" id="Shape"></path>
                    <path d="M89.447,203.565 C94.557,203.565 98.7,199.423 98.7,194.312 L98.7,181.975 C98.7,176.864 94.557,172.722 89.447,172.722 C84.337,172.722 80.194,176.864 80.194,181.975 L80.194,194.312 C80.194,199.424 84.337,203.565 89.447,203.565 L89.447,203.565 Z" id="Shape"></path>
                    <path d="M126.458,203.565 C131.568,203.565 135.711,199.423 135.711,194.312 L135.711,181.975 C135.711,176.864 131.568,172.722 126.458,172.722 C121.348,172.722 117.205,176.864 117.205,181.975 L117.205,194.312 C117.206,199.424 121.348,203.565 126.458,203.565 L126.458,203.565 Z" id="Shape"></path>
                    <path d="M163.47,203.565 C168.58,203.565 172.723,199.423 172.723,194.312 L172.723,181.975 C172.723,176.864 168.58,172.722 163.47,172.722 C158.36,172.722 154.217,176.864 154.217,181.975 L154.217,194.312 C154.217,199.424 158.36,203.565 163.47,203.565 L163.47,203.565 Z" id="Shape"></path>
                    <path d="M200.482,203.565 C205.592,203.565 209.735,199.423 209.735,194.312 L209.735,181.975 C209.735,176.864 205.592,172.722 200.482,172.722 C195.372,172.722 191.229,176.864 191.229,181.975 L191.229,194.312 C191.229,199.424 195.372,203.565 200.482,203.565 L200.482,203.565 Z" id="Shape"></path>
                    <path d="M237.494,203.565 C242.604,203.565 246.747,199.423 246.747,194.312 L246.747,181.975 C246.747,176.864 242.604,172.722 237.494,172.722 C232.384,172.722 228.241,176.864 228.241,181.975 L228.241,194.312 C228.241,199.424 232.384,203.565 237.494,203.565 L237.494,203.565 Z" id="Shape"></path>
                    <path d="M274.506,203.565 C279.616,203.565 283.759,199.423 283.759,194.312 L283.759,181.975 C283.759,176.864 279.616,172.722 274.506,172.722 C269.396,172.722 265.253,176.864 265.253,181.975 L265.253,194.312 C265.253,199.424 269.396,203.565 274.506,203.565 L274.506,203.565 Z" id="Shape"></path>
                    <path d="M89.447,265.252 C94.557,265.252 98.7,261.11 98.7,255.999 L98.7,243.662 C98.7,238.551 94.557,234.409 89.447,234.409 C84.337,234.409 80.194,238.551 80.194,243.662 L80.194,255.999 C80.194,261.11 84.337,265.252 89.447,265.252 L89.447,265.252 Z" id="Shape"></path>
                    <path d="M126.458,265.252 C131.568,265.252 135.711,261.11 135.711,255.999 L135.711,243.662 C135.711,238.551 131.568,234.409 126.458,234.409 C121.348,234.409 117.205,238.551 117.205,243.662 L117.205,255.999 C117.206,261.11 121.348,265.252 126.458,265.252 L126.458,265.252 Z" id="Shape"></path>
                    <path d="M163.47,265.252 C168.58,265.252 172.723,261.11 172.723,255.999 L172.723,243.662 C172.723,238.551 168.58,234.409 163.47,234.409 C158.36,234.409 154.217,238.551 154.217,243.662 L154.217,255.999 C154.217,261.11 158.36,265.252 163.47,265.252 L163.47,265.252 Z" id="Shape"></path>
                    <path d="M200.482,265.252 C205.592,265.252 209.735,261.11 209.735,255.999 L209.735,243.662 C209.735,238.551 205.592,234.409 200.482,234.409 C195.372,234.409 191.229,238.551 191.229,243.662 L191.229,255.999 C191.229,261.11 195.372,265.252 200.482,265.252 L200.482,265.252 Z" id="Shape"></path>
                    <path d="M237.494,265.252 C242.604,265.252 246.747,261.11 246.747,255.999 L246.747,243.662 C246.747,238.551 242.604,234.409 237.494,234.409 C232.384,234.409 228.241,238.551 228.241,243.662 L228.241,255.999 C228.241,261.11 232.384,265.252 237.494,265.252 L237.494,265.252 Z" id="Shape"></path>
                    <path d="M274.506,265.252 C279.616,265.252 283.759,261.11 283.759,255.999 L283.759,243.662 C283.759,238.551 279.616,234.409 274.506,234.409 C269.396,234.409 265.253,238.551 265.253,243.662 L265.253,255.999 C265.253,261.11 269.396,265.252 274.506,265.252 L274.506,265.252 Z" id="Shape"></path>
                    <path d="M89.447,326.938 C94.557,326.938 98.7,322.796 98.7,317.685 L98.7,305.348 C98.7,300.237 94.557,296.095 89.447,296.095 C84.337,296.095 80.194,300.237 80.194,305.348 L80.194,317.685 C80.194,322.797 84.337,326.938 89.447,326.938 L89.447,326.938 Z" id="Shape"></path>
                    <path d="M126.458,326.938 C131.568,326.938 135.711,322.796 135.711,317.685 L135.711,305.348 C135.711,300.237 131.568,296.095 126.458,296.095 C121.348,296.095 117.205,300.237 117.205,305.348 L117.205,317.685 C117.206,322.797 121.348,326.938 126.458,326.938 L126.458,326.938 Z" id="Shape"></path>
                    <path d="M163.47,326.938 C168.58,326.938 172.723,322.796 172.723,317.685 L172.723,305.348 C172.723,300.237 168.58,296.095 163.47,296.095 C158.36,296.095 154.217,300.237 154.217,305.348 L154.217,317.685 C154.217,322.797 158.36,326.938 163.47,326.938 L163.47,326.938 Z" id="Shape"></path>
                    <path d="M200.482,326.938 C205.592,326.938 209.735,322.796 209.735,317.685 L209.735,305.348 C209.735,300.237 205.592,296.095 200.482,296.095 C195.372,296.095 191.229,300.237 191.229,305.348 L191.229,317.685 C191.229,322.797 195.372,326.938 200.482,326.938 L200.482,326.938 Z" id="Shape"></path>
                    <path d="M237.494,326.938 C242.604,326.938 246.747,322.796 246.747,317.685 L246.747,305.348 C246.747,300.237 242.604,296.095 237.494,296.095 C232.384,296.095 228.241,300.237 228.241,305.348 L228.241,317.685 C228.241,322.797 232.384,326.938 237.494,326.938 L237.494,326.938 Z" id="Shape"></path>
                    <path d="M274.506,326.938 C279.616,326.938 283.759,322.796 283.759,317.685 L283.759,305.348 C283.759,300.237 279.616,296.095 274.506,296.095 C269.396,296.095 265.253,300.237 265.253,305.348 L265.253,317.685 C265.253,322.797 269.396,326.938 274.506,326.938 L274.506,326.938 Z" id="Shape"></path>
                    <path d="M89.447,388.625 C94.557,388.625 98.7,384.483 98.7,379.372 L98.7,367.035 C98.7,361.924 94.557,357.782 89.447,357.782 C84.337,357.782 80.194,361.924 80.194,367.035 L80.194,379.372 C80.194,384.483 84.337,388.625 89.447,388.625 L89.447,388.625 Z" id="Shape"></path>
                    <path d="M126.458,388.625 C131.568,388.625 135.711,384.483 135.711,379.372 L135.711,367.035 C135.711,361.924 131.568,357.782 126.458,357.782 C121.348,357.782 117.205,361.924 117.205,367.035 L117.205,379.372 C117.206,384.483 121.348,388.625 126.458,388.625 L126.458,388.625 Z" id="Shape"></path>
                    <path d="M163.47,388.625 C168.58,388.625 172.723,384.483 172.723,379.372 L172.723,367.035 C172.723,361.924 168.58,357.782 163.47,357.782 C158.36,357.782 154.217,361.924 154.217,367.035 L154.217,379.372 C154.217,384.483 158.36,388.625 163.47,388.625 L163.47,388.625 Z" id="Shape"></path>
                    <path d="M200.482,388.625 C205.592,388.625 209.735,384.483 209.735,379.372 L209.735,367.035 C209.735,361.924 205.592,357.782 200.482,357.782 C195.372,357.782 191.229,361.924 191.229,367.035 L191.229,379.372 C191.229,384.483 195.372,388.625 200.482,388.625 L200.482,388.625 Z" id="Shape"></path>
                    <path d="M237.494,388.625 C242.604,388.625 246.747,384.483 246.747,379.372 L246.747,367.035 C246.747,361.924 242.604,357.782 237.494,357.782 C232.384,357.782 228.241,361.924 228.241,367.035 L228.241,379.372 C228.241,384.483 232.384,388.625 237.494,388.625 L237.494,388.625 Z" id="Shape"></path>
                    <path d="M274.506,388.625 C279.616,388.625 283.759,384.483 283.759,379.372 L283.759,367.035 C283.759,361.924 279.616,357.782 274.506,357.782 C269.396,357.782 265.253,361.924 265.253,367.035 L265.253,379.372 C265.253,384.483 269.396,388.625 274.506,388.625 L274.506,388.625 Z" id="Shape"></path>
                </g>
            </g>
        </g>
    </g>
</svg>