<?xml version="1.0" encoding="UTF-8"?>
<svg width="189px" height="75px" viewBox="0 0 189 75" version="1.1" xmlns="http://www.w3.org/2000/svg" xmlns:xlink="http://www.w3.org/1999/xlink">
    <!-- Generator: Sketch 39.1 (31720) - http://www.bohemiancoding.com/sketch -->
    <title>Arrow 1</title>
    <desc>Created with Sketch.</desc>
    <defs></defs>
    <g id="Page-1" stroke="none" stroke-width="1" fill="none" fill-rule="evenodd">
        <g id="Дизайн" transform="translate(-498.000000, -5130.000000)" fill="#FEE078">
            <g id="Group-11" transform="translate(0.000000, 4700.000000)">
                <g id="Arrow-1" transform="translate(600.500000, 459.000000) scale(-1, -1) rotate(-17.000000) translate(-600.500000, -459.000000) translate(508.000000, 394.000000)">
                    <path d="M74.2989087,82.5698376 L73.9614506,87.8742459 L68.2246627,84.1842227 C68.2246627,84.1842227 45.2775114,69.1935035 33.8039357,62.0440835 C22.6678182,55.12529 11.5317006,52.1271462 11.5317006,52.1271462 L5.45745468,50.512761 L10.5193263,47.9758701 C10.5193263,47.9758701 41.2280141,32.7545244 52.3641317,26.7582367 C62.825333,20.9925754 71.2617857,9 71.5992438,9 L78.348406,9.9225058 L78.348406,32.2932715 C89.4845235,33.4464037 128.629664,38.5201856 147.18986,51.4352668 C156.638687,58.1234339 162.978078,65.2164616 166.424972,72.1916473 C178.226784,96.0739662 179.61501,120.89211 179.61501,120.89211 C179.61501,120.89211 157.651061,81.4167053 130.316955,69.4241299 C107.369803,59.9684455 83.4102776,60.1990719 75.311283,60.6603248 L74.2989087,82.5698376 Z M68.2246627,58.3540603 L68.2246627,56.2784223 L71.2617857,56.0477958 C71.2617857,56.0477958 103.657764,52.5883991 134.028994,65.5034803 C154.27648,74.2672854 174.221386,101.405986 175.571218,110.169791 C175.792972,109.563585 172.278648,96.948557 167.907488,86.3555266 C165.626758,80.8284253 163.675332,76.0761352 162.286883,73.3875929 C158.912302,67.1606788 154.893914,61.5536479 143.524814,54.8946636 C121.67954,42.0996902 74.6363668,36.9058005 74.6363668,36.9058005 L71.5992438,36.675174 L71.5992438,34.599536 L71.5992438,19.1475638 C67.8872046,23.0682135 62.825333,27.6807425 57.4260033,30.6788863 C48.9895506,35.2914153 29.4169803,45.2083527 20.3056114,49.5902552 C25.0300249,51.2046404 32.1166452,54.2027842 39.2032655,58.5846868 C46.6273438,63.6584687 59.78821,72.1916473 67.2122884,77.0348028 L68.2246627,58.3540603 Z" id="Shape" transform="translate(92.536232, 64.946055) rotate(-6.000000) translate(-92.536232, -64.946055) "></path>
                </g>
            </g>
        </g>
    </g>
</svg>