<?xml version="1.0" encoding="UTF-8"?>
<svg width="62px" height="36px" viewBox="0 0 62 36" version="1.1" xmlns="http://www.w3.org/2000/svg" xmlns:xlink="http://www.w3.org/1999/xlink">
    <!-- Generator: Sketch 39.1 (31720) - http://www.bohemiancoding.com/sketch -->
    <title>Group</title>
    <desc>Created with Sketch.</desc>
    <defs></defs>
    <g id="Page-1" stroke="none" stroke-width="1" fill="none" fill-rule="evenodd">
        <g id="Group" transform="translate(31.000000, 18.000000) rotate(90.000000) translate(-31.000000, -18.000000) translate(13.000000, -13.000000)" fill="#4054B2">
            <path d="M2.1,60.5 C2.9,61.3 3.9,61.7 5,61.7 C6,61.7 7.1,61.3 7.9,60.5 L34.3,34.1 C35.1,33.3 35.5,32.3 35.5,31.2 C35.5,30.1 35.1,29.1 34.3,28.3 L7.9,1.9 C6.3,0.3 3.7,0.3 2.1,1.9 C0.5,3.5 0.5,6.1 2.1,7.7 L25.6,31.2 L2.1,54.7 C0.5,56.3 0.5,58.9 2.1,60.5 L2.1,60.5 Z" id="Shape"></path>
        </g>
    </g>
</svg>