<?xml version="1.0" encoding="UTF-8"?>
<svg width="36px" height="62px" viewBox="0 0 36 62" version="1.1" xmlns="http://www.w3.org/2000/svg" xmlns:xlink="http://www.w3.org/1999/xlink">
    <!-- Generator: Sketch 39.1 (31720) - http://www.bohemiancoding.com/sketch -->
    <title>arrow</title>
    <desc>Created with Sketch.</desc>
    <defs></defs>
    <g id="Page-1" stroke="none" stroke-width="1" fill="none" fill-rule="evenodd">
        <g id="arrow" transform="translate(18.000000, 31.000000) rotate(180.000000) translate(-18.000000, -31.000000) " fill="#474747">
            <g id="Page-1">
                <g id="Group" transform="translate(18.000000, 31.000000) rotate(90.000000) translate(-18.000000, -31.000000) translate(-13.000000, 13.000000)">
                    <path d="M15.1,47.5 C15.9,48.3 16.9,48.7 18,48.7 C19,48.7 20.1,48.3 20.9,47.5 L47.3,21.1 C48.1,20.3 48.5,19.3 48.5,18.2 C48.5,17.1 48.1,16.1 47.3,15.3 L20.9,-11.1 C19.3,-12.7 16.7,-12.7 15.1,-11.1 C13.5,-9.5 13.5,-6.9 15.1,-5.3 L38.6,18.2 L15.1,41.7 C13.5,43.3 13.5,45.9 15.1,47.5 L15.1,47.5 L15.1,47.5 Z" id="Shape" transform="translate(31.200000, 18.200000) rotate(90.000000) translate(-31.200000, -18.200000) "></path>
                </g>
            </g>
        </g>
    </g>
</svg>