<?xml version="1.0" encoding="UTF-8"?>
<svg width="404px" height="412px" viewBox="0 0 404 412" version="1.1" xmlns="http://www.w3.org/2000/svg" xmlns:xlink="http://www.w3.org/1999/xlink">
    <!-- Generator: Sketch 39.1 (31720) - http://www.bohemiancoding.com/sketch -->
    <title>balance</title>
    <desc>Created with Sketch.</desc>
    <defs></defs>
    <g id="Page-1" stroke="none" stroke-width="1" fill="none" fill-rule="evenodd">
        <g id="balance" fill="#FEE078">
            <g id="Layer_1">
                <path d="M402.286,205.55 L348.587,96.118 L391.882,96.118 C396.024,96.118 399.382,92.76 399.382,88.618 C399.382,84.476 396.024,81.118 391.882,81.118 L220.302,81.118 L220.302,59.603 C228.765,53.674 234.314,43.856 234.314,32.761 C234.314,14.697 219.618,0 201.553,0 C183.488,0 168.792,14.697 168.792,32.761 C168.792,43.855 174.34,53.672 182.802,59.601 L182.802,81.118 L11.222,81.118 C7.08,81.118 3.722,84.476 3.722,88.618 C3.722,92.76 7.08,96.118 11.222,96.118 L54.52,96.118 L0.82,205.55 C0.315,206.578 0.053,207.708 0.053,208.854 C0.053,245.522 29.885,275.354 66.553,275.354 C103.221,275.354 133.053,245.522 133.053,208.854 C133.053,207.708 132.791,206.578 132.286,205.55 L78.587,96.118 L182.802,96.118 L182.802,322.609 C182.802,348.182 161.996,368.987 136.423,368.987 C132.281,368.987 128.923,372.345 128.923,376.487 L128.923,403.607 C128.923,407.749 132.281,411.107 136.423,411.107 L266.681,411.107 C268.67,411.107 270.578,410.317 271.984,408.91 C273.391,407.503 274.181,405.596 274.181,403.607 L274.181,376.487 C274.181,372.345 270.823,368.987 266.681,368.987 C241.108,368.987 220.303,348.182 220.303,322.609 L220.303,96.118 L324.52,96.118 L270.82,205.55 C270.315,206.578 270.053,207.708 270.053,208.854 C270.053,245.522 299.885,275.354 336.553,275.354 C373.221,275.354 403.053,245.522 403.053,208.854 C403.053,207.708 402.791,206.578 402.286,205.55 L402.286,205.55 Z M66.553,260.354 C40.703,260.354 19.253,241.208 15.61,216.354 L117.495,216.354 C113.853,241.208 92.403,260.354 66.553,260.354 L66.553,260.354 Z M113.518,201.354 L19.588,201.354 L66.553,105.645 L113.518,201.354 L113.518,201.354 Z M201.553,15 C211.346,15 219.314,22.968 219.314,32.761 C219.314,42.554 211.347,50.522 201.553,50.522 C191.759,50.522 183.792,42.555 183.792,32.761 C183.792,22.967 191.76,15 201.553,15 L201.553,15 Z M259.181,383.986 L259.181,396.106 L143.924,396.106 L143.924,383.986 L259.181,383.986 L259.181,383.986 Z M226.526,368.987 L176.578,368.987 C189.569,357.724 197.802,341.111 197.802,322.609 L197.802,65.301 C199.034,65.442 200.284,65.522 201.553,65.522 C202.821,65.522 204.07,65.442 205.302,65.301 L205.302,322.608 C205.302,341.111 213.536,357.724 226.526,368.987 L226.526,368.987 Z M336.553,105.645 L383.518,201.354 L289.588,201.354 L336.553,105.645 L336.553,105.645 Z M336.553,260.354 C310.703,260.354 289.253,241.208 285.61,216.354 L387.495,216.354 C383.853,241.208 362.403,260.354 336.553,260.354 L336.553,260.354 Z" id="Shape"></path>
            </g>
        </g>
    </g>
</svg>