<?xml version="1.0" encoding="UTF-8"?>
<svg width="465px" height="365px" viewBox="0 0 465 365" version="1.1" xmlns="http://www.w3.org/2000/svg" xmlns:xlink="http://www.w3.org/1999/xlink">
    <!-- Generator: Sketch 39.1 (31720) - http://www.bohemiancoding.com/sketch -->
    <title>books</title>
    <desc>Created with Sketch.</desc>
    <defs></defs>
    <g id="Page-1" stroke="none" stroke-width="1" fill="none" fill-rule="evenodd">
        <g id="books" fill="#FEE078">
            <g id="Capa_1">
                <g id="Group">
                    <path d="M464.585,343.312 L377.122,28.297 L301.73,49.229 L310.059,79.227 L226.202,79.227 L226.202,37.446 L147.959,37.446 L147.959,68.366 L105.586,68.366 L105.586,0.207 L0,0.207 L0,364.377 L90.586,364.377 L105.586,364.377 L147.959,364.377 L162.959,364.377 L211.202,364.377 L226.202,364.377 L324.355,364.377 L324.355,130.715 L389.193,364.243 L464.585,343.312 L464.585,343.312 Z M162.959,52.446 L211.202,52.446 L211.202,89.593 L162.959,89.593 L162.959,52.446 L162.959,52.446 Z M162.959,151.81 L211.202,151.81 L211.202,322.385 L162.959,322.385 L162.959,151.81 L162.959,151.81 Z M162.959,136.81 L162.959,128.202 L211.202,128.202 L211.202,136.81 L162.959,136.81 L162.959,136.81 Z M162.959,113.202 L162.959,104.593 L211.202,104.593 L211.202,113.202 L162.959,113.202 L162.959,113.202 Z M90.586,320.189 L15,320.189 L15,44.199 L90.586,44.199 L90.586,320.189 L90.586,320.189 Z M90.586,15.207 L90.586,29.199 L15,29.199 L15,15.207 L90.586,15.207 L90.586,15.207 Z M15,349.378 L15,335.189 L90.586,335.189 L90.586,349.378 L15,349.378 L15,349.378 Z M147.959,349.378 L105.586,349.378 L105.586,83.366 L147.959,83.366 L147.959,349.378 L147.959,349.378 Z M162.959,349.378 L162.959,337.385 L211.202,337.385 L211.202,349.378 L162.959,349.378 L162.959,349.378 Z M309.355,349.378 L226.202,349.378 L226.202,94.226 L309.355,94.226 L309.355,349.378 L309.355,349.378 Z M399.634,345.778 L346.892,155.817 L393.377,142.91 L446.119,332.871 L399.634,345.778 L399.634,345.778 Z M342.879,141.364 L338.746,126.48 L385.231,113.573 L389.364,128.457 L342.879,141.364 L342.879,141.364 Z M366.681,46.762 L381.218,99.12 L334.733,112.027 L320.196,59.669 L366.681,46.762 L366.681,46.762 Z" id="Shape"></path>
                    <rect id="Rectangle-path" x="243.621" y="110.457" width="48.315" height="15"></rect>
                    <rect id="Rectangle-path" x="243.621" y="136.81" width="48.315" height="15"></rect>
                    <rect id="Rectangle-path" x="243.621" y="163.164" width="48.315" height="15"></rect>
                    <rect id="Rectangle-path" x="243.621" y="315.797" width="48.315" height="15"></rect>
                    <rect id="Rectangle-path" x="119.272" y="222.274" width="15" height="25.255"></rect>
                    <rect id="Rectangle-path" x="119.272" y="261.805" width="15" height="57.099"></rect>
                    <rect id="Rectangle-path" x="119.272" y="139.919" width="15" height="68.081"></rect>
                    <rect id="Rectangle-path" x="119.272" y="100.387" width="15" height="26.354"></rect>
                </g>
            </g>
        </g>
    </g>
</svg>