<?xml version="1.0" encoding="UTF-8"?>
<svg width="512px" height="508px" viewBox="0 0 512 508" version="1.1" xmlns="http://www.w3.org/2000/svg" xmlns:xlink="http://www.w3.org/1999/xlink">
    <!-- Generator: Sketch 39.1 (31720) - http://www.bohemiancoding.com/sketch -->
    <title>brickwall</title>
    <desc>Created with Sketch.</desc>
    <defs></defs>
    <g id="Page-1" stroke="none" stroke-width="1" fill="none" fill-rule="evenodd">
        <g id="brickwall" fill="#FEE078">
            <g id="Layer_1">
                <path d="M504.05,193.048 L400.166,193.048 C395.774,193.048 392.216,196.608 392.216,200.998 C392.216,205.388 395.775,208.948 400.166,208.948 L413.416,208.948 L413.416,267.25 L263.95,267.25 L263.95,208.948 L357.764,208.948 C362.156,208.948 365.714,205.388 365.714,200.998 C365.714,196.608 362.155,193.048 357.764,193.048 L256,193.048 C251.609,193.048 248.05,196.608 248.05,200.998 L248.05,267.251 L173.317,267.251 C168.926,267.251 165.367,270.811 165.367,275.201 L165.367,341.454 L90.634,341.454 C86.243,341.454 82.684,345.014 82.684,349.404 L82.684,417.777 L7.95,417.777 C3.559,417.777 0,421.337 0,425.727 L0,499.93 C0,504.321 3.56,507.88 7.95,507.88 L86.393,507.88 C90.784,507.88 94.343,504.32 94.343,499.93 C94.343,495.54 90.783,491.98 86.393,491.98 L15.901,491.98 L15.901,433.678 L165.367,433.678 L165.367,491.98 L128.796,491.98 C124.405,491.98 120.846,495.54 120.846,499.93 C120.846,504.32 124.406,507.88 128.796,507.88 L504.05,507.88 C508.442,507.88 512,504.32 512,499.93 L512,200.998 C512,196.607 508.441,193.048 504.05,193.048 L504.05,193.048 Z M181.267,283.151 L330.733,283.151 L330.733,341.453 L181.267,341.453 L181.267,283.151 L181.267,283.151 Z M413.416,357.354 L413.416,415.656 L263.95,415.656 L263.95,357.354 L413.416,357.354 L413.416,357.354 Z M98.584,415.656 L98.584,357.354 L248.05,357.354 L248.05,415.656 L98.584,415.656 L98.584,415.656 Z M330.733,491.979 L181.267,491.979 L181.267,433.677 L330.733,433.677 L330.733,491.979 L330.733,491.979 Z M496.099,491.979 L346.634,491.979 L346.634,433.677 L496.1,433.677 L496.1,491.979 L496.099,491.979 Z M496.099,415.656 L429.316,415.656 L429.316,357.354 L496.099,357.354 L496.099,415.656 L496.099,415.656 Z M496.099,341.453 L346.634,341.453 L346.634,283.151 L496.1,283.151 L496.1,341.453 L496.099,341.453 Z M496.099,267.251 L429.316,267.251 L429.316,208.949 L496.099,208.949 L496.099,267.251 L496.099,267.251 Z" id="Shape"></path>
                <path d="M472.248,0.12 L359.884,0.12 C359.124,0.12 358.369,0.229 357.641,0.443 L249.517,32.245 C246.991,32.988 245.059,34.908 244.24,37.299 C244.011,37.613 212.845,96.845 212.845,96.845 C199.733,87.983 183.939,82.804 166.957,82.804 C124.141,82.804 10.597,155.18 5.784,158.262 C0.985,161.334 0.985,168.58 5.784,171.652 C10.597,174.734 124.141,247.11 166.957,247.11 C212.256,247.11 249.11,210.256 249.11,164.957 C249.11,142.477 240.027,122.084 225.347,107.236 L255.768,49.339 L357.641,79.302 C358.369,79.515 359.124,79.624 359.884,79.624 L472.248,79.624 C494.168,79.624 512,61.792 512,39.872 C512,17.952 494.168,0.12 472.248,0.12 L472.248,0.12 Z M233.209,164.957 C233.209,201.488 203.488,231.21 166.956,231.21 C138.315,231.21 62.722,188.217 25.026,164.957 C62.722,141.698 138.315,98.704 166.956,98.704 C181.276,98.704 194.538,103.286 205.386,111.04 L181.233,157.007 L118.194,157.007 C113.803,157.007 110.244,160.567 110.244,164.957 C110.244,169.347 113.804,172.907 118.194,172.907 L186.037,172.907 C188.991,172.907 191.701,171.269 193.075,168.654 L217.493,122.182 C227.286,133.733 233.209,148.663 233.209,164.957 L233.209,164.957 Z M351.934,61.047 L279.936,39.872 L351.934,18.696 L351.934,61.047 L351.934,61.047 Z M472.248,63.723 L367.808,63.723 C367.82,63.547 367.834,63.372 367.834,63.193 L367.834,16.021 L472.248,16.021 C485.399,16.021 496.099,26.72 496.099,39.872 C496.099,53.024 485.399,63.723 472.248,63.723 L472.248,63.723 Z" id="Shape"></path>
                <path d="M86.393,157.006 L71.553,157.006 C67.162,157.006 63.603,160.566 63.603,164.956 C63.603,169.346 67.163,172.906 71.553,172.906 L86.394,172.906 C90.785,172.906 94.344,169.346 94.344,164.956 C94.344,160.566 90.784,157.006 86.393,157.006 L86.393,157.006 Z" id="Shape"></path>
            </g>
        </g>
    </g>
</svg>