<?xml version="1.0" encoding="UTF-8"?>
<svg width="36px" height="35px" viewBox="0 0 36 35" version="1.1" xmlns="http://www.w3.org/2000/svg" xmlns:xlink="http://www.w3.org/1999/xlink">
    <!-- Generator: Sketch 39.1 (31720) - http://www.bohemiancoding.com/sketch -->
    <title>cancel (1)</title>
    <desc>Created with Sketch.</desc>
    <defs></defs>
    <g id="Page-1" stroke="none" stroke-width="1" fill="none" fill-rule="evenodd">
        <g id="Artboard" transform="translate(-377.000000, -872.000000)" fill="#474747">
            <g id="cancel-(1)" transform="translate(377.000000, 872.000000)">
                <g id="Capa_1">
                    <path d="M20.535,17.294 L34.002,3.827 C34.783,3.046 34.783,1.78 34.002,0.999 C33.222,0.218 31.954,0.218 31.174,0.999 L17.707,14.466 L4.242,0.999 C3.462,0.218 2.195,0.218 1.414,0.999 C0.633,1.78 0.633,3.046 1.414,3.827 L14.879,17.294 L0.586,31.587 C-0.195,32.368 -0.195,33.634 0.586,34.415 C0.976,34.806 1.488,35.001 2,35.001 C2.512,35.001 3.024,34.806 3.414,34.415 L17.707,20.122 L32,34.415 C32.391,34.806 32.902,35.001 33.414,35.001 C33.926,35.001 34.437,34.806 34.828,34.415 C35.609,33.634 35.609,32.368 34.828,31.587 L20.535,17.294 L20.535,17.294 Z" id="Shape"></path>
                </g>
            </g>
        </g>
    </g>
</svg>