<?xml version="1.0" encoding="UTF-8"?>
<svg width="557px" height="598px" viewBox="0 0 557 598" version="1.1" xmlns="http://www.w3.org/2000/svg" xmlns:xlink="http://www.w3.org/1999/xlink">
    <!-- Generator: Sketch 39.1 (31720) - http://www.bohemiancoding.com/sketch -->
    <title>cruise</title>
    <desc>Created with Sketch.</desc>
    <defs></defs>
    <g id="Page-1" stroke="none" stroke-width="1" fill="none" fill-rule="evenodd">
        <g id="cruise" fill="#FEE078">
            <g id="Capa_1">
                <g id="Group">
                    <path d="M471.08275,329.577733 L288.545893,258.445633 L96.0327679,329.517933 C90.8705714,331.421567 88.2447143,337.1524 90.1345357,342.315133 C91.6165536,346.341667 95.4160893,348.833333 99.4642857,348.833333 C100.608125,348.833333 101.761911,348.634 102.90575,348.2154 L288.356911,279.754367 L463.881536,348.1556 C468.984054,350.148933 474.772875,347.607433 476.752214,342.4746 C478.7415,337.351733 476.205161,331.571067 471.08275,329.577733 L471.08275,329.577733 Z" id="Shape"></path>
                    <path d="M348.125,189.366667 L368.017857,189.366667 C373.518232,189.366667 377.964286,184.9016 377.964286,179.4 C377.964286,173.8984 373.518232,169.433333 368.017857,169.433333 L348.125,169.433333 C342.624625,169.433333 338.178571,173.8984 338.178571,179.4 C338.178571,184.9016 342.624625,189.366667 348.125,189.366667 L348.125,189.366667 Z" id="Shape"></path>
                    <path d="M298.392857,189.366667 L318.285714,189.366667 C323.786089,189.366667 328.232143,184.9016 328.232143,179.4 C328.232143,173.8984 323.786089,169.433333 318.285714,169.433333 L298.392857,169.433333 C292.892482,169.433333 288.446429,173.8984 288.446429,179.4 C288.446429,184.9016 292.892482,189.366667 298.392857,189.366667 L298.392857,189.366667 Z" id="Shape"></path>
                    <path d="M397.857143,189.366667 L417.75,189.366667 C423.250375,189.366667 427.696429,184.9016 427.696429,179.4 C427.696429,173.8984 423.250375,169.433333 417.75,169.433333 L397.857143,169.433333 C392.356768,169.433333 387.910714,173.8984 387.910714,179.4 C387.910714,184.9016 392.356768,189.366667 397.857143,189.366667 L397.857143,189.366667 Z" id="Shape"></path>
                    <path d="M268.553571,169.433333 L248.660714,169.433333 C243.160339,169.433333 238.714286,173.8984 238.714286,179.4 C238.714286,184.9016 243.160339,189.366667 248.660714,189.366667 L268.553571,189.366667 C274.053946,189.366667 278.5,184.9016 278.5,179.4 C278.5,173.8984 274.053946,169.433333 268.553571,169.433333 L268.553571,169.433333 Z" id="Shape"></path>
                    <path d="M218.821429,169.433333 L198.928571,169.433333 C193.428196,169.433333 188.982143,173.8984 188.982143,179.4 C188.982143,184.9016 193.428196,189.366667 198.928571,189.366667 L218.821429,189.366667 C224.321804,189.366667 228.767857,184.9016 228.767857,179.4 C228.767857,173.8984 224.321804,169.433333 218.821429,169.433333 L218.821429,169.433333 Z" id="Shape"></path>
                    <path d="M169.089286,169.433333 L149.196429,169.433333 C143.696054,169.433333 139.25,173.8984 139.25,179.4 C139.25,184.9016 143.696054,189.366667 149.196429,189.366667 L169.089286,189.366667 C174.589661,189.366667 179.035714,184.9016 179.035714,179.4 C179.035714,173.8984 174.589661,169.433333 169.089286,169.433333 L169.089286,169.433333 Z" id="Shape"></path>
                    <path d="M547.053571,498.333333 L451.4485,498.333333 C549.162214,394.2614 537.564679,311.089567 536.987786,307.411867 L536.082661,301.671067 L487.375,283.372267 L487.375,158.2308 C487.375,142.423667 474.544107,129.566667 458.769071,129.566667 L348.125,129.566667 L348.125,31.8734 C348.125,14.3021667 333.851875,0 316.316321,0 L260.576536,0 C243.040982,0 228.767857,14.3021667 228.767857,31.8734 L228.767857,129.566667 L118.123786,129.566667 C102.34875,129.566667 89.5178571,142.423667 89.5178571,158.2308 L89.5178571,283.372267 L40.8101964,301.671067 L39.9050714,307.411867 C39.338125,311.089567 27.7306429,394.2614 125.444357,498.333333 L9.94642857,498.333333 C4.44605357,498.333333 0,502.7984 0,508.3 C0,513.8016 4.44605357,518.266667 9.94642857,518.266667 L145.188018,518.266667 L197.406768,518.266667 L379.496036,518.266667 L431.714786,518.266667 L547.053571,518.266667 C552.553946,518.266667 557,513.8016 557,508.3 C557,502.7984 552.553946,498.333333 547.053571,498.333333 L547.053571,498.333333 Z M248.660714,31.8734 C248.660714,25.2854333 254.001946,19.9333333 260.576536,19.9333333 L316.316321,19.9333333 C322.890911,19.9333333 328.232143,25.2854333 328.232143,31.8734 L328.232143,129.566667 L248.660714,129.566667 L248.660714,31.8734 L248.660714,31.8734 Z M109.410714,158.2308 C109.410714,153.4169 113.319661,149.5 118.123786,149.5 L228.767857,149.5 L348.125,149.5 L458.769071,149.5 C463.573196,149.5 467.482143,153.4169 467.482143,158.2308 L467.482143,275.897267 L294.951393,211.074067 C290.754,209.489367 286.128911,209.489367 281.931518,211.074067 L109.410714,275.897267 L109.410714,158.2308 L109.410714,158.2308 Z M220.343232,498.333333 L237.182536,380.2084 C237.301893,379.3712 238.047875,378.733333 238.903268,378.733333 L337.999536,378.733333 C338.854929,378.733333 339.590964,379.3712 339.710321,380.228333 L356.549625,498.333333 L220.343232,498.333333 L220.343232,498.333333 Z M376.641411,498.333333 L359.394304,377.417733 C357.892393,366.803233 348.701893,358.8 337.989589,358.8 L238.893321,358.8 C228.190964,358.8 218.990518,366.803233 217.488607,377.407767 L200.2415,498.333333 L153.224732,498.333333 C63.8361786,410.576833 58.7038214,336.424833 59.2011429,316.052967 L288.446429,229.911067 L517.741446,316.062933 C518.368071,336.384967 513.603732,410.058567 423.668125,498.333333 L376.641411,498.333333 L376.641411,498.333333 Z" id="Shape"></path>
                    <path d="M437.642857,538.2 L149.196429,538.2 C143.696054,538.2 139.25,542.665067 139.25,548.166667 C139.25,553.668267 143.696054,558.133333 149.196429,558.133333 L437.642857,558.133333 C443.143232,558.133333 447.589286,553.668267 447.589286,548.166667 C447.589286,542.665067 443.143232,538.2 437.642857,538.2 L437.642857,538.2 Z" id="Shape"></path>
                    <path d="M358.071429,578.066667 L218.821429,578.066667 C213.321054,578.066667 208.875,582.531733 208.875,588.033333 C208.875,593.534933 213.321054,598 218.821429,598 L358.071429,598 C363.571804,598 368.017857,593.534933 368.017857,588.033333 C368.017857,582.531733 363.571804,578.066667 358.071429,578.066667 L358.071429,578.066667 Z" id="Shape"></path>
                </g>
            </g>
        </g>
    </g>
</svg>