<?xml version="1.0" encoding="UTF-8"?>
<svg width="100px" height="240px" viewBox="0 0 100 240" version="1.1" xmlns="http://www.w3.org/2000/svg" xmlns:xlink="http://www.w3.org/1999/xlink">
    <!-- Generator: Sketch 39.1 (31720) - http://www.bohemiancoding.com/sketch -->
    <title>FAQ</title>
    <desc>Created with Sketch.</desc>
    <defs></defs>
    <g id="Page-1" stroke="none" stroke-width="1" fill="none" fill-rule="evenodd">
        <g id="Дизайн" transform="translate(-1567.000000, -756.000000)" fill="#EDEDED">
            <g id="About-Us" transform="translate(0.000000, 700.000000)">
                <path d="M1495.55664,203.617188 L1505.10742,201.976562 L1505.10742,134.769531 L1495.55664,133.128906 L1495.55664,125.6875 L1561.47461,125.6875 L1561.47461,146.195312 L1551.63086,146.195312 L1550.69336,134.769531 L1516.65039,134.769531 L1516.65039,164.183594 L1549.63867,164.183594 L1549.63867,173.265625 L1516.65039,173.265625 L1516.65039,201.976562 L1526.20117,203.617188 L1526.20117,211 L1495.55664,211 L1495.55664,203.617188 Z M1569.20898,203.617188 L1575.53711,202.738281 L1605.36133,125.6875 L1615.26367,125.6875 L1644.56055,202.738281 L1650.83008,203.617188 L1650.83008,211 L1626.33789,211 L1626.33789,203.617188 L1632.7832,202.503906 L1627.1582,186.800781 L1592.99805,186.800781 L1587.19727,202.503906 L1593.64258,203.617188 L1593.64258,211 L1569.20898,211 L1569.20898,203.617188 Z M1596.57227,177.132812 L1623.64258,177.132812 L1610.40039,140.511719 L1610.04883,140.511719 L1596.57227,177.132812 Z M1734.0332,168.988281 C1734.0332,176.566444 1732.62697,183.480437 1729.81445,189.730469 C1727.00194,195.9805 1723.0762,201.019512 1718.03711,204.847656 L1735.32227,217.035156 L1727.41211,224.066406 L1708.01758,210.238281 C1706.06444,210.863284 1704.05274,211.351561 1701.98242,211.703125 C1699.9121,212.054689 1697.80275,212.230469 1695.6543,212.230469 C1684.63862,212.230469 1675.69339,208.128947 1668.81836,199.925781 C1661.94332,191.722615 1658.50586,181.410218 1658.50586,168.988281 L1658.50586,167.757812 C1658.50586,155.374938 1661.94332,145.062541 1668.81836,136.820312 C1675.69339,128.578084 1684.63862,124.457031 1695.6543,124.457031 C1706.98248,124.457031 1716.2109,128.578084 1723.33984,136.820312 C1730.46879,145.062541 1734.0332,155.374938 1734.0332,167.757812 L1734.0332,168.988281 Z M1722.49023,167.640625 C1722.49023,157.7187 1720.11721,149.623078 1715.37109,143.353516 C1710.62498,137.083953 1704.05278,133.949219 1695.6543,133.949219 C1687.60738,133.949219 1681.32815,137.093719 1676.81641,143.382812 C1672.30466,149.671906 1670.04883,157.757763 1670.04883,167.640625 L1670.04883,168.988281 C1670.04883,178.988331 1672.30466,187.123016 1676.81641,193.392578 C1681.32815,199.662141 1687.60738,202.796875 1695.6543,202.796875 C1704.16996,202.796875 1710.77146,199.671906 1715.45898,193.421875 C1720.14651,187.171844 1722.49023,179.027394 1722.49023,168.988281 L1722.49023,167.640625 Z" id="FAQ" transform="translate(1617.080078, 174.261719) scale(-1, -1) rotate(90.000000) translate(-1617.080078, -174.261719) "></path>
            </g>
        </g>
    </g>
</svg>