<?xml version="1.0" encoding="UTF-8"?>
<svg width="450px" height="371px" viewBox="0 0 450 371" version="1.1" xmlns="http://www.w3.org/2000/svg" xmlns:xlink="http://www.w3.org/1999/xlink">
    <!-- Generator: Sketch 39.1 (31720) - http://www.bohemiancoding.com/sketch -->
    <title>first-aid-kit</title>
    <desc>Created with Sketch.</desc>
    <defs></defs>
    <g id="Page-1" stroke="none" stroke-width="1" fill="none" fill-rule="evenodd">
        <g id="first-aid-kit" fill="#FEE078">
            <g id="Capa_1">
                <path d="M238.311219,202.622426 L291.154325,202.622426 L291.154325,229.421886 L238.311219,229.421886 L238.311219,282.322536 L211.535912,282.322536 L211.535912,229.421886 L158.692806,229.421886 L158.692806,202.622426 L211.535912,202.622426 L211.535912,149.73165 L238.311219,149.73165 L238.311219,202.622426 L238.311219,202.622426 Z M338.13725,216.013692 C338.13725,278.515202 287.350422,329.33797 224.915109,329.33797 C162.469931,329.33797 111.692969,278.513791 111.692969,216.013692 C111.692969,153.522057 162.471341,102.689414 224.915109,102.689414 C287.350422,102.688004 338.13725,153.530521 338.13725,216.013692 L338.13725,216.013692 Z M320.021144,216.013692 C320.021144,163.539057 277.349497,120.820452 224.9137,120.820452 C172.469447,120.820452 129.806256,163.539057 129.806256,216.013692 C129.806256,268.505255 172.468037,311.206932 224.9137,311.206932 C277.359362,311.205521 320.031009,268.513719 320.021144,216.013692 L320.021144,216.013692 Z M449.838675,88.481384 L449.838675,343.579856 C449.838675,358.503084 437.692681,370.641696 422.791359,370.641696 L27.03745,370.641696 C12.1290812,370.643106 0,358.49462 0,343.581266 L0,88.481384 C0,73.5581559 12.1375375,61.4280076 27.03745,61.4280076 L48.3049187,61.4280076 L48.3049187,47.440038 L101.900631,47.440038 L101.900631,61.4294183 L149.0555,61.4294183 L149.0555,26.8784563 C149.0555,12.3643156 160.794184,0.6051673 175.313566,0.6051673 L274.533566,0.6051673 C289.034625,0.6051673 300.801497,12.3544411 300.801497,26.8784563 L300.801497,61.4294183 L347.966231,61.4294183 L347.966231,48.1933232 L401.543622,48.1933232 L401.543622,61.4294183 L422.792769,61.4294183 C437.709594,61.4195437 449.847131,73.549692 449.838675,88.481384 L449.838675,88.481384 Z M185.267981,61.4195437 L264.569284,61.4195437 L264.569284,36.8601901 L185.267981,36.8601901 L185.267981,61.4195437 L185.267981,61.4195437 Z M431.732434,343.571392 L431.732434,343.571392 L431.723978,88.4729202 C431.723978,83.5497643 427.729809,79.5519924 422.792769,79.5519924 L27.03745,79.5519924 C22.110275,79.5519924 18.1161063,83.5497643 18.1161063,88.4729202 L18.1161063,343.571392 C18.1161063,348.503011 22.110275,352.500783 27.03745,352.500783 L422.801225,352.500783 C427.736856,352.510658 431.732434,348.503011 431.732434,343.571392 L431.732434,343.571392 Z" id="Shape"></path>
            </g>
        </g>
    </g>
</svg>