<?xml version="1.0" encoding="UTF-8"?>
<svg width="169px" height="60px" viewBox="0 0 169 60" version="1.1" xmlns="http://www.w3.org/2000/svg" xmlns:xlink="http://www.w3.org/1999/xlink">
    <!-- Generator: Sketch 39.1 (31720) - http://www.bohemiancoding.com/sketch -->
    <title>Group 2</title>
    <desc>Created with Sketch.</desc>
    <defs></defs>
    <g id="Page-1" stroke="none" stroke-width="1" fill="none" fill-rule="evenodd">
        <g id="Group-2">
            <rect id="Rectangle-2" fill="#FFFFFF" x="0" y="0" width="169" height="60"></rect>
            <g id="Group-50" transform="translate(17.000000, 5.000000)">
                <g id="Group-27">
                    <g id="Group">
                        <rect id="Rectangle-15" fill="#FFFFFF" x="0" y="0" width="136" height="50"></rect>
                        <path d="M83.1486175,11.75 L83.1486175,13.5625 C83.1486175,18.275 82.5611175,18.9375 81.5236175,18.9375 C81.3986175,18.9375 81.3111175,18.925 81.2236175,18.9125 L81.0986175,20.5 C81.3361175,20.5625 81.7986175,20.6125 82.1111175,20.6125 C84.1111175,20.6125 84.9486175,19.3 84.9486175,14.15 L84.9486175,13.4875 L87.4736175,13.4875 L87.4736175,20.5 L89.3986175,20.5 L89.3986175,11.75 L83.1486175,11.75 Z M94.4736175,20.65 C95.6861175,20.65 96.5861175,20.175 97.2111175,19.4 L96.1236175,18.4375 C95.5986175,18.925 95.1361175,19.125 94.4986175,19.125 C93.6486175,19.125 93.0486175,18.675 92.8611175,17.8125 L97.5236175,17.8125 C97.5361175,17.6375 97.5486175,17.4625 97.5486175,17.3125 C97.5486175,15.4125 96.5236175,13.675 94.2861175,13.675 C92.3361175,13.675 90.9736175,15.25 90.9736175,17.1625 C90.9736175,19.2375 92.4611175,20.65 94.4736175,20.65 L94.4736175,20.65 Z M92.8361175,16.625 C92.9861175,15.7625 93.4986175,15.2 94.2861175,15.2 C95.0861175,15.2 95.5861175,15.775 95.6986175,16.625 L92.8361175,16.625 Z M102.123618,20.65 C103.461118,20.65 104.211118,20.1375 104.861118,19.425 L103.748618,18.3 C103.286118,18.7375 102.848618,19.0125 102.211118,19.0125 C101.173618,19.0125 100.511118,18.1875 100.511118,17.1625 C100.511118,16.15 101.186118,15.3125 102.136118,15.3125 C102.886118,15.3125 103.286118,15.5875 103.698618,15.975 L104.811118,14.85 C104.186118,14.15 103.411118,13.675 102.148618,13.675 C100.098618,13.675 98.6361175,15.25 98.6361175,17.1625 C98.6361175,19.1 100.111118,20.65 102.123618,20.65 L102.123618,20.65 Z M111.336118,13.8 L105.436118,13.8 L105.436118,15.425 L107.423618,15.425 L107.423618,20.5 L109.348618,20.5 L109.348618,15.425 L111.336118,15.425 L111.336118,13.8 Z M118.511118,13.8 L116.611118,13.8 L116.611118,16.375 L114.273618,16.375 L114.273618,13.8 L112.373618,13.8 L112.373618,20.5 L114.273618,20.5 L114.273618,17.9375 L116.611118,17.9375 L116.611118,20.5 L118.511118,20.5 L118.511118,13.8 Z M126.448618,13.8 L124.661118,13.8 L122.048618,17.7125 L122.048618,13.8 L120.211118,13.8 L120.211118,20.5 L121.998618,20.5 L124.611118,16.6 L124.611118,20.5 L126.448618,20.5 L126.448618,13.8 Z M133.323618,22.075 L134.923618,22.075 L135.148618,18.875 L134.236118,18.875 L134.236118,13.8 L132.336118,13.8 L132.336118,18.875 L130.048618,18.875 L130.048618,13.8 L128.148618,13.8 L128.148618,20.5 L133.323618,20.5 L133.323618,22.075 Z" id="МирЛестниц" fill="#8CC742"></path>
                        <path d="M55.1361175,20.5 L56.0986175,20.5 L56.0986175,13.425 L59.2861175,18.1 L59.3361175,18.1 L62.5236175,13.4125 L62.5236175,20.5 L63.5111175,20.5 L63.5111175,11.75 L62.5111175,11.75 L59.3236175,16.525 L56.1361175,11.75 L55.1361175,11.75 L55.1361175,20.5 Z M65.8236175,20.5 L66.7486175,20.5 L70.5986175,15.3875 L70.5986175,20.5 L71.5611175,20.5 L71.5611175,14.0375 L70.6236175,14.0375 L66.7861175,19.15 L66.7861175,14.0375 L65.8236175,14.0375 L65.8236175,20.5 Z M73.7111175,22.5 L74.6736175,22.5 L74.6736175,19.2625 C75.1736175,19.9875 75.9486175,20.6375 77.1486175,20.6375 C78.7111175,20.6375 80.2361175,19.3875 80.2361175,17.275 C80.2361175,15.125 78.6986175,13.9 77.1486175,13.9 C75.9611175,13.9 75.1986175,14.5625 74.6736175,15.3375 L74.6736175,14.0375 L73.7111175,14.0375 L73.7111175,22.5 Z M76.9736175,19.775 C75.7736175,19.775 74.6361175,18.775 74.6361175,17.275 C74.6361175,15.775 75.7736175,14.7625 76.9736175,14.7625 C78.1986175,14.7625 79.2486175,15.7375 79.2486175,17.2625 C79.2486175,18.85 78.2236175,19.775 76.9736175,19.775 L76.9736175,19.775 Z" id="МирЛестниц" fill="#333333"></path>
                    </g>
                    <path d="M57.6193206,25.5209961 L57.6193206,26.0812988 L55.2572601,26.0812988 L55.2572601,30.875 L54.6347015,30.875 L54.6347015,25.5209961 L57.6193206,25.5209961 Z M61.9076507,28.864502 C61.9076507,29.5188021 61.7428574,30.0296612 61.4132659,30.3970947 C61.0836745,30.7645282 60.6283567,30.9482422 60.0472992,30.9482422 C59.6884106,30.9482422 59.3698103,30.8640145 59.0914886,30.6955566 C58.8131669,30.5270988 58.5983253,30.285402 58.4469574,29.970459 C58.2955894,29.655516 58.2199066,29.2868673 58.2199066,28.864502 C58.2199066,28.2102018 58.3834792,27.7005633 58.7106292,27.3355713 C59.0377793,26.9705792 59.4918763,26.7880859 60.0729339,26.7880859 C60.6344602,26.7880859 61.0806227,26.9748516 61.4114349,27.3483887 C61.7422471,27.7219257 61.9076507,28.2272917 61.9076507,28.864502 L61.9076507,28.864502 Z M58.8497894,28.864502 C58.8497894,29.3771998 58.9523274,29.7678209 59.1574066,30.036377 C59.3624857,30.304933 59.6639964,30.439209 60.0619476,30.439209 C60.4598988,30.439209 60.7620198,30.3055433 60.9683197,30.038208 C61.1746195,29.7708727 61.2777679,29.3796412 61.2777679,28.864502 C61.2777679,28.3542455 61.1746195,27.9666761 60.9683197,27.7017822 C60.7620198,27.4368883 60.4574574,27.3044434 60.0546234,27.3044434 C59.6566722,27.3044434 59.3563822,27.4350573 59.1537445,27.6962891 C58.9511067,27.9575208 58.8497894,28.3469212 58.8497894,28.864502 L58.8497894,28.864502 Z M65.6796234,27.3813477 L64.3759124,27.3813477 L64.3759124,30.875 L63.7680023,30.875 L63.7680023,27.3813477 L62.4789398,27.3813477 L62.4789398,26.8613281 L65.6796234,26.8613281 L65.6796234,27.3813477 Z M69.9386566,28.864502 C69.9386566,29.5188021 69.7738633,30.0296612 69.4442718,30.3970947 C69.1146803,30.7645282 68.6593626,30.9482422 68.078305,30.9482422 C67.7194165,30.9482422 67.4008162,30.8640145 67.1224945,30.6955566 C66.8441728,30.5270988 66.6293312,30.285402 66.4779632,29.970459 C66.3265953,29.655516 66.2509124,29.2868673 66.2509124,28.864502 C66.2509124,28.2102018 66.414485,27.7005633 66.7416351,27.3355713 C67.0687852,26.9705792 67.5228822,26.7880859 68.1039398,26.7880859 C68.665466,26.7880859 69.1116286,26.9748516 69.4424408,27.3483887 C69.773253,27.7219257 69.9386566,28.2272917 69.9386566,28.864502 L69.9386566,28.864502 Z M66.8807952,28.864502 C66.8807952,29.3771998 66.9833333,29.7678209 67.1884124,30.036377 C67.3934916,30.304933 67.6950022,30.439209 68.0929534,30.439209 C68.4909047,30.439209 68.7930257,30.3055433 68.9993255,30.038208 C69.2056254,29.7708727 69.3087738,29.3796412 69.3087738,28.864502 C69.3087738,28.3542455 69.2056254,27.9666761 68.9993255,27.7017822 C68.7930257,27.4368883 68.4884633,27.3044434 68.0856292,27.3044434 C67.687678,27.3044434 67.3873881,27.4350573 67.1847503,27.6962891 C66.9821126,27.9575208 66.8807952,28.3469212 66.8807952,28.864502 L66.8807952,28.864502 Z M74.2599456,27.8684082 C74.2599456,28.12964 74.1848731,28.3280023 74.0347259,28.463501 C73.8845787,28.5989997 73.6740095,28.6899412 73.403012,28.7363281 L73.403012,28.7692871 C73.7448106,28.8156741 73.9944419,28.9157707 74.1519134,29.0695801 C74.3093849,29.2233894 74.3881195,29.4357897 74.3881195,29.7067871 C74.3881195,30.0803241 74.2507917,30.3684072 73.9761322,30.5710449 C73.7014726,30.7736827 73.3004756,30.875 72.7731292,30.875 L71.0043304,30.875 L71.0043304,26.8613281 L72.765805,26.8613281 C73.7619037,26.8613281 74.2599456,27.1970181 74.2599456,27.8684082 L74.2599456,27.8684082 Z M73.7802093,29.6665039 C73.7802093,29.4492177 73.6978127,29.2911382 73.5330169,29.1922607 C73.3682212,29.0933833 73.0953968,29.0439453 72.7145355,29.0439453 L71.6122406,29.0439453 L71.6122406,30.3659668 L72.7291839,30.3659668 C73.429871,30.3659668 73.7802093,30.1328148 73.7802093,29.6665039 L73.7802093,29.6665039 Z M73.6666839,27.927002 C73.6666839,27.7316885 73.5916114,27.5931401 73.4414642,27.5113525 C73.291317,27.429565 73.0636581,27.3886719 72.7584808,27.3886719 L71.6122406,27.3886719 L71.6122406,28.5202637 L72.6412933,28.5202637 C73.0172717,28.5202637 73.2821617,28.4738774 73.435971,28.3811035 C73.5897804,28.2883296 73.6666839,28.1369639 73.6666839,27.927002 L73.6666839,27.927002 Z M75.878598,28.5202637 L76.9735687,28.5202637 C77.4838251,28.5202637 77.861629,28.6148672 78.1069915,28.8040771 C78.3523541,28.9932871 78.4750335,29.275877 78.4750335,29.6518555 C78.4750335,30.0546895 78.3450299,30.3592519 78.0850189,30.5655518 C77.8250078,30.7718516 77.4423212,30.875 76.9369476,30.875 L75.2706878,30.875 L75.2706878,26.8613281 L75.878598,26.8613281 L75.878598,28.5202637 Z M79.7567718,30.875 L79.1488617,30.875 L79.1488617,26.8613281 L79.7567718,26.8613281 L79.7567718,30.875 Z M75.878598,29.0439453 L75.878598,30.3659668 L76.9076507,30.3659668 C77.5521852,30.3659668 77.8744476,30.140139 77.8744476,29.6884766 C77.8744476,29.4638661 77.7999854,29.3002935 77.6510589,29.1977539 C77.5021324,29.0952143 77.2482287,29.0439453 76.8893402,29.0439453 L75.878598,29.0439453 Z M82.7413909,30.9482422 C82.1481263,30.9482422 81.6799913,30.7675799 81.336972,30.40625 C80.9939527,30.0449201 80.8224456,29.5432161 80.8224456,28.901123 C80.8224456,28.2541472 80.9817458,27.7402363 81.3003509,27.359375 C81.618956,26.9785137 82.0468082,26.7880859 82.5839202,26.7880859 C83.0868524,26.7880859 83.4847977,26.9534896 83.7777679,27.2843018 C84.0707381,27.615114 84.217221,28.051511 84.217221,28.5935059 L84.217221,28.9780273 L81.4523284,28.9780273 C81.4645355,29.4492211 81.5835529,29.8068835 81.8093841,30.0510254 C82.0352153,30.2951672 82.3532053,30.4172363 82.7633636,30.4172363 C83.1954947,30.4172363 83.6227365,30.3269052 84.0451019,30.1462402 L84.0451019,30.6882324 C83.8302571,30.7810063 83.627012,30.847534 83.4353607,30.8878174 C83.2437093,30.9281008 83.0123884,30.9482422 82.7413909,30.9482422 L82.7413909,30.9482422 Z M82.576596,27.2971191 C82.2543288,27.2971191 81.9973734,27.4020986 81.805722,27.6120605 C81.6140707,27.8220225 81.5011567,28.112547 81.4669769,28.4836426 L83.5653656,28.4836426 C83.5653656,28.1003399 83.4799172,27.8067637 83.3090179,27.6029053 C83.1381186,27.3990468 82.8939804,27.2971191 82.576596,27.2971191 L82.576596,27.2971191 Z M90.1937835,30.875 L89.5785492,30.875 L89.5785492,27.3813477 L88.3737152,27.3813477 C88.3077969,28.2504926 88.2162451,28.940183 88.099057,29.4504395 C87.9818689,29.9606959 87.8298929,30.3342273 87.6431243,30.5710449 C87.4563558,30.8078625 87.2189315,30.9262695 86.9308441,30.9262695 C86.7990075,30.9262695 86.6940281,30.9116212 86.6159027,30.8823242 L86.6159027,30.4318848 C86.6696139,30.4465333 86.7306484,30.4538574 86.7990081,30.4538574 C87.0797713,30.4538574 87.3031577,30.1572295 87.4691742,29.5639648 C87.6351906,28.9707002 87.7609218,28.0698303 87.8463714,26.8613281 L90.1937835,26.8613281 L90.1937835,30.875 Z M93.1784027,30.9482422 C92.585138,30.9482422 92.117003,30.7675799 91.7739837,30.40625 C91.4309644,30.0449201 91.2594574,29.5432161 91.2594574,28.901123 C91.2594574,28.2541472 91.4187575,27.7402363 91.7373626,27.359375 C92.0559677,26.9785137 92.4838199,26.7880859 93.020932,26.7880859 C93.5238642,26.7880859 93.9218094,26.9534896 94.2147796,27.2843018 C94.5077498,27.615114 94.6542327,28.051511 94.6542327,28.5935059 L94.6542327,28.9780273 L91.8893402,28.9780273 C91.9015473,29.4492211 92.0205646,29.8068835 92.2463958,30.0510254 C92.472227,30.2951672 92.790217,30.4172363 93.2003753,30.4172363 C93.6325064,30.4172363 94.0597482,30.3269052 94.4821136,30.1462402 L94.4821136,30.6882324 C94.2672688,30.7810063 94.0640237,30.847534 93.8723724,30.8878174 C93.680721,30.9281008 93.4494001,30.9482422 93.1784027,30.9482422 L93.1784027,30.9482422 Z M93.0136077,27.2971191 C92.6913405,27.2971191 92.4343851,27.4020986 92.2427337,27.6120605 C92.0510824,27.8220225 91.9381685,28.112547 91.9039886,28.4836426 L94.0023773,28.4836426 C94.0023773,28.1003399 93.9169289,27.8067637 93.7460296,27.6029053 C93.5751303,27.3990468 93.3309921,27.2971191 93.0136077,27.2971191 L93.0136077,27.2971191 Z M97.2946136,30.9482422 C96.713556,30.9482422 96.2637314,30.769411 95.9451263,30.4117432 C95.6265212,30.0540754 95.467221,29.548099 95.467221,28.8937988 C95.467221,28.2224088 95.6289626,27.7036151 95.9524505,27.3374023 C96.2759385,26.9711896 96.7367493,26.7880859 97.3348968,26.7880859 C97.5277689,26.7880859 97.720638,26.8088377 97.9135101,26.8503418 C98.1063821,26.8918459 98.2577478,26.9406735 98.3676117,26.9968262 L98.1808441,27.5131836 C98.0465661,27.4594724 97.9000831,27.4149172 97.7413909,27.3795166 C97.5826987,27.344116 97.4423193,27.326416 97.3202484,27.326416 C96.5048146,27.326416 96.0971038,27.8464303 96.0971038,28.8864746 C96.0971038,29.3796411 96.1965901,29.7580553 96.3955658,30.0217285 C96.5945414,30.2854017 96.8893382,30.4172363 97.2799652,30.4172363 C97.6144395,30.4172363 97.9574536,30.3452156 98.3090179,30.2011719 L98.3090179,30.739502 C98.0404619,30.8786628 97.7023305,30.9482422 97.2946136,30.9482422 L97.2946136,30.9482422 Z M101.967465,27.3813477 L100.663754,27.3813477 L100.663754,30.875 L100.055844,30.875 L100.055844,27.3813477 L98.7667816,27.3813477 L98.7667816,26.8613281 L101.967465,26.8613281 L101.967465,27.3813477 Z M103.370053,26.8613281 L103.370053,28.5422363 L105.618588,28.5422363 L105.618588,26.8613281 L106.226498,26.8613281 L106.226498,30.875 L105.618588,30.875 L105.618588,29.065918 L103.370053,29.065918 L103.370053,30.875 L102.762143,30.875 L102.762143,26.8613281 L103.370053,26.8613281 Z M108.08685,26.8613281 L108.08685,29.4064941 L108.061215,30.072998 L108.050229,30.2817383 L110.22186,26.8613281 L110.979916,26.8613281 L110.979916,30.875 L110.412289,30.875 L110.412289,28.4213867 L110.423276,27.9379883 L110.441586,27.4619141 L108.273618,30.875 L107.515561,30.875 L107.515561,26.8613281 L108.08685,26.8613281 Z M116.183774,32.2629395 L115.575864,32.2629395 L115.575864,30.875 L112.268979,30.875 L112.268979,26.8613281 L112.876889,26.8613281 L112.876889,30.3513184 L115.008237,30.3513184 L115.008237,26.8613281 L115.616147,26.8613281 L115.616147,30.3513184 L116.183774,30.3513184 L116.183774,32.2629395 Z M117.571713,28.5202637 L118.666684,28.5202637 C119.17694,28.5202637 119.554744,28.6148672 119.800107,28.8040771 C120.045469,28.9932871 120.168149,29.275877 120.168149,29.6518555 C120.168149,30.0546895 120.038145,30.3592519 119.778134,30.5655518 C119.518123,30.7718516 119.135436,30.875 118.630063,30.875 L116.963803,30.875 L116.963803,26.8613281 L117.571713,26.8613281 L117.571713,28.5202637 Z M121.449887,30.875 L120.841977,30.875 L120.841977,26.8613281 L121.449887,26.8613281 L121.449887,30.875 Z M117.571713,29.0439453 L117.571713,30.3659668 L118.600766,30.3659668 C119.2453,30.3659668 119.567563,30.140139 119.567563,29.6884766 C119.567563,29.4638661 119.493101,29.3002935 119.344174,29.1977539 C119.195248,29.0952143 118.941344,29.0439453 118.582455,29.0439453 L117.571713,29.0439453 Z M58.0075042,36.989502 C58.0075042,37.6438021 57.842711,38.1546612 57.5131195,38.5220947 C57.183528,38.8895282 56.7282103,39.0732422 56.1471527,39.0732422 C55.7882642,39.0732422 55.4696638,38.9890145 55.1913421,38.8205566 C54.9130204,38.6520988 54.6981788,38.410402 54.5468109,38.095459 C54.3954429,37.780516 54.3197601,37.4118673 54.3197601,36.989502 C54.3197601,36.3352018 54.4833327,35.8255633 54.8104827,35.4605713 C55.1376328,35.0955792 55.5917298,34.9130859 56.1727874,34.9130859 C56.7343137,34.9130859 57.1804762,35.0998516 57.5112884,35.4733887 C57.8421006,35.8469257 58.0075042,36.3522917 58.0075042,36.989502 L58.0075042,36.989502 Z M54.9496429,36.989502 C54.9496429,37.5021998 55.0521809,37.8928209 55.2572601,38.161377 C55.4623392,38.429933 55.7638499,38.564209 56.1618011,38.564209 C56.5597523,38.564209 56.8618733,38.4305433 57.0681732,38.163208 C57.274473,37.8958727 57.3776214,37.5046412 57.3776214,36.989502 C57.3776214,36.4792455 57.274473,36.0916761 57.0681732,35.8267822 C56.8618733,35.5618883 56.5573109,35.4294434 56.1544769,35.4294434 C55.7565257,35.4294434 55.4562357,35.5600573 55.253598,35.8212891 C55.0509602,36.0825208 54.9496429,36.4719212 54.9496429,36.989502 L54.9496429,36.989502 Z M61.7794769,35.5063477 L60.4757659,35.5063477 L60.4757659,39 L59.8678558,39 L59.8678558,35.5063477 L58.5787933,35.5063477 L58.5787933,34.9863281 L61.7794769,34.9863281 L61.7794769,35.5063477 Z M65.130307,39 L64.5223968,39 L64.5223968,34.9863281 L67.8915374,34.9863281 L67.8915374,39 L67.2763031,39 L67.2763031,35.5136719 L65.130307,35.5136719 L65.130307,39 Z M71.0482757,39.0732422 C70.7870439,39.0732422 70.5483989,39.0250249 70.3323333,38.9285889 C70.1162678,38.8321528 69.9349952,38.6838389 69.7885101,38.4836426 L69.7445648,38.4836426 C69.7738618,38.7180187 69.7885101,38.9401845 69.7885101,39.1501465 L69.7885101,40.8017578 L69.1805999,40.8017578 L69.1805999,34.9863281 L69.6749847,34.9863281 L69.7592132,35.5356445 L69.7885101,35.5356445 C69.9447609,35.3159169 70.1266438,35.1572271 70.3341644,35.0595703 C70.541685,34.9619136 70.7797197,34.9130859 71.0482757,34.9130859 C71.5805049,34.9130859 71.9912674,35.0949689 72.2805755,35.4587402 C72.5698836,35.8225116 72.7145355,36.3327604 72.7145355,36.989502 C72.7145355,37.6486849 72.5674422,38.1607648 72.2732513,38.5257568 C71.9790604,38.8907489 71.5707393,39.0732422 71.0482757,39.0732422 L71.0482757,39.0732422 Z M70.9603851,35.4294434 C70.5502268,35.4294434 70.2535989,35.5429676 70.0704925,35.7700195 C69.8873861,35.9970714 69.7933929,36.358396 69.7885101,36.8540039 L69.7885101,36.989502 C69.7885101,37.5534696 69.8825033,37.956908 70.0704925,38.1998291 C70.2584817,38.4427502 70.5599924,38.564209 70.9750335,38.564209 C71.3217149,38.564209 71.5933187,38.4238295 71.7898529,38.1430664 C71.986387,37.8623033 72.0846527,37.4753443 72.0846527,36.9821777 C72.0846527,36.481687 71.986387,36.0977797 71.7898529,35.8304443 C71.5933187,35.563109 71.3168322,35.4294434 70.9603851,35.4294434 L70.9603851,35.4294434 Z M77.2409027,36.989502 C77.2409027,37.6438021 77.0761094,38.1546612 76.7465179,38.5220947 C76.4169264,38.8895282 75.9616087,39.0732422 75.3805511,39.0732422 C75.0216626,39.0732422 74.7030623,38.9890145 74.4247406,38.8205566 C74.1464189,38.6520988 73.9315773,38.410402 73.7802093,38.095459 C73.6288414,37.780516 73.5531585,37.4118673 73.5531585,36.989502 C73.5531585,36.3352018 73.7167311,35.8255633 74.0438812,35.4605713 C74.3710313,35.0955792 74.8251283,34.9130859 75.4061859,34.9130859 C75.9677121,34.9130859 76.4138746,35.0998516 76.7446868,35.4733887 C77.075499,35.8469257 77.2409027,36.3522917 77.2409027,36.989502 L77.2409027,36.989502 Z M74.1830413,36.989502 C74.1830413,37.5021998 74.2855794,37.8928209 74.4906585,38.161377 C74.6957377,38.429933 74.9972483,38.564209 75.3951995,38.564209 C75.7931508,38.564209 76.0952718,38.4305433 76.3015716,38.163208 C76.5078715,37.8958727 76.6110199,37.5046412 76.6110199,36.989502 C76.6110199,36.4792455 76.5078715,36.0916761 76.3015716,35.8267822 C76.0952718,35.5618883 75.7907094,35.4294434 75.3878753,35.4294434 C74.9899241,35.4294434 74.6896341,35.5600573 74.4869964,35.8212891 C74.2843587,36.0825208 74.1830413,36.4719212 74.1830413,36.989502 L74.1830413,36.989502 Z M78.8778656,34.9863281 L78.8778656,37.5314941 L78.8522308,38.197998 L78.8412445,38.4067383 L81.0128753,34.9863281 L81.770932,34.9863281 L81.770932,39 L81.203305,39 L81.203305,36.5463867 L81.2142913,36.0629883 L81.2326019,35.5869141 L79.0646331,39 L78.3065765,39 L78.3065765,34.9863281 L78.8778656,34.9863281 Z M83.8253753,36.6525879 C84.5846565,36.6525879 84.9642913,36.4426291 84.9642913,36.0227051 C84.9642913,35.6271953 84.6566772,35.4294434 84.0414398,35.4294434 C83.8534506,35.4294434 83.6825538,35.446533 83.5287445,35.4807129 C83.3749351,35.5148927 83.1735211,35.5832514 82.9244964,35.685791 L82.708432,35.1914062 C83.1234731,35.0058584 83.5763494,34.9130859 84.0670745,34.9130859 C84.5285026,34.9130859 84.8922685,35.0076895 85.1583831,35.1968994 C85.4244977,35.3861093 85.5575531,35.6442855 85.5575531,35.9714355 C85.5575531,36.4206565 85.3073114,36.7148431 84.8068206,36.8540039 L84.8068206,36.8833008 C85.1144394,36.9736333 85.3390465,37.1024162 85.4806488,37.2696533 C85.622251,37.4368905 85.6930511,37.646239 85.6930511,37.8977051 C85.6930511,38.2688007 85.5435165,38.5574941 85.2444427,38.7637939 C84.9453689,38.9700938 84.5321651,39.0732422 84.0048187,39.0732422 C83.4262025,39.0732422 82.9794296,38.9865731 82.6644867,38.8132324 L82.6644867,38.2565918 C83.1112662,38.4665538 83.5629219,38.5715332 84.0194671,38.5715332 C84.3710314,38.5715332 84.6365317,38.511109 84.8159759,38.3902588 C84.9954202,38.2694086 85.0851409,38.0954601 85.0851409,37.8684082 C85.0851409,37.4020973 84.7055061,37.1689453 83.9462249,37.1689453 L83.3895843,37.1689453 L83.3895843,36.6525879 L83.8253753,36.6525879 Z M89.9374359,35.9934082 C89.9374359,36.25464 89.8623634,36.4530023 89.7122161,36.588501 C89.5620689,36.7239997 89.3514997,36.8149412 89.0805023,36.8613281 L89.0805023,36.8942871 C89.4223009,36.9406741 89.6719322,37.0407707 89.8294036,37.1945801 C89.9868751,37.3483894 90.0656097,37.5607897 90.0656097,37.8317871 C90.0656097,38.2053241 89.928282,38.4934072 89.6536224,38.6960449 C89.3789628,38.8986827 88.9779659,39 88.4506195,39 L86.6818206,39 L86.6818206,34.9863281 L88.4432952,34.9863281 C89.439394,34.9863281 89.9374359,35.3220181 89.9374359,35.9934082 L89.9374359,35.9934082 Z M89.4576995,37.7915039 C89.4576995,37.5742177 89.3753029,37.4161382 89.2105072,37.3172607 C89.0457114,37.2183833 88.772887,37.1689453 88.3920257,37.1689453 L87.2897308,37.1689453 L87.2897308,38.4909668 L88.4066742,38.4909668 C89.1073612,38.4909668 89.4576995,38.2578148 89.4576995,37.7915039 L89.4576995,37.7915039 Z M89.3441742,36.052002 C89.3441742,35.8566885 89.2691017,35.7181401 89.1189544,35.6363525 C88.9688072,35.554565 88.7411483,35.5136719 88.435971,35.5136719 L87.2897308,35.5136719 L87.2897308,36.6452637 L88.3187835,36.6452637 C88.694762,36.6452637 88.9596519,36.5988774 89.1134613,36.5061035 C89.2672706,36.4133296 89.3441742,36.2619639 89.3441742,36.052002 L89.3441742,36.052002 Z M94.4125335,36.989502 C94.4125335,37.6438021 94.2477403,38.1546612 93.9181488,38.5220947 C93.5885573,38.8895282 93.1332396,39.0732422 92.552182,39.0732422 C92.1932935,39.0732422 91.8746931,38.9890145 91.5963714,38.8205566 C91.3180497,38.6520988 91.1032081,38.410402 90.9518402,38.095459 C90.8004722,37.780516 90.7247894,37.4118673 90.7247894,36.989502 C90.7247894,36.3352018 90.888362,35.8255633 91.215512,35.4605713 C91.5426621,35.0955792 91.9967591,34.9130859 92.5778167,34.9130859 C93.139343,34.9130859 93.5855055,35.0998516 93.9163177,35.4733887 C94.2471299,35.8469257 94.4125335,36.3522917 94.4125335,36.989502 L94.4125335,36.989502 Z M91.3546722,36.989502 C91.3546722,37.5021998 91.4572102,37.8928209 91.6622894,38.161377 C91.8673685,38.429933 92.1688792,38.564209 92.5668304,38.564209 C92.9647816,38.564209 93.2669026,38.4305433 93.4732025,38.163208 C93.6795023,37.8958727 93.7826507,37.5046412 93.7826507,36.989502 C93.7826507,36.4792455 93.6795023,36.0916761 93.4732025,35.8267822 C93.2669026,35.5618883 92.9623402,35.4294434 92.5595062,35.4294434 C92.161555,35.4294434 91.861265,35.5600573 91.6586273,35.8212891 C91.4559895,36.0825208 91.3546722,36.4719212 91.3546722,36.989502 L91.3546722,36.989502 Z M98.9645355,40.3879395 L98.3749359,40.3879395 L98.3749359,39 L95.5697601,39 L95.5697601,40.3879395 L94.9838226,40.3879395 L94.9838226,38.4763184 L95.298764,38.4763184 C95.6259141,38.0319802 95.8822592,37.5107452 96.067807,36.9125977 C96.2533548,36.3144501 96.3497893,35.6723667 96.3571136,34.9863281 L98.3895843,34.9863281 L98.3895843,38.4763184 L98.9645355,38.4763184 L98.9645355,40.3879395 Z M97.8036468,38.4763184 L97.8036468,35.4660645 L96.9027679,35.4660645 C96.8710295,36.0080594 96.7666604,36.5567599 96.5896576,37.1121826 C96.4126547,37.6676053 96.19232,38.1223127 95.9286468,38.4763184 L97.8036468,38.4763184 Z M100.337826,34.9863281 L100.337826,37.5314941 L100.312192,38.197998 L100.301205,38.4067383 L102.472836,34.9863281 L103.230893,34.9863281 L103.230893,39 L102.663266,39 L102.663266,36.5463867 L102.674252,36.0629883 L102.692563,35.5869141 L100.524594,39 L99.7665374,39 L99.7665374,34.9863281 L100.337826,34.9863281 Z M107.226254,35.5063477 L105.922543,35.5063477 L105.922543,39 L105.314633,39 L105.314633,35.5063477 L104.025571,35.5063477 L104.025571,34.9863281 L107.226254,34.9863281 L107.226254,35.5063477 Z M109.716489,39.0732422 C109.123224,39.0732422 108.655089,38.8925799 108.31207,38.53125 C107.96905,38.1699201 107.797543,37.6682161 107.797543,37.026123 C107.797543,36.3791472 107.956843,35.8652363 108.275449,35.484375 C108.594054,35.1035137 109.021906,34.9130859 109.559018,34.9130859 C110.06195,34.9130859 110.459895,35.0784896 110.752866,35.4093018 C111.045836,35.740114 111.192319,36.176511 111.192319,36.7185059 L111.192319,37.1030273 L108.427426,37.1030273 C108.439633,37.5742211 108.558651,37.9318835 108.784482,38.1760254 C109.010313,38.4201672 109.328303,38.5422363 109.738461,38.5422363 C110.170592,38.5422363 110.597834,38.4519052 111.0202,38.2712402 L111.0202,38.8132324 C110.805355,38.9060063 110.60211,38.972534 110.410458,39.0128174 C110.218807,39.0531008 109.987486,39.0732422 109.716489,39.0732422 L109.716489,39.0732422 Z M109.551694,35.4221191 C109.229426,35.4221191 108.972471,35.5270986 108.78082,35.7370605 C108.589168,35.9470225 108.476254,36.237547 108.442075,36.6086426 L110.540463,36.6086426 C110.540463,36.2253399 110.455015,35.9317637 110.284116,35.7279053 C110.113216,35.5240468 109.869078,35.4221191 109.551694,35.4221191 L109.551694,35.4221191 Z M115.220639,39 L114.605405,39 L114.605405,35.5063477 L113.400571,35.5063477 C113.334652,36.3754926 113.243101,37.065183 113.125912,37.5754395 C113.008724,38.0856959 112.856748,38.4592273 112.66998,38.6960449 C112.483211,38.9328625 112.245787,39.0512695 111.9577,39.0512695 C111.825863,39.0512695 111.720884,39.0366212 111.642758,39.0073242 L111.642758,38.5568848 C111.696469,38.5715333 111.757504,38.5788574 111.825864,38.5788574 C112.106627,38.5788574 112.330013,38.2822295 112.49603,37.6889648 C112.662046,37.0957002 112.787777,36.1948303 112.873227,34.9863281 L115.220639,34.9863281 L115.220639,39 Z M116.711118,39 L116.000668,39 L117.154233,37.3044434 C116.844173,37.2360836 116.606748,37.1036387 116.441952,36.9071045 C116.277157,36.7105703 116.19476,36.4633804 116.19476,36.1655273 C116.19476,35.7993146 116.31805,35.5112315 116.564633,35.3012695 C116.811216,35.0913075 117.155451,34.9863281 117.597348,34.9863281 L119.384457,34.9863281 L119.384457,39 L118.776547,39 L118.776547,37.3959961 L117.762143,37.3959961 L116.711118,39 Z M116.788022,36.1728516 C116.788022,36.6367211 117.124933,36.8686523 117.798764,36.8686523 L118.776547,36.8686523 L118.776547,35.5136719 L117.674252,35.5136719 C117.083429,35.5136719 116.788022,35.7333962 116.788022,36.1728516 L116.788022,36.1728516 Z" id="Готовые-лестницы-от" fill="#707070"></path>
                </g>
                <g id="Logo" transform="translate(0.000000, 10.625000)">
                    <rect id="Rectangle-16" fill="#FEC86D" x="28.8294931" y="0" width="21.9354839" height="7.5"></rect>
                    <rect id="Rectangle-16" fill="#CC8B1D" x="33.843318" y="7.5" width="2.50691244" height="3.75"></rect>
                    <rect id="Rectangle-16" fill="#CC8B1D" x="19.4285714" y="18.75" width="2.50691244" height="3.75"></rect>
                    <rect id="Rectangle-16" fill="#FEC86D" x="14.4147465" y="11.25" width="21.9354839" height="7.5"></rect>
                    <rect id="Rectangle-16" fill="#FEC86D" x="0" y="22.5" width="21.9354839" height="7.5"></rect>
                </g>
            </g>
        </g>
    </g>
</svg>