<?xml version="1.0" encoding="UTF-8"?>
<svg width="92px" height="66px" viewBox="0 0 92 66" version="1.1" xmlns="http://www.w3.org/2000/svg" xmlns:xlink="http://www.w3.org/1999/xlink">
    <!-- Generator: Sketch 39.1 (31720) - http://www.bohemiancoding.com/sketch -->
    <title>Page 1</title>
    <desc>Created with Sketch.</desc>
    <defs></defs>
    <g id="Page-1" stroke="none" stroke-width="1" fill="none" fill-rule="evenodd">
        <g id="Artboard" transform="translate(-269.000000, -1302.000000)">
            <g id="Page-1" transform="translate(269.000000, 1301.000000)">
                <polygon id="Fill-1" fill="#FF8A00" points="54.7031 0.9996 72.9541 67.0006 91.6031 67.0006 73.3511 0.9996"></polygon>
                <polygon id="Fill-2" fill="#FFCD00" points="54.7202 0.9996 36.4682 67.0006 55.1172 67.0006 73.3692 0.9996"></polygon>
                <polygon id="Fill-3" fill="#4368D9" points="18.2342 0.9996 36.4862 67.0006 55.1342 67.0006 36.8832 0.9996"></polygon>
                <polygon id="Fill-4" fill="#3351B4" points="18.2513 0.9996 0.0003 67.0006 18.6493 67.0006 36.9003 0.9996"></polygon>
                <polygon id="Fill-5" fill="#04227D" points="0.0002 67.0002 18.6492 67.0002 36.8482 0.9992"></polygon>
                <polygon id="Fill-6" fill="#0037AC" points="18.2342 0.9996 36.6412 67.0006 36.8832 0.9996"></polygon>
                <polygon id="Fill-7" fill="#000A52" points="18.2342 0.9996 27.5592 34.8256 36.8832 0.9996"></polygon>
                <polygon id="Fill-8" fill="#7C98F9" points="36.4682 67.0002 55.1172 67.0002 45.7932 33.1742"></polygon>
                <polygon id="Fill-9" fill="#FFDF72" points="72.902 67.0002 91.551 67.0002 54.703 0.9992"></polygon>
                <polygon id="Fill-10" fill="#FF8A00" points="36.4682 67.0002 55.1172 67.0002 73.3172 0.9992"></polygon>
                <polygon id="Fill-11" fill="#FF7700" points="54.7031 0.9996 64.0271 17.9126 73.3511 0.9996"></polygon>
                <polygon id="Fill-12" fill="#FF7700" points="54.703 1 60.865 23.348 64 34.716 73.351 1"></polygon>
                <polygon id="Fill-14" fill="#FF6500" points="60.865 23.348 73.351 1 64 34.716"></polygon>
                <polygon id="Fill-15" fill="#FF8D2E" points="64.027 17.912 54.703 1 60.865 23.348"></polygon>
            </g>
        </g>
    </g>
</svg>