<?xml version="1.0" encoding="UTF-8"?>
<svg width="240px" height="85px" viewBox="0 0 240 85" version="1.1" xmlns="http://www.w3.org/2000/svg" xmlns:xlink="http://www.w3.org/1999/xlink">
    <!-- Generator: Sketch 39.1 (31720) - http://www.bohemiancoding.com/sketch -->
    <title>Group 34</title>
    <desc>Created with Sketch.</desc>
    <defs>
        <rect id="path-1" x="0" y="0" width="240" height="85"></rect>
    </defs>
    <g id="Page-1" stroke="none" stroke-width="1" fill="none" fill-rule="evenodd">
        <g id="Дизайн" transform="translate(-680.000000, -1766.000000)">
            <g id="Group-2" transform="translate(0.000000, 1586.000000)">
                <g id="Group-34" transform="translate(680.000000, 180.000000)">
                    <mask id="mask-2" fill="white">
                        <use xlink:href="#path-1"></use>
                    </mask>
                    <use id="Mask" fill="#D8D8D8" xlink:href="#path-1"></use>
                    <rect id="Rectangle" fill="#000000" mask="url(#mask-2)" x="-2" y="-2" width="242.860001" height="94.0010002"></rect>
                    <path d="M121.70565,49.8872272 C121.70565,49.3943845 120.50158,48.7332539 118.166415,48.7332539 C113.824466,48.7332539 105.906795,51.8345573 105.906795,55.5969911 C105.906795,57.3159306 107.378436,58.3376778 110.260906,58.9988083 C112.985266,59.6358978 115.125834,60.2128845 115.125834,60.9701795 C115.125834,62.0520295 111.185242,64.1916884 107.475734,64.1916884 C106.101392,64.1916884 104.447316,63.6748045 104.447316,63.2060028 C104.447316,63.0978178 104.605426,62.9896328 104.605426,62.8814478 C104.605426,62.7973039 104.52029,62.7372012 104.386505,62.7372012 C104.228394,62.7372012 103,63.121859 103,64.2878528 C103,65.2855589 103.948661,66.5356967 106.806806,66.5356967 C113.459596,66.5356967 117.570461,63.4584345 117.570461,61.090385 C117.570461,58.5179861 114.079875,57.5323006 111.440651,56.8591495 C108.825752,56.1859984 108.424395,55.6931556 108.424395,55.3084978 C108.424395,54.3708945 113.179863,51.0171595 117.412351,50.7767484 C117.156942,51.0892828 116.93802,51.4018172 116.93802,51.6181872 C116.93802,51.8706189 117.083968,51.9788039 117.156942,51.9788039 C117.193429,51.9788039 117.229916,51.9547628 117.266403,51.9307217 C117.509649,51.786475 120.379957,51.9066806 121.097534,51.2936323 C121.267806,51.1493856 121.401592,51.1253445 121.54754,50.8488717 C121.669163,50.59644 121.70565,50.1637 121.70565,49.8872272 L121.70565,49.8872272 L121.70565,49.8872272 Z M126.766058,65.0218378 C126.613605,65.3648044 126.468327,65.69583 126.327332,66.0188128 C126.290845,66.1149772 126.278683,66.17508 126.278683,66.2231623 C126.278683,66.3433678 126.363819,66.3553884 126.436793,66.3553884 C126.558416,66.3553884 126.740851,66.5597378 127.008422,66.5597378 C127.251669,66.5597378 127.750324,66.3313473 127.847622,66.1871006 C128.857095,64.8047367 133.600401,59.4916512 134.950418,58.5540478 C134.196354,59.8402473 132.128759,63.2540851 132.128759,64.87686 C132.128759,66.1269978 132.931473,66.6318611 134.135542,66.6318611 C135.256598,66.6318611 136.335392,66.0319108 137.130082,65.3762185 C137.434695,66.0414427 138.093278,66.5116556 138.93966,66.5116556 C142.442408,66.5116556 146.833006,60.7177478 146.833006,58.2895956 C146.833006,57.4000745 146.151916,57.0274373 145.580287,57.0274373 C145.482988,57.0274373 145.33704,57.0274373 145.166768,57.0514784 L145.166768,56.979355 C145.166768,56.8351084 144.765411,56.4624711 144.035672,56.4624711 C141.997437,56.4624711 137.875918,59.4387526 137.079834,63.2372195 C136.41089,63.8631571 135.481591,64.6819276 135.023392,64.8047367 C134.901769,64.8407984 134.792308,64.8648395 134.695009,64.8648395 C134.415276,64.8648395 134.269328,64.7085723 134.269328,64.3840172 C134.269328,63.4343934 137.431532,58.0612051 137.431532,57.4481567 C137.431532,57.0995606 137.358557,56.762985 137.018013,56.6307589 C136.835578,56.5586356 136.409896,56.43843 136.142325,56.43843 C134.597711,56.43843 131.982812,59.1190139 130.632794,60.7417889 C133.07742,55.8494228 137.565317,49.2260967 137.759914,48.8534595 C137.808563,48.7332539 137.832888,48.6010278 137.832888,48.4688017 C137.832888,48.0240412 137.662615,48 137.492343,48 C136.580169,48 135.972053,48.324555 135.692319,48.6851717 C135.400424,49.0578089 134.500412,50.4041111 133.600401,51.9547628 C130.827842,56.7308329 129.149739,59.9516498 127.958739,62.4357681 C127.914852,62.4536964 127.869075,62.4820508 127.823297,62.5208311 C127.592214,62.71316 125.427321,64.8287778 121.91241,64.8287778 C120.623203,64.8287778 120.270496,64.0474417 120.270496,63.3863111 C120.270496,61.3668578 122.289441,59.4916512 123.955679,58.5540478 C124.381361,58.2895956 124.977315,58.0131228 125.500294,58.0131228 C125.585431,58.0131228 125.63408,58.0371639 125.63408,58.1333283 C125.63408,58.5780889 124.90434,59.1430551 124.90434,59.5397333 C124.90434,60.0325761 125.184074,60.2729872 125.682729,60.2729872 C126.63139,60.2729872 127.653026,58.6021301 127.653026,57.7727117 C127.653026,56.9072317 126.753014,56.4143889 125.9503,56.4143889 C122.216468,56.4143889 118.361012,60.0325761 118.361012,63.6507634 C118.361012,65.4778878 119.954276,66.6318611 121.91241,66.6318611 C122.765016,66.6318611 125.148915,66.0557767 126.766058,65.0218378 L126.766058,65.0218378 Z M144.473515,58.6261712 C144.582976,58.6261712 144.643788,58.710315 144.643788,58.8665822 C144.643788,59.3474045 144.084321,60.5374395 142.746466,62.1962761 C141.274825,64.0234006 139.827509,64.7326133 139.280204,64.7326133 C138.951822,64.7326133 138.781549,64.4801817 138.781549,64.0594622 C138.793712,63.3382289 139.280204,62.1001117 140.326164,60.76583 C141.445097,59.3474045 142.843764,58.38576 143.962698,58.0131228 C143.962698,58.5059656 144.145133,58.6261712 144.38838,58.6261712 L144.473515,58.6261712 L144.473515,58.6261712 Z M155.954746,58.2895956 C155.954746,57.4000745 155.273657,57.0274373 154.702027,57.0274373 C154.604729,57.0274373 154.458781,57.0274373 154.288508,57.0514784 L154.288508,56.979355 C154.288508,56.8351084 153.887152,56.4624711 153.157413,56.4624711 C150.895221,56.4624711 146.066779,60.1287406 146.066779,64.5162434 C146.066779,65.5980933 146.881655,66.5116556 148.0614,66.5116556 C151.564149,66.5116556 155.954746,60.7177478 155.954746,58.2895956 L155.954746,58.2895956 L155.954746,58.2895956 Z M153.595256,58.6261712 C153.704717,58.6261712 153.765529,58.710315 153.765529,58.8665822 C153.765529,59.3474045 153.206062,60.5374395 151.868207,62.1962761 C150.396566,64.0234006 148.949249,64.7326133 148.401945,64.7326133 C148.073563,64.7326133 147.90329,64.4801817 147.90329,64.0594622 C147.915453,63.3382289 148.401945,62.1001117 149.447905,60.76583 C150.566838,59.3474045 151.965505,58.38576 153.084439,58.0131228 C153.084439,58.5059656 153.266874,58.6261712 153.51012,58.6261712 L153.595256,58.6261712 L153.595256,58.6261712 Z M167.241381,49.3943845 C167.241381,48.6130483 166.511642,48.1442467 165.76974,48.1442467 C164.103502,48.1442467 161.780499,51.0772622 160.284533,53.1688389 C158.350724,55.8734639 156.149344,60.7417889 156.149344,64.0714828 C156.149344,65.6221345 156.903408,66.6559022 158.520996,66.6559022 C160.029124,66.6559022 161.816986,65.7663811 162.802134,64.6604901 C163.09403,64.3359351 163.373763,64.0594622 163.373763,63.5185372 L163.373763,63.2781262 C163.373763,63.0857973 163.373763,62.4006256 163.057542,62.4006256 C162.534563,62.4006256 160.856162,64.87686 159.335872,64.87686 C158.59397,64.87686 158.022341,64.44412 158.022341,63.6748045 C158.022341,63.2781262 158.168289,62.9175095 158.216938,62.5208311 C160.284533,60.2489461 167.241381,52.1591123 167.241381,49.3943845 L167.241381,49.3943845 L167.241381,49.3943845 Z M165.222436,50.1396589 C165.222436,51.4378789 159.895339,58.4098012 158.715594,59.7921651 C159.153437,58.4819245 159.834527,56.9312728 160.515617,55.7292172 C161.00211,54.8637372 164.45621,49.9593506 165.100812,49.9593506 C165.198111,49.9593506 165.222436,50.0434945 165.222436,50.1396589 L165.222436,50.1396589 L165.222436,50.1396589 Z" id="School" fill="#FFFFFF" mask="url(#mask-2)"></path>
                    <g id="_лого" mask="url(#mask-2)">
                        <g transform="translate(33.000000, 18.000000)" id="Group">
                            <g>
                                <path d="M171.155358,23.2826721 L171.133151,22.5944294 L171.042735,21.9273513 L170.885697,21.3057379 L170.683452,20.6833407 L170.413791,20.1056244 L170.075922,19.5279081 L169.67143,18.9948728 L169.221731,18.4837859 L168.704616,17.9946475 L168.187502,17.5721386 L167.625973,17.217043 L167.041443,16.9058444 L166.411706,16.6832237 L165.781969,16.5280164 L165.130023,16.416706 L164.432871,16.3947575 L163.736511,16.416706 L163.084566,16.5280164 L162.432622,16.6832237 L161.825091,16.9058444 L161.240562,17.1943106 L160.70124,17.5501901 L160.161918,17.972699 L159.667011,18.439105 L159.217312,18.9501919 L158.835028,19.5051758 L158.497951,20.0828921 L158.22829,20.6606084 L158.003044,21.2830056 L157.846007,21.9273513 L157.756384,22.5944294 L157.733383,23.2826721 L157.756384,23.9716987 L157.846007,24.6607254 L158.003044,25.3050711 L158.22829,25.9274683 L158.497951,26.5051846 L158.835028,27.0829009 L159.217312,27.6378848 L159.667011,28.1489716 L160.161918,28.63811 L160.70124,29.0598351 L161.240562,29.3937661 L161.825091,29.6822323 L162.432622,29.904853 L163.084566,30.0600603 L163.736511,30.1713706 L164.432871,30.1933192 L165.130023,30.1713706 L165.781969,30.0600603 L166.411706,29.904853 L167.018443,29.6822323 L167.602972,29.3937661 L168.165295,29.0598351 L168.704616,28.63811 L169.199524,28.1489716 L169.649223,27.6378848 L170.053714,27.0829009 L170.39079,26.5051846 L170.660451,25.9274683 L170.885697,25.3050711 L171.042735,24.6607254 L171.133151,23.9716987 L171.155358,23.2826721 L171.155358,23.2826721 L171.155358,23.2826721 Z M172.122172,23.2826721 L172.122172,23.2826721 L172.076964,24.0610605 L171.987341,24.8159327 L171.807303,25.5496403 L171.55985,26.237883 L171.222773,26.9049612 L170.84049,27.5493069 L170.39079,28.1489716 L169.851468,28.7266879 L169.266939,29.2605072 L168.660202,29.7269132 L168.030465,30.1266897 L167.355519,30.4378883 L166.659159,30.704406 L165.939799,30.8823458 L165.197439,30.9709237 L164.432871,31.0156046 L163.646095,30.9709237 L162.904528,30.8823458 L162.162167,30.704406 L161.488015,30.4598369 L160.813863,30.1266897 L160.184125,29.7488617 L159.577388,29.2824558 L159.015066,28.7494204 L158.497951,28.1717041 L158.048252,27.5493069 L157.665969,26.9269096 L157.3511,26.2606154 L157.103646,25.5496403 L156.924401,24.8159327 L156.833985,24.0610605 L156.78957,23.2826721 L156.833985,22.5050676 L156.924401,21.7494115 L157.103646,21.0384364 L157.3511,20.3501937 L157.665969,19.6831155 L158.048252,19.0387698 L158.497951,18.439105 L159.015066,17.8613887 L159.577388,17.3283534 L160.184125,16.8611635 L160.813863,16.4833355 L161.488015,16.1729207 L162.162167,15.9056192 L162.904528,15.7284633 L163.646095,15.6391015 L164.432871,15.5944206 L165.197439,15.6391015 L165.939799,15.7284633 L166.659159,15.9056192 L167.355519,16.1729207 L168.030465,16.4833355 L168.660202,16.8611635 L169.266939,17.3283534 L169.851468,17.8613887 L170.39079,18.439105 L170.84049,19.0615022 L171.222773,19.6831155 L171.55985,20.3501937 L171.807303,21.0384364 L171.987341,21.7721439 L172.076964,22.5050676 L172.122172,23.2826721 L172.122172,23.2826721 L172.122172,23.2826721 Z M157.283684,16.6165943 L157.283684,16.6165943 L152.967524,16.6165943 L152.967524,30.7929839 L152.068125,30.7929839 L152.068125,16.6165943 L147.751172,16.6165943 L147.751172,15.7950927 L157.283684,15.7950927 L157.283684,16.6165943 L157.283684,16.6165943 L157.283684,16.6165943 Z M146.762151,27.0162715 L146.762151,27.0162715 L146.716943,27.6606172 L146.605112,28.2156011 L146.425074,28.7266879 L146.132413,29.2158263 L145.660506,29.7269132 L145.121184,30.1486383 L144.806316,30.3046295 L144.491447,30.4598369 L144.132164,30.5711472 L143.772087,30.6597251 L143.547634,30.6824575 L143.300181,30.7263546 L143.007519,30.7490869 L142.648236,30.7710355 L142.265952,30.7710355 L141.83846,30.7929839 L141.366553,30.7929839 L140.849439,30.7929839 L136.577693,30.7929839 L136.577693,29.9934308 L140.849439,29.9934308 L141.456176,29.9934308 L142.10812,29.9714824 L142.69265,29.9487499 L143.187557,29.8821206 L143.615049,29.7935426 L144.154371,29.6375513 L144.60407,29.3937661 L145.008562,29.104516 L145.323431,28.7494204 L145.525676,28.4154893 L145.682714,27.9937643 L145.77313,27.5712554 L145.795337,27.1495303 L145.750922,26.571814 L145.615299,26.0607272 L145.413053,25.5935373 L145.098184,25.1718122 L144.873731,24.9491916 L144.60407,24.7493033 L144.311409,24.549415 L143.952125,24.3495268 L143.457218,24.12769 L142.872688,23.9270178 L142.198537,23.705181 L141.456176,23.4825604 L140.647193,23.2387751 L139.95004,22.994206 L139.365511,22.7943176 L138.938812,22.5944294 L138.24166,22.2166013 L137.679337,21.7721439 L137.207431,21.2830056 L136.870354,20.7280216 L136.645108,19.9943141 L136.5999,19.5945376 L136.577693,19.1500801 L136.622901,18.6170447 L136.735524,18.1059579 L136.93777,17.638768 L137.207431,17.1943106 L137.499299,16.8611635 L137.814167,16.5726973 L138.174244,16.3500766 L138.556528,16.1501883 L138.780981,16.0616104 L139.028435,15.994981 L139.320303,15.9283515 L139.635172,15.8836706 L139.995249,15.8389897 L140.377532,15.8170412 L140.804231,15.7950927 L141.25393,15.7950927 L145.885753,15.7950927 L145.885753,16.6165943 L141.25393,16.6165943 L140.759817,16.6165943 L140.332324,16.6393267 L139.972248,16.6612752 L139.658172,16.6832237 L139.387718,16.7279046 L139.118057,16.8172664 L138.848396,16.9505253 L138.578735,17.1057327 L138.174244,17.4169312 L138.016413,17.6168195 L137.881583,17.8167078 L137.724545,18.1059579 L137.611922,18.4171565 L137.544506,18.7722521 L137.522299,19.1500801 L137.544506,19.5945376 L137.634129,20.0162626 L137.79196,20.4387716 L138.016413,20.8165996 L138.286074,21.1277982 L138.623943,21.4162644 L139.050642,21.6827821 L139.567757,21.9273513 L139.995249,22.0833425 L140.512363,22.2604984 L141.1191,22.4384381 L141.83846,22.6383264 L142.535613,22.8382147 L143.142349,23.0161544 L143.659464,23.1940942 L144.086956,23.3720339 L144.671485,23.6385516 L145.165599,23.9497503 L145.593092,24.2609489 L145.930167,24.6160445 L146.110206,24.8386652 L146.267244,25.1051829 L146.537698,25.7048476 L146.694735,26.3491933 L146.762151,27.0162715 L146.762151,27.0162715 L146.762151,27.0162715 Z M115.062719,23.6385516 L115.062719,23.6385516 L115.039719,24.3048459 L114.950096,24.9491916 L114.792265,25.5935373 L114.59002,26.2159345 L114.320359,26.8155993 L113.983282,27.416048 L113.600998,27.9710319 L113.151299,28.5267997 L112.588977,29.104516 L111.98224,29.6156029 L111.352502,30.0381118 L110.656143,30.3932074 L109.936783,30.6597251 L109.172215,30.8603973 L108.362439,30.9709237 L107.508248,31.0156046 L106.721473,30.9709237 L105.979905,30.8823458 L105.237545,30.704406 L104.563392,30.4598369 L103.888447,30.1266897 L103.259503,29.7488617 L102.651973,29.2824558 L102.067443,28.7494204 L101.550328,28.1717041 L101.100629,27.5712554 L100.719138,26.9269096 L100.40427,26.2606154 L100.156817,25.5715888 L99.9767776,24.8386652 L99.8871556,24.0830091 L99.8419476,23.2826721 L99.8871556,22.5050676 L99.9767776,21.7494115 L100.156817,21.0164879 L100.40427,20.3274612 L100.719138,19.661167 L101.100629,19.0168213 L101.550328,18.4171565 L102.067443,17.8394402 L102.629765,17.3056209 L103.236503,16.8611635 L103.888447,16.4613869 L104.540392,16.1501883 L105.237545,15.9056192 L105.956905,15.7284633 L106.721473,15.6391015 L107.508248,15.5944206 L108.587685,15.6618338 L109.621914,15.8389897 L110.116027,15.9722486 L110.588727,16.1282398 L111.060634,16.3281281 L111.532541,16.5726973 L112.049655,16.8838959 L112.544562,17.217043 L112.994261,17.594871 L113.398752,17.9946475 L112.769015,18.6389933 L112.477147,18.3058461 L112.162278,18.0165961 L111.487333,17.4835607 L110.723558,17.0610517 L109.869367,16.7279046 L109.307045,16.5726973 L108.722516,16.4833355 L108.115778,16.416706 L107.508248,16.3947575 L106.811095,16.416706 L106.136943,16.5280164 L105.507206,16.6832237 L104.900469,16.9058444 L104.315939,17.1723621 L103.753616,17.5282416 L103.214295,17.9499666 L102.719388,18.4171565 L102.269688,18.9274595 L101.888198,19.4832272 L101.550328,20.0609435 L101.280667,20.6606084 L101.056215,21.261057 L100.898384,21.9273513 L100.808761,22.5944294 L100.786554,23.2826721 L100.808761,23.9936473 L100.898384,24.6607254 L101.056215,25.3050711 L101.280667,25.9274683 L101.550328,26.5271331 L101.888198,27.1048494 L102.292689,27.6606172 L102.742388,28.1717041 L103.236503,28.63811 L103.753616,29.0598351 L104.315939,29.4157146 L104.900469,29.6822323 L105.507206,29.904853 L106.136943,30.0600603 L106.811095,30.1713706 L107.508248,30.1933192 L108.183194,30.1713706 L108.857346,30.0820088 L109.487084,29.9268015 L110.071613,29.7269132 L110.633142,29.4603955 L111.195464,29.1264645 L111.690372,28.7494204 L112.184485,28.3049629 L112.634184,27.8158246 L113.016469,27.2827892 L113.353544,26.7489699 L113.623205,26.193986 L113.826244,25.5935373 L113.983282,24.971924 L114.072905,24.3275782 L114.095905,23.6605001 L107.508248,23.6605001 L107.508248,22.8162662 L115.062719,22.8162662 L115.062719,23.6385516 L115.062719,23.6385516 L115.062719,23.6385516 Z" id="Shape" fill="#EE7A00"></path>
                                <path d="M89.9049432,15.7057309 L89.9271506,16.3947575 L89.9723586,17.0837841 L90.0619814,17.7500784 L90.1968115,18.4171565 L90.3316423,19.0834507 L90.5346812,19.7497449 L91.0065876,21.0384364 L91.0065876,21.0384364 L91.3214566,21.727463 L91.6585321,22.3937572 L89.8153205,22.3937572 L89.3204141,21.261057 L88.9159223,20.0828921 L88.6232607,18.8608301 L88.3988079,17.638768 L88.2861851,16.3947575 L88.2861851,15.150747 L88.3758071,13.9059526 L88.5780534,12.6619421 L88.5780534,12.6619421 L88.8485069,11.528458 L89.2077906,10.4177063 L89.6352823,9.32890311 L90.1523968,8.283997 L90.7369267,7.26260711 L91.4110786,6.30706282 L92.1304393,5.39541554 L92.9402146,4.55118155 L92.9402146,4.55118155 L93.5017438,4.01814616 L94.0862737,3.50705929 L94.6938036,3.04065333 L95.3227481,2.59619588 L95.9746927,2.19641934 L96.649638,1.81859132 L97.3467913,1.48466033 L98.0661513,1.1742456 L98.0661513,1.1742456 L98.7855113,0.906944031 L99.5270786,0.663158731 L100.291647,0.463270461 L101.056215,0.307279223 L101.820783,0.195968892 L102.584557,0.0854424368 L103.371333,0.0407615295 L104.158901,0.0188130136 L104.922676,0.0407615295 L105.709452,0.0854424368 L106.49702,0.195968892 L107.260795,0.307279223 L108.025362,0.463270461 L108.767723,0.663158731 L109.509291,0.906944031 L110.250858,1.1742456 L110.250858,1.1742456 L110.971012,1.48466033 L111.667371,1.81859132 L112.342316,2.19641934 L113.016469,2.6181444 L113.646206,3.06260184 L114.252943,3.52900781 L114.837472,4.04009468 L115.399795,4.55118155 L115.916909,5.10694933 L116.434024,5.70661414 L116.90593,6.30706282 L117.333422,6.92867615 L117.760121,7.59575427 L118.142405,8.26204852 L118.479481,8.95107512 L118.79435,9.66205027 L118.79435,9.66205027 L119.244049,10.8621638 L117.535668,10.8621638 L117.198592,10.0179298 L116.816308,9.21759282 L116.388816,8.43998828 L115.916909,7.68433222 L115.399795,6.97335706 L114.837472,6.28433044 L114.207735,5.6180362 L113.555791,5.01837139 L112.859431,4.4406551 L112.11707,3.92956823 L111.352502,3.44042987 L110.543519,3.01792094 L109.689329,2.64087679 L108.812138,2.3069458 L107.912739,2.04042811 L106.968927,1.81859132 L106.182151,1.68533247 L105.395376,1.59597066 L104.607807,1.55207363 L103.821032,1.55207363 L103.034256,1.59597066 L102.247481,1.68533247 L101.482913,1.79585893 L100.719138,1.97379868 L99.9767776,2.17368695 L99.2352103,2.41825613 L98.5158504,2.70750622 L97.7964904,3.01792094 L97.0993378,3.39574897 L96.4243925,3.79630938 L95.7724472,4.23998295 L95.1435026,4.72912131 L95.1435026,4.72912131 L94.5359727,5.24020817 L93.9744436,5.79597595 L93.4573291,6.37369225 L92.9402146,6.99530557 L92.4905156,7.61770276 L92.0630239,8.283997 L91.6585321,8.95107512 L91.2984558,9.66205027 L90.9843802,10.3730254 L90.6917186,11.1067329 L90.4672658,11.8396566 L90.2642269,12.5953126 L90.1071887,13.3729172 L89.994566,14.1285732 L89.9271506,14.9281263 L89.9049432,15.7057309 L89.9049432,15.7057309 L89.9049432,15.7057309 Z M72.054185,19.8391067 L72.054185,19.8391067 L87.3867863,30.0153794 L87.5890325,30.2152676 L87.7016552,30.4378883 L87.7468633,30.6824575 L87.6794479,30.9489752 L87.6794479,30.9489752 L87.5216171,31.2154929 L87.5216171,31.1935444 L87.3415789,31.3268032 L87.1623334,31.4153812 L86.9370872,31.4600621 L86.7348417,31.4153812 L86.7348417,31.4153812 L86.5548035,31.3268032 L86.5548035,31.3268032 L68.9514985,19.6831155 L68.7491735,19.5498567 L68.5692938,19.3719169 L68.5692938,19.3719169 L68.479354,19.194761 L68.4119387,19.0168213 L68.4119387,18.816933 L68.4569087,18.6389933 L68.4569087,18.6170447 L68.479354,18.6170447 L68.5468485,18.4610535 L68.6367883,18.3497432 L68.7716188,18.2611652 L68.9065286,18.1945358 L69.1987934,18.1498549 L69.5135829,18.1498549 L70.570257,18.1945358 L71.6496937,18.2164843 L72.3460533,18.2164843 L73.0209987,18.1945358 L73.6499432,18.1725873 L74.2344731,18.1498549 L74.7745875,18.1059579 L75.291702,18.061277 L75.7414011,18.0165961 L76.1681001,17.9499666 L76.1681001,17.9499666 L77.0452909,17.7720269 L77.8994817,17.5282416 L78.7084644,17.1943106 L79.4952398,16.7945341 L80.2153932,16.3281281 L80.8673377,15.7504118 L81.4518676,15.1060661 L81.9459814,14.3723586 L82.1934349,13.9279011 L82.3956804,13.4395466 L82.5535112,12.9504083 L82.7105494,12.4393214 L82.9127949,11.3505182 L82.9802103,10.2617151 L82.9357956,9.15096336 L82.7779648,8.08410877 L82.643134,7.57302185 L82.4860966,7.061935 L82.3060577,6.57358052 L82.1038122,6.12912307 L81.608905,5.3068376 L81.0021678,4.55118155 L80.3272225,3.88488732 L79.5404472,3.30717102 L79.5404472,3.30717102 L78.7988798,2.88466209 L78.0121045,2.55151498 L77.1801218,2.3069458 L76.3481383,2.12978992 L75.4939475,2.01847959 L74.6167567,1.97379868 L72.9083756,1.92911778 L63.8930566,1.92911778 L63.8930566,30.5711472 L63.870532,30.7490869 L63.825562,30.9270267 L63.7356222,31.0602855 L63.6456824,31.1935444 L63.3759422,31.3487518 L63.0836774,31.4153812 L62.7688879,31.3714841 L62.4991477,31.2154929 L62.4092078,31.1041825 L62.319268,30.9489752 L62.2742981,30.7710355 L62.2518528,30.5711472 L62.2518528,1.1742456 L62.2742981,1.01825436 L62.319268,0.863047001 L62.4766231,0.618477824 L62.7464426,0.440538069 L63.0387074,0.329227739 L63.0387074,0.329227739 L63.4209121,0.307279223 L73.3358676,0.307279223 L74.4375112,0.329227739 L75.5613629,0.418589554 L76.6400065,0.596529307 L77.7194436,0.840314606 L78.7758798,1.1742456 L79.7879007,1.61870305 L80.7325069,2.17368695 L81.1814133,2.48488555 L81.6311124,2.84076506 L81.6311124,2.84076506 L82.0133968,3.19586069 L82.3734731,3.57368871 L83.0032103,4.37402567 L83.5203248,5.21825966 L83.9248165,6.10717456 L84.2396855,7.03998648 L84.441931,8.0174793 L84.5537611,9.01770451 L84.5989684,10.0618268 L84.5537611,11.1067329 L84.4189302,12.1508552 L84.2166847,13.128348 L83.8796084,14.0838923 L83.4521167,14.9947558 L82.9127949,15.8389897 L82.5979259,16.2395501 L82.238643,16.6393267 L81.8563586,16.9944223 L81.4518676,17.3503018 L81.4518676,17.3503018 L80.9569605,17.7281298 L80.439846,18.061277 L79.9005242,18.3497432 L79.3382017,18.6170447 L78.7758798,18.8608301 L78.19135,19.0615022 L77.0000829,19.3719169 L75.7636084,19.5945376 L74.527134,19.7497449 L73.2906595,19.8163744 L72.054185,19.8391067 L72.054185,19.8391067 L72.054185,19.8391067 Z M35.7004063,22.2385499 L35.7004063,22.2385499 L33.0250529,22.2385499 L32.8451732,22.2166013 L32.7102635,22.1719204 L32.4629685,22.0167131 L32.2830889,21.7940924 L32.193149,21.5056263 L32.193149,21.2383246 L32.2830889,20.971807 L32.4854932,20.7719187 L32.5978783,20.6833407 L32.7552334,20.6386598 L32.7552334,20.6386598 L33.0250529,20.6167114 L35.7004063,20.6167114 L35.7004063,1.19619412 L35.7228516,1.01825436 L35.7678215,0.88499552 L35.9252559,0.618477824 L36.1949961,0.440538069 L36.4872609,0.329227739 L36.4872609,0.329227739 L36.8694656,0.307279223 L56.4514469,0.307279223 L56.6987418,0.351960131 L56.9235914,0.463270461 L57.1033918,0.618477824 L57.2158562,0.840314606 L57.2158562,0.840314606 L57.2608261,0.996305851 L57.2832715,1.1742456 L57.2158562,1.46271181 L57.1259164,1.61870305 L57.0134519,1.7292295 L56.8786215,1.81859132 L56.7211871,1.88522075 L56.7211871,1.88522075 L56.4514469,1.92911778 L37.3416101,1.92911778 L37.3416101,20.6167114 L57.0359765,20.6167114 L57.1933316,20.6386598 L57.3506867,20.6833407 L57.3732113,20.6833407 L57.6205062,20.883229 L57.8003859,21.1497467 L57.8003859,21.1497467 L57.8678011,21.349635 L57.8678011,21.5495232 L57.8228311,21.727463 L57.7328913,21.9054027 L57.5979815,22.0386616 L57.4406265,22.149972 L57.2608261,22.2166013 L57.0359765,22.2385499 L37.3416101,22.2385499 L37.3416101,29.6602838 L56.4514469,29.6602838 L56.6088019,29.6602838 L56.7437117,29.7041808 L56.7437117,29.7041808 L57.0134519,29.860172 L57.2158562,30.1047412 L57.1933316,30.1047412 L57.2832715,30.3493104 L57.2832715,30.6158281 L57.2158562,30.8603973 L57.0584219,31.0602855 L57.0584219,31.0602855 L56.9235914,31.170812 L56.7886816,31.2374414 L56.4514469,31.2821223 L36.8694656,31.2821223 L36.5772007,31.2601738 L36.3299058,31.2154929 L36.1275809,31.1041825 L35.9702258,30.9936561 L35.9702258,30.9936561 L35.8353161,30.8157164 L35.7453762,30.5930957 L35.7004063,30.3493104 L35.7004063,30.1047412 L35.7004063,22.2385499 L35.7004063,22.2385499 L35.7004063,22.2385499 Z M1.90975434,0.618477824 L1.90975434,0.618477824 L16.3657199,28.9932056 L30.9791198,0.573796916 L31.1815241,0.351960131 L31.4062944,0.218701283 L31.6535894,0.15207186 L31.8110237,0.174020376 L31.9683788,0.218701283 L31.9458541,0.218701283 L32.2381189,0.373908646 L32.2381189,0.373908646 L32.4179986,0.663158731 L32.4179986,0.663158731 L32.4629685,0.796417576 L32.4854932,0.929676426 L32.4405233,1.1742456 L32.4405233,1.1742456 L32.3955534,1.32945297 L17.1750991,30.8823458 L17.0401894,31.0822341 L16.9053589,31.2601738 L16.6805093,31.4153812 L16.4332145,31.4820106 L16.1633949,31.4381136 L15.9161,31.3040709 L15.9161,31.3040709 L15.8037149,31.2154929 L15.6913297,31.1041825 L15.5788653,30.9489752 L15.51145,30.8157164 L0.515845435,1.39608238 L0.425905595,1.15151321 L0.425905595,0.88499552 L0.493320819,0.618477824 L0.650755196,0.395857162 L0.650755196,0.395857162 L0.808110264,0.262598315 L0.987989941,0.174020376 L1.16779031,0.15207186 L1.34766999,0.15207186 L1.50502506,0.218701283 L1.66245944,0.307279223 L1.79728988,0.440538069 L1.90975434,0.618477824 L1.90975434,0.618477824 L1.90975434,0.618477824 Z" id="Shape" fill="#FFFFFF"></path>
                                <polygon id="Shape" fill="#EE7A00" points="132.711231 23.415931 132.688231 24.2609489 132.575608 25.060502 132.41857 25.7942095 132.216325 26.5051846 131.923663 27.1495303 131.56438 27.7711436 131.159889 28.3269114 130.687189 28.8379983 130.170074 29.3044042 129.585544 29.7041808 128.978807 30.0381118 128.304655 30.326578 127.607503 30.5264662 126.865142 30.6824575 126.056159 30.7929839 125.224176 30.8157164 124.392193 30.7929839 123.605418 30.6824575 122.86385 30.5264662 122.166697 30.326578 121.492545 30.0381118 120.885015 29.7041808 120.300485 29.3044042 119.783371 28.8379983 119.311464 28.3269114 118.906973 27.7711436 118.546896 27.1495303 118.277236 26.5051846 118.052783 25.7942095 117.894951 25.060502 117.783122 24.2609489 117.760121 23.415931 117.760121 17.8394402 119.041804 17.8394402 119.041804 23.415931 119.064011 24.1049576 119.131426 24.7720357 119.244049 25.393649 119.424087 25.9713653 119.626333 26.5051846 119.873786 27.0162715 120.188655 27.4826775 120.525732 27.9044025 120.95243 28.3049629 121.447337 28.6600586 121.964452 28.9712572 122.526774 29.2158263 123.133511 29.4157146 123.785456 29.5489735 124.482608 29.6375513 125.224176 29.6602838 125.966537 29.6375513 126.662896 29.5489735 127.292634 29.4157146 127.899371 29.2377749 128.461693 28.9932056 128.978807 28.7047395 129.428507 28.34886 129.855999 27.9490834 130.215282 27.5046259 130.530151 27.03822 130.799812 26.5051846 131.025058 25.9713653 131.204303 25.3717006 131.339133 24.7720357 131.406549 24.1049576 131.429549 23.415931 131.429549 17.8394402 132.711231 17.8394402"></polygon>
                            </g>
                        </g>
                    </g>
                </g>
            </g>
        </g>
    </g>
</svg>