<?xml version="1.0" encoding="UTF-8"?>
<svg width="169px" height="60px" viewBox="0 0 169 60" version="1.1" xmlns="http://www.w3.org/2000/svg" xmlns:xlink="http://www.w3.org/1999/xlink">
    <!-- Generator: Sketch 39.1 (31720) - http://www.bohemiancoding.com/sketch -->
    <title>Group 2</title>
    <desc>Created with Sketch.</desc>
    <defs></defs>
    <g id="Page-1" stroke="none" stroke-width="1" fill="none" fill-rule="evenodd">
        <g id="Group-2">
            <rect id="Rectangle-2" fill="#7C4482" x="0" y="0" width="169" height="60"></rect>
            <g id="Logo-WHITE" transform="translate(25.000000, 17.000000)">
                <g id="Слой_1">
                    <g id="Слой_1-2">
                        <path d="M35.2743431,21.38959 C30.7026664,21.38959 26.9830709,17.6203424 26.9830709,12.9870367 C26.9830709,8.35362177 30.7026637,4.58426671 35.2743431,4.58426671 C39.8462357,4.58426671 43.5659359,8.3536236 43.5659359,12.9870367 C43.5659359,17.6203424 39.8462348,21.38959 35.2743467,21.38959 L35.2743467,21.38959 L35.2743431,21.38959 Z M35.2743431,-5.01229356e-16 C28.1257201,-5.01229356e-16 22.310093,5.825673 22.310093,12.9870367 C22.310093,20.1481828 28.1257237,25.9740735 35.2743431,25.9740735 C42.4234953,25.9740735 48.2392316,20.1482921 48.2392316,12.9870367 C48.2392316,5.82567392 42.4234953,0.000108409894 35.2743431,8.76708592e-18 L35.2743431,-5.01229356e-16 Z" id="Shape" fill="#FFFFFF"></path>
                        <path d="M64.4698935,21.38959 C59.8978953,21.38959 56.1785165,17.6203424 56.1785165,12.9870367 C56.1785165,8.35362177 59.8978962,4.58426671 64.4697887,4.58426671 C69.0417905,4.58426671 72.7617074,8.3536236 72.7617074,12.9870367 C72.761702,17.6203424 69.0417896,21.38959 64.4698935,21.38959 L64.4698935,21.38959 Z M64.4698935,-5.01229356e-16 C57.3213797,-5.01229356e-16 51.5052172,5.825673 51.5052172,12.9870367 C51.5052172,20.1481828 57.3213797,25.9740735 64.4697878,25.9740735 C71.6182971,25.9740735 77.4348876,20.1482921 77.4348876,12.9870367 C77.4349932,5.82567392 71.6182971,0.000108409894 64.4698935,8.76708592e-18 L64.4698935,-5.01229356e-16 Z" id="Shape" fill="#FFFFFF"></path>
                        <path d="M119.862544,24.5221848 L103.882998,1.15840841 C103.744276,0.959374143 103.519174,0.841312265 103.279366,0.84181477 L98.9398239,0.841597951 C98.7434694,0.84158016 98.5551521,0.920938258 98.4163087,1.06221055 C98.2774653,1.20348284 98.1994719,1.39509423 98.1994898,1.59488318 L98.1994898,18.1095494 L86.4188379,1.15992431 C86.2801852,0.960164439 86.0547053,0.8415059 85.8143549,0.841815689 L81.8815034,0.841598869 C81.6850817,0.84149016 81.4966679,0.92080498 81.3577363,1.0620843 C81.2188047,1.20336363 81.1407435,1.39502672 81.1407359,1.5948841 L81.1407359,24.95801 C81.1408027,25.3741559 81.4724029,25.7114579 81.881395,25.7114046 L85.0409634,25.7114046 C85.4499296,25.7113509 85.7814992,25.3741294 85.7817309,24.95801 L85.7817309,8.34081654 L97.5371115,25.3909064 C97.6759878,25.5918459 97.9023083,25.7114177 98.1437354,25.7114037 L102.126064,25.7114037 C102.535009,25.7113398 102.866541,25.3741065 102.866723,24.9580091 L102.866723,7.99471703 L114.517066,25.3922082 C114.655976,25.5921491 114.88155,25.7111358 115.122194,25.7114028 L119.259354,25.7114028 C119.536237,25.7113625 119.789941,25.554071 119.916926,25.3037207 C120.043911,25.0533703 120.022937,24.7518376 119.862563,24.5221811 L119.862544,24.5221848 Z" id="Shape" fill="#FFFFFF"></path>
                        <path d="M14.8460632,16.3939086 C18.0648542,14.5306253 19.6469852,10.6955824 18.6996456,7.05292859 C17.7523061,3.41027482 14.5130334,0.873374971 10.8097779,0.87382417 L3.99469887,0.87382417 C3.9634052,0.869736761 3.93188163,0.867743432 3.90033138,0.867857032 L0.740548984,0.867747703 C0.331609661,0.867781174 9.04280882e-05,1.20505012 -1.80586907e-06,1.62114226 L-1.80586907e-06,24.9580119 C0.000204493873,25.3740549 0.331656113,25.7112551 0.740547178,25.7114046 L3.90033228,25.7114046 C4.30926563,25.7113995 4.64077023,25.3740961 4.64077472,24.95801 L4.64088126,5.45374346 L10.7606221,5.45374346 C12.6810384,5.45374346 14.3035287,7.15907795 14.3035287,9.17753145 C14.3035287,11.0035133 12.9521968,12.6123951 11.2189237,12.8611756 L9.1930456,12.8611756 C8.99665765,12.8611086 8.80829587,12.9404657 8.6694386,13.081772 C8.53058134,13.2230784 8.45261553,13.4147463 8.45270971,13.6145693 L8.45270971,15.1415364 C8.45290755,15.2967593 8.49995588,15.4481751 8.58749074,15.5753028 L15.3849752,25.3922064 C15.5238661,25.5923391 15.7496361,25.7113659 15.9904235,25.7114009 L19.9687016,25.7114009 C20.2462062,25.711477 20.5004389,25.5536066 20.6272584,25.302458 C20.7540779,25.0513094 20.7321754,24.7490818 20.5705228,24.5195765 L14.8460614,16.3939049 L14.8460614,16.3939049 L14.8460632,16.3939086 Z" id="Shape" fill="#FFFFFF"></path>
                        <path d="M119.999998,3.57449746 C120.000351,5.54893658 118.427553,7.14982658 116.487055,7.15018546 C114.546557,7.15054435 112.973187,5.55023623 112.972834,3.57579711 C112.972482,1.60135799 114.545279,0.000467681239 116.485777,0.000108409894 C117.41764,-7.5571333e-05 118.311408,0.376410194 118.970455,1.04674068 C119.629501,1.71707117 119.99984,2.62633459 119.999998,3.57449746 L119.999998,3.57449746 Z" id="Shape" fill="#3FAB3C"></path>
                    </g>
                </g>
            </g>
        </g>
    </g>
</svg>