<?xml version="1.0" encoding="UTF-8"?>
<svg width="500px" height="512px" viewBox="0 0 500 512" version="1.1" xmlns="http://www.w3.org/2000/svg" xmlns:xlink="http://www.w3.org/1999/xlink">
    <!-- Generator: Sketch 39.1 (31720) - http://www.bohemiancoding.com/sketch -->
    <title>megaphone</title>
    <desc>Created with Sketch.</desc>
    <defs></defs>
    <g id="Page-1" stroke="none" stroke-width="1" fill="none" fill-rule="evenodd">
        <g id="megaphone" fill="#FEE078">
            <g id="Layer_1">
                <g id="Group">
                    <path d="M483.171,2.484 C472.858,-2.102 461.244,-0.251 452.867,7.309 L435.636,22.857 C362.83,88.553 268.727,124.734 170.663,124.734 L80.137,124.734 C53.367,124.734 31.59,146.513 31.59,173.281 L31.59,181.21 L20.81,181.21 C9.394,181.21 0.106,190.498 0.106,201.915 L0.106,265.56 C0.106,276.976 9.393,286.265 20.81,286.265 L31.589,286.265 L31.589,294.193 C31.589,320.963 53.367,342.741 80.136,342.741 L113.684,342.741 L113.684,482.793 C113.684,498.897 126.786,512 142.891,512 L198.439,512 C214.543,512 227.646,498.898 227.646,482.793 L227.646,414.031 C257.906,411.013 283.809,391.004 294.356,362.545 C346.19,379.6 394.341,407.355 435.636,444.616 L452.867,460.164 C458.198,464.975 464.838,467.474 471.62,467.474 C475.496,467.474 479.421,466.658 483.171,464.99 C493.486,460.405 499.893,450.544 499.893,439.257 L499.893,28.218 C499.893,16.93 493.486,7.069 483.171,2.484 L483.171,2.484 Z M31.589,270.318 L20.81,270.318 C18.186,270.318 16.052,268.183 16.052,265.559 L16.052,201.914 C16.052,199.29 18.187,197.155 20.81,197.155 L31.589,197.155 L31.589,270.318 L31.589,270.318 Z M80.137,326.794 C62.161,326.794 47.536,312.169 47.536,294.191 L47.536,173.281 C47.536,155.304 62.161,140.68 80.137,140.68 L162.691,140.68 L162.691,326.794 L80.137,326.794 L80.137,326.794 Z M211.7,482.793 C211.7,490.105 205.751,496.055 198.438,496.055 L142.89,496.055 C135.577,496.055 129.629,490.106 129.629,482.793 L129.629,342.74 L170.664,342.74 C184.439,342.74 198.13,343.48 211.701,344.888 L211.701,482.793 L211.7,482.793 Z M227.646,397.999 L227.646,346.866 C245.071,349.394 262.256,353.062 279.091,357.856 C270.649,379.662 250.861,395.095 227.646,397.999 L227.646,397.999 Z M483.947,439.256 C483.947,444.227 481.235,448.399 476.694,450.419 C472.154,452.437 467.238,451.655 463.549,448.326 L446.318,432.778 C372.552,366.216 277.771,328.795 178.636,326.887 L178.636,140.588 C277.771,138.68 372.553,101.259 446.318,34.697 L463.549,19.148 C467.239,15.82 472.151,15.036 476.694,17.055 C481.235,19.074 483.947,23.247 483.947,28.217 L483.947,439.256 L483.947,439.256 Z" id="Shape"></path>
                    <path d="M262.786,248.042 L219.673,248.042 C215.269,248.042 211.7,251.612 211.7,256.015 C211.7,260.418 215.269,263.988 219.673,263.988 L262.786,263.988 C267.19,263.988 270.759,260.418 270.759,256.015 C270.759,251.612 267.189,248.042 262.786,248.042 L262.786,248.042 Z" id="Shape"></path>
                    <path d="M305.9,203.487 L219.673,203.487 C215.269,203.487 211.7,207.057 211.7,211.46 C211.7,215.863 215.269,219.433 219.673,219.433 L305.9,219.433 C310.304,219.433 313.873,215.863 313.873,211.46 C313.873,207.057 310.304,203.487 305.9,203.487 L305.9,203.487 Z" id="Shape"></path>
                </g>
            </g>
        </g>
    </g>
</svg>