<?xml version="1.0" encoding="UTF-8"?>
<svg width="10px" height="11px" viewBox="0 0 10 11" version="1.1" xmlns="http://www.w3.org/2000/svg" xmlns:xlink="http://www.w3.org/1999/xlink">
    <!-- Generator: Sketch 39.1 (31720) - http://www.bohemiancoding.com/sketch -->
    <title>Icon</title>
    <desc>Created with Sketch.</desc>
    <defs></defs>
    <g id="Page-1" stroke="none" stroke-width="1" fill="none" fill-rule="evenodd">
        <g id="Дизайн" transform="translate(-1032.000000, -15.000000)">
            <g id="Hero">
                <g id="Header">
                    <g id="Address" transform="translate(1031.000000, 11.000000)">
                        <g id="Icon" transform="translate(0.000000, 4.000000)">
                            <rect id="Rectangle-2" fill-opacity="0" fill="#FFFFFF" x="0" y="0" width="12" height="12"></rect>
                            <path d="M9.23149109,7.03035289 C8.92388575,6.7392736 8.41448532,6.74811735 8.09616392,7.05066075 L7.31811517,7.78971389 C7.26895923,7.76397422 7.21807951,7.73708815 7.16458543,7.70856435 C6.67325578,7.44991212 6.00078746,7.09539808 5.29315439,6.42259114 C4.58342408,5.74836482 4.20994229,5.10847626 3.93686965,4.64136825 C3.90805409,4.5918815 3.88044517,4.54416895 3.853181,4.49885841 L4.37536599,4.00347226 L4.63209163,3.75925936 C4.95090143,3.45627923 4.95969261,2.97243908 4.6528055,2.68051364 L3.10845832,1.21291612 C2.80157121,0.921400112 2.29194095,0.930243857 1.97313115,1.23322398 L1.53788122,1.64912562 C1.40382999,1.83727355 1.28187382,2.04133475 1.19111775,2.26139113 C1.10745783,2.47085685 1.05537148,2.67074184 1.03155484,2.87103627 C0.827633782,4.47721307 1.60016649,5.94513813 3.69672086,7.93708233 C6.59479587,10.6903255 8.93026367,10.4823337 9.03101756,10.4721798 C9.25045248,10.447259 9.46075145,10.3974447 9.67446922,10.318588 C9.90407433,10.2333714 10.1187114,10.1176658 10.3048203,9.97930485 L10.755268,9.57710556 C11.0734171,9.27418002 11.0825817,8.7901761 10.7758383,8.49778663 L9.23149109,7.03035289 Z" id="Shape" fill="#4054B2" transform="translate(6.000010, 5.739724) rotate(10.000000) translate(-6.000010, -5.739724) "></path>
                        </g>
                    </g>
                </g>
            </g>
        </g>
    </g>
</svg>