<?xml version="1.0" encoding="UTF-8"?>
<svg width="1680px" height="1205px" viewBox="0 0 1680 1205" version="1.1" xmlns="http://www.w3.org/2000/svg" xmlns:xlink="http://www.w3.org/1999/xlink">
    <!-- Generator: Sketch 39.1 (31720) - http://www.bohemiancoding.com/sketch -->
    <title>Background</title>
    <desc>Created with Sketch.</desc>
    <defs>
        <rect id="path-1" x="201" y="857" width="1680" height="1205"></rect>
    </defs>
    <g id="Page-1" stroke="none" stroke-width="1" fill="none" fill-rule="evenodd">
        <g id="Дизайн" transform="translate(0.000000, -5408.000000)">
            <g id="Group-9" transform="translate(-201.000000, 4551.000000)">
                <g id="Price">
                    <g id="Background">
                        <g id="549-[преобразованный]" transform="translate(1481.500000, 1516.500000) scale(-1, 1) translate(-1481.500000, -1516.500000) " fill="#EFEEEF">
                            <g id="Layer_1">
                                <g id="Group" transform="translate(733.202893, 821.080150)">
                                    <g transform="translate(6.729170, 15.744028)" id="Shape">
                                        <path d="M347.233179,1137.41114 L772.916986,415.296192 L773.808471,417.079192 L1117.92145,1139.63989 L1116.13849,1139.63989 L347.233179,1137.41114 L347.233179,1137.41114 Z M772.471244,419.753692 L351.244859,1134.73664 L1114.35552,1137.41114 L772.471244,419.753692 L772.471244,419.753692 Z"></path>
                                        <path d="M1116.13849,1140.53139 L1115.247,1138.74839 L770.688275,416.187692 L772.471244,416.187692 L1511.06608,498.651437 L1510.1746,499.988687 L1116.13849,1140.53139 L1116.13849,1140.53139 Z M774.254213,418.862192 L1116.13849,1136.07389 L1507.0544,500.434437 L774.254213,418.862192 L774.254213,418.862192 Z"></path>
                                        <path d="M1511.06608,500.880187 L1509.28311,500.880187 L769.796791,418.416442 L772.471244,416.633442 L1323.85435,41.3119679 L1324.3001,42.6492178 L1511.06608,500.880187 L1511.06608,500.880187 Z M775.59144,416.633442 L1507.50014,498.205687 L1322.96287,44.4322177 L775.59144,416.633442 L775.59144,416.633442 Z"></path>
                                        <path d="M772.025502,419.307942 L771.57976,417.970692 L611.558308,93.4647144 L613.341276,93.4647144 L1327.42029,41.3119679 L772.025502,419.307942 L772.025502,419.307942 Z M615.124245,95.6934642 L772.916986,416.187692 L1319.39693,44.4322177 L615.124245,95.6934642 L615.124245,95.6934642 Z"></path>
                                        <path d="M613.341276,95.6934642 L612.895534,93.4647144 L1098.3088,0.748720652 L1098.3088,0.748720652 L1331.43197,43.5407177 L613.341276,95.6934642 L613.341276,95.6934642 Z M1098.75454,2.9774705 L632.508191,92.1274644 L1314.49377,42.6492178 L1098.75454,2.9774705 L1098.75454,2.9774705 Z"></path>
                                        <path d="M1871.67153,524.059185 L1508.39163,500.434437 L1507.94589,499.988687 L1320.73416,39.083218 L1871.67153,524.059185 L1871.67153,524.059185 Z M1509.72885,498.651437 L1865.43113,521.830435 L1326.08306,46.6609675 L1509.72885,498.651437 L1509.72885,498.651437 Z"></path>
                                        <path d="M1870.78004,527.625185 L1318.05971,39.528968 L1686.68851,178.602959 L1686.68851,179.048709 L1870.78004,527.625185 L1870.78004,527.625185 Z M1328.75752,46.2152176 L1863.64817,518.264435 L1684.90554,180.385958 L1328.75752,46.2152176 L1328.75752,46.2152176 Z"></path>
                                        <path d="M1868.10559,524.059185 L1681.78535,173.253959 L1988.90173,479.484188 L1868.10559,524.059185 L1868.10559,524.059185 Z M1690.25445,185.734958 L1868.99707,521.384685 L1984.4443,478.592688 L1690.25445,185.734958 L1690.25445,185.734958 Z"></path>
                                        <path d="M2084.29056,635.942427 L1865.43113,522.721935 L1986.67302,477.701188 L2084.29056,635.942427 L2084.29056,635.942427 Z M1871.22578,523.167685 L2078.49591,630.593428 L1986.22727,480.821438 L1871.22578,523.167685 L1871.22578,523.167685 Z"></path>
                                        <path d="M1923.37762,1150.33789 L1921.14891,1150.33789 L1114.35552,1139.63989 L1115.247,1137.85689 L1509.28311,497.759937 L1510.1746,499.097187 L1923.37762,1150.33789 L1923.37762,1150.33789 Z M1118.3672,1137.41114 L1919.36594,1147.66339 L1509.28311,501.771687 L1118.3672,1137.41114 L1118.3672,1137.41114 Z"></path>
                                        <path d="M1449.55366,1859.52609 L1448.66217,1857.74309 L1114.35552,1137.41114 L1923.37762,1148.10914 L1922.48614,1149.89214 L1449.55366,1859.52609 L1449.55366,1859.52609 Z M1117.92145,1139.63989 L1449.9994,1855.06859 L1918.9202,1149.89214 L1117.92145,1139.63989 L1117.92145,1139.63989 Z"></path>
                                        <path d="M751.967103,1757.0036 L751.075618,1755.2206 L347.233179,1135.18239 L349.016148,1135.18239 L1117.92145,1138.30264 L1117.02997,1140.08564 L751.967103,1757.0036 L751.967103,1757.0036 Z M351.244859,1137.41114 L751.967103,1752.5461 L1114.35552,1140.53139 L351.244859,1137.41114 L351.244859,1137.41114 Z"></path>
                                        <path d="M291.515403,1781.51985 L291.515403,1780.1826 L348.124663,1132.95364 L349.907632,1135.62814 L753.750071,1755.66635 L751.967103,1755.66635 L291.515403,1781.51985 L291.515403,1781.51985 Z M349.907632,1139.63989 L293.744114,1779.2911 L749.738392,1753.88335 L349.907632,1139.63989 L349.907632,1139.63989 Z"></path>
                                        <path d="M293.298372,1784.6401 L0.891484413,1135.18239 L350.353374,1135.18239 L350.353374,1136.51964 L293.298372,1784.6401 L293.298372,1784.6401 Z M4.45742207,1137.41114 L291.961145,1776.17085 L347.678921,1137.41114 L4.45742207,1137.41114 L4.45742207,1137.41114 Z"></path>
                                        <path d="M195.235087,578.886431 L197.463798,576.211932 L613.341276,92.5732144 L614.232761,93.9104643 L773.808471,417.970692 L195.235087,578.886431 L195.235087,578.886431 Z M613.341276,96.5849641 L201.92122,574.874682 L771.134018,417.079192 L613.341276,96.5849641 L613.341276,96.5849641 Z"></path>
                                        <path d="M350.353374,1137.41114 L0.891484413,1137.41114 L1.33722662,1136.07389 L198.355282,573.091682 L350.353374,1137.41114 L350.353374,1137.41114 Z M4.01167986,1135.18239 L347.233179,1135.18239 L197.90954,580.669431 L4.01167986,1135.18239 L4.01167986,1135.18239 Z"></path>
                                        <path d="M114.110005,670.265175 L175.176687,541.889184 L612.895534,93.9104643 L614.678503,95.2477142 L199.692509,577.549181 L114.110005,670.265175 L114.110005,670.265175 Z M176.959656,543.226434 L122.579107,657.784176 L197.90954,575.766182 L589.716939,120.209713 L176.959656,543.226434 L176.959656,543.226434 Z"></path>
                                        <path d="M348.570406,1139.19414 L347.678921,1136.51964 L197.018055,575.766182 L197.90954,575.320432 L774.699955,415.296192 L773.362729,417.524942 L348.570406,1139.19414 L348.570406,1139.19414 Z M199.692509,577.549181 L349.46189,1133.39939 L770.242533,419.307942 L199.692509,577.549181 L199.692509,577.549181 Z"></path>
                                        <path d="M1451.78237,1858.63459 L1449.55366,1858.18884 L750.184134,1755.2206 L751.075618,1753.88335 L1116.58423,1136.51964 L1117.47571,1138.74839 L1451.78237,1858.63459 L1451.78237,1858.63459 Z M753.750071,1753.88335 L1448.21643,1855.96009 L1116.58423,1141.86864 L753.750071,1753.88335 L753.750071,1753.88335 Z"></path>
                                        <path d="M1447.32495,1859.08034 L1449.10791,1856.40584 L1922.0404,1148.10914 L1922.48614,1151.22939 L1987.5645,1709.30835 L1986.67302,1709.7541 L1447.32495,1859.08034 L1447.32495,1859.08034 Z M1920.70317,1154.79539 L1452.67385,1855.51434 L1985.33579,1707.52535 L1920.70317,1154.79539 L1920.70317,1154.79539 Z"></path>
                                        <path d="M1985.78153,1712.87435 L1919.81168,1147.66339 L2210.4356,1155.68689 L2210.88135,1157.02414 L1985.78153,1712.87435 L1985.78153,1712.87435 Z M1922.48614,1149.89214 L1987.11876,1703.95935 L2208.20689,1157.91564 L1922.48614,1149.89214 L1922.48614,1149.89214 Z"></path>
                                        <path d="M1922.93188,1156.13264 L1920.70317,1152.12089 L1507.50014,498.205687 L1869.88856,521.384685 L1869.88856,522.276185 L1922.93188,1156.13264 L1922.93188,1156.13264 Z M1511.06608,500.880187 L1919.81168,1147.21764 L1867.65985,524.059185 L1511.06608,500.880187 L1511.06608,500.880187 Z"></path>
                                        <path d="M2209.98986,1157.91564 L1920.25743,1149.89214 L1866.76836,517.372936 L2209.98986,1157.91564 L2209.98986,1157.91564 Z M1922.0404,1147.66339 L2207.76115,1155.68689 L1869.88856,528.070935 L1922.0404,1147.66339 L1922.0404,1147.66339 Z"></path>
                                        <path d="M2210.88135,1157.02414 L2208.65263,1157.02414 L1865.43113,520.047435 L2082.06185,632.376428 L2082.06185,632.822178 L2210.88135,1157.02414 L2210.88135,1157.02414 Z M1871.22578,525.396435 L2206.42392,1148.55489 L2080.27888,634.159428 L1871.22578,525.396435 L1871.22578,525.396435 Z"></path>
                                    </g>
                                    <g transform="translate(7.914844, 15.744028)">
                                        <g>
                                            <polygon id="Shape" points="450.351181 714.840172 448.12247 713.948672 610.818375 96.1392142 613.047087 97.0307141"></polygon>
                                            <polygon id="Shape" points="449.905439 715.285922 448.568212 713.502922 1323.11442 41.3119679 1324.45165 43.0949678"></polygon>
                                            <rect id="Rectangle-path" transform="translate(620.795223, 832.731884) rotate(-55.478788) translate(-620.795223, -832.731884) " x="619.680889" y="624.12506" width="2.22866657" height="417.213648"></rect>
                                            <polygon id="Shape" points="793.57268 951.533406 792.235454 949.750406 1239.31489 640.845677 1240.65211 642.628677"></polygon>
                                            <polygon id="Shape" points="1241.09786 641.737177 1238.86914 641.291427 1322.66868 42.2034678 1324.89739 42.6492178"></polygon>
                                            <rect id="Rectangle-path" transform="translate(925.846257, 369.369672) rotate(-49.034525) translate(-925.846257, -369.369672) " x="924.731908" y="-46.2895501" width="2.22869696" height="831.318444"></rect>
                                            <rect id="Rectangle-path" transform="translate(1357.513819, 939.892675) rotate(-21.525828) translate(-1357.513819, -939.892675) " x="1356.39953" y="619.416451" width="2.22858583" height="640.952448"></rect>
                                            <polygon id="Shape" points="1474.66677 1239.04214 792.235454 951.979156 793.126938 949.750406 1475.55826 1237.25914"></polygon>
                                            <rect id="Rectangle-path" transform="translate(759.772416, 1181.784728) rotate(-81.934721) translate(-759.772416, -1181.784728) " x="526.20559" y="1180.67036" width="467.133652" height="2.2287299"></rect>
                                            <polygon id="Shape" points="2.38026338 1137.41114 0.597294557 1135.62814 448.568212 713.502922 449.905439 715.285922"></polygon>
                                            <rect id="Rectangle-path" transform="translate(588.237254, 1063.631373) rotate(-21.690759) translate(-588.237254, -1063.631373) " x="587.122889" y="687.638115" width="2.22872975" height="751.986516"></rect>
                                            <polygon id="Shape" points="1777.77147 758.077919 1239.76063 642.628677 1240.20637 640.399927 1778.21721 755.849169"></polygon>
                                            <polygon id="Shape" points="1476.004 1238.59639 1474.22103 1237.70489 1776.87999 756.294919 1779.1087 757.186419"></polygon>
                                            <rect id="Rectangle-path" transform="translate(1551.116731, 399.529070) rotate(-32.437796) translate(-1551.116731, -399.529070) " x="1550.00234" y="-23.7234263" width="2.22877896" height="846.504993"></rect>
                                            <rect id="Rectangle-path" transform="translate(1823.141627, 640.062784) rotate(-68.942332) translate(-1823.141627, -640.062784) " x="1697.66779" y="638.948432" width="250.947684" height="2.22870386"></rect>
                                            <polygon id="Shape" points="2207.02122 1158.36139 1777.32573 757.632169 1778.66296 755.849169 2208.80419 1157.02414"></polygon>
                                            <polygon id="Shape" points="1475.11251 1239.04214 1475.11251 1236.81339 2207.9127 1156.57839 2207.9127 1158.80714"></polygon>
                                            <polygon id="Shape" points="1496.95388 1612.13486 1495.61666 1609.90611 2207.46696 1157.02414 2208.35844 1158.80714"></polygon>
                                            <rect id="Rectangle-path" transform="translate(357.981864, 1072.528469) rotate(-75.752524) translate(-357.981864, -1072.528469) " x="-11.2996463" y="1071.41414" width="738.563021" height="2.22865384"></rect>
                                            <polygon id="Shape" points="448.568212 715.285922 173.991013 542.334934 175.32824 540.551934 449.905439 713.502922"></polygon>
                                            <polygon id="Shape" points="911.248623 359.131696 909.019912 357.794446 1097.56887 0.748720652 1099.35183 1.64022059"></polygon>
                                            <polygon id="Shape" points="1240.65211 642.628677 1238.86914 640.845677 1682.82838 176.819959 1684.61135 178.602959"></polygon>
                                        </g>
                                        <g transform="translate(252.887384, 346.499212)" id="Oval">
                                            <ellipse cx="540.685297" cy="603.251194" rx="12.0350396" ry="12.0352492"></ellipse>
                                            <ellipse cx="195.680829" cy="368.34096" rx="12.0350396" ry="12.0352492"></ellipse>
                                            <ellipse cx="1221.33365" cy="890.314175" rx="12.0350396" ry="12.0352492"></ellipse>
                                            <ellipse cx="987.76473" cy="295.237965" rx="12.0350396" ry="12.0352492"></ellipse>
                                            <ellipse cx="1523.9926" cy="410.687207" rx="12.0350396" ry="12.0352492"></ellipse>
                                            <ellipse cx="661.035692" cy="12.6324845" rx="12.0350396" ry="12.0352492"></ellipse>
                                        </g>
                                    </g>
                                    <g id="Oval">
                                        <ellipse cx="1926.54085" cy="1163.40742" rx="17.8296883" ry="17.8299988"></ellipse>
                                        <ellipse cx="1124.65062" cy="1153.15517" rx="17.8296883" ry="17.8299988"></ellipse>
                                        <ellipse cx="357.082544" cy="1155.38392" rx="17.8296883" ry="17.8299988"></ellipse>
                                        <ellipse cx="780.983383" cy="435.05197" rx="17.8296883" ry="17.8299988"></ellipse>
                                        <ellipse cx="620.961931" cy="112.774742" rx="17.8296883" ry="17.8299988"></ellipse>
                                        <ellipse cx="1331.92075" cy="62.4049958" rx="17.8296883" ry="17.8299988"></ellipse>
                                        <ellipse cx="1515.1208" cy="513.503965" rx="17.8296883" ry="17.8299988"></ellipse>
                                        <ellipse cx="1688.06877" cy="189.443737" rx="15.6009772" ry="15.6012489"></ellipse>
                                        <ellipse cx="1873.49753" cy="539.803213" rx="17.8296883" ry="17.8299988"></ellipse>
                                        <ellipse cx="1995.18515" cy="495.228216" rx="12.4807818" ry="12.4809992"></ellipse>
                                    </g>
                                </g>
                            </g>
                        </g>
                        <mask id="mask-2" fill="white">
                            <use xlink:href="#path-1"></use>
                        </mask>
                        <use id="Mask" fill="#FFFFFF" opacity="0.298743207" xlink:href="#path-1"></use>
                    </g>
                </g>
            </g>
        </g>
    </g>
</svg>