<?xml version="1.0" encoding="UTF-8"?>
<svg width="1080px" height="297px" viewBox="0 0 1080 297" version="1.1" xmlns="http://www.w3.org/2000/svg" xmlns:xlink="http://www.w3.org/1999/xlink">
    <!-- Generator: Sketch 39.1 (31720) - http://www.bohemiancoding.com/sketch -->
    <title>Group 7</title>
    <desc>Created with Sketch.</desc>
    <defs></defs>
    <g id="Page-1" stroke="none" stroke-width="1" fill="none" fill-rule="evenodd" fill-opacity="0.202190897">
        <g id="Дизайн" transform="translate(-300.000000, -1219.000000)" fill="#ECECEC">
            <g id="For-Why" transform="translate(0.000000, 1129.000000)">
                <g id="Group-10" transform="translate(300.000000, 90.000000)">
                    <g id="Group-7">
                        <g id="quotation-mark" transform="translate(80.500000, 62.000000) scale(-1, -1) translate(-80.500000, -62.000000) ">
                            <path d="M101.754403,122.976 C100.355866,123.9216 96.8451045,124.7536 94.7913532,122.476 L91.0018458,117.716 C89.1691692,114.6208 91.3887264,111.7504 92.8257114,110.56 C99.656597,104.9 104.625169,100.5216 107.72502,97.4248 C113.803771,91.04 118.297353,84.6488 121.26504,78.2768 C121.943483,76.82 120.211731,75.8952 119.312214,75.6008 C96.9107861,68.268 85.7064677,55.3408 85.7064677,36.8216 C85.7064677,25.9104 89.3349751,17.044 96.5879851,10.228 C103.845,3.408 112.933891,0 123.854657,0 C133.583542,0 142.204652,4.4312 149.713179,13.2968 C157.053498,21.6472 160.722055,30.6848 160.722055,40.4016 C160.722055,68.8792 141.067239,96.4032 101.754403,122.976 L101.754403,122.976 Z" id="Path"></path>
                            <path d="M16.0487363,122.976 C14.650199,123.9216 11.1394378,124.7536 9.08568657,122.476 L5.2961791,117.716 C3.46350249,114.6208 5.6830597,111.7504 7.12004478,110.56 C13.9517313,104.9 18.9195025,100.5216 22.0193532,97.4248 C28.0981045,91.04 32.5916866,84.6488 35.5585721,78.2768 C36.2370149,76.82 34.5052637,75.8952 33.6057463,75.6008 C11.2043184,68.268 0,55.3408 0,36.8216 C0,25.9104 3.62850746,17.044 10.8815174,10.228 C18.1377313,3.408 27.2274229,0 38.1481891,0 C47.8770746,0 56.4981841,4.4312 64.0067114,13.2968 C71.3478308,21.6472 75.0155871,30.6848 75.0155871,40.4016 C75.0163881,68.8792 55.3615721,96.4032 16.0487363,122.976 L16.0487363,122.976 Z" id="Path"></path>
                        </g>
                        <g id="quotation-mark" transform="translate(919.000000, 173.000000)">
                            <path d="M95.0829979,122.53741 L91.2942778,117.775024 C89.461982,114.678272 91.681078,111.806433 93.1177645,110.615436 C99.9472307,104.952598 104.91477,100.572002 108.013977,97.4736496 C114.091465,91.0856482 118.584114,84.6912436 121.551184,78.3160486 C122.229485,76.8585182 120.498094,75.9332545 119.598764,75.6387068 C97.2019903,68.3022301 86,55.3685483 86,36.8400626 C86,25.9233917 89.6277535,17.052546 96.8792564,10.2331284 C104.134763,3.4097088 113.221765,0 124.140262,0 C133.867127,0 142.486445,4.43342184 149.993412,13.3034671 C157.332205,21.6580541 161,30.7001856 161,40.4218577 C161,68.9137366 141.349268,96.4515373 102.044601,123.037661 C100.646354,123.983735 97.1363224,124.816152 95.0829979,122.53741 Z" id="Path"></path>
                            <path d="M16.0454016,123.037661 C14.6471549,123.983735 11.1371232,124.816152 9.0837987,122.53741 L5.29507864,117.775024 C3.46278283,114.678272 5.68187885,111.806433 7.11856534,110.615436 C13.9488324,104.952598 18.9155713,100.572002 22.014778,97.4736496 C28.0922661,91.0856482 32.5849145,84.6912436 35.5511836,78.3160486 C36.2294854,76.8585182 34.498094,75.9332545 33.5987635,75.6387068 C11.2019903,68.3022301 0,55.3685483 0,36.8400626 C0,25.9233917 3.62775352,17.052546 10.8792564,10.2331284 C18.1339626,3.4097088 27.2217655,0 38.1402625,0 C47.8671265,0 56.4864446,4.43342184 63.9934119,13.3034671 C71.3330059,21.6580541 75,30.7001856 75,40.4218577 C75.0008008,68.9137366 55.3500689,96.4515373 16.0454016,123.037661 L16.0454016,123.037661 Z" id="Path"></path>
                        </g>
                    </g>
                </g>
            </g>
        </g>
    </g>
</svg>