<?xml version="1.0" encoding="UTF-8"?>
<svg width="512px" height="512px" viewBox="0 0 512 512" version="1.1" xmlns="http://www.w3.org/2000/svg" xmlns:xlink="http://www.w3.org/1999/xlink">
    <!-- Generator: Sketch 39.1 (31720) - http://www.bohemiancoding.com/sketch -->
    <title>settings (1)</title>
    <desc>Created with Sketch.</desc>
    <defs></defs>
    <g id="Page-1" stroke="none" stroke-width="1" fill="none" fill-rule="evenodd">
        <g id="settings-(1)" fill="#FEE078">
            <g id="Layer_1">
                <path d="M503.202,444.126 L390.89,331.815 L398.005,312.842 C399.332,309.302 398.468,305.313 395.795,302.639 L379.038,285.882 C375.273,282.118 369.17,282.117 365.403,285.882 L344.35,306.935 L300.336,262.921 L397.926,165.343 C407.296,155.962 419.153,148.779 432.212,144.569 C443.361,140.98 453.644,134.691 461.95,126.385 C476.318,112.02 484.051,92.917 483.73,72.596 C483.409,52.277 475.057,33.415 460.215,19.485 C457.792,17.212 454.374,16.347 451.163,17.192 C447.952,18.037 445.403,20.475 444.413,23.645 L432.188,62.84 C430.679,67.679 427.374,71.642 422.879,73.998 C418.382,76.356 413.238,76.821 408.402,75.313 C400.417,72.819 395.051,65.538 395.051,57.2 C395.051,55.29 395.345,53.38 395.925,51.522 L408.008,12.778 C409.002,9.589 408.275,6.112 406.085,3.59 C403.896,1.067 400.554,-0.146 397.259,0.393 C383.467,2.632 370.682,8.652 360.289,17.798 C341.99,33.887 332.681,57.908 335.387,82.049 C338.151,106.837 329.314,131.475 311.143,149.646 L249.1,211.687 L115.142,77.729 L112.714,51.457 C112.438,48.464 110.782,45.773 108.238,44.176 L40.15,1.474 C36.34,-0.914 31.387,-0.353 28.209,2.825 L2.824,28.209 C-0.355,31.388 -0.914,36.341 1.474,40.148 L44.177,108.235 C45.772,110.78 48.465,112.436 51.457,112.712 L77.729,115.139 L211.692,249.104 L114.106,346.677 C104.729,356.056 92.868,363.236 79.802,367.444 C68.505,371.082 58.501,377.204 50.063,385.64 C35.697,400.006 27.963,419.108 28.285,439.425 C28.608,459.739 36.958,478.598 51.8,492.529 C54.222,494.802 57.64,495.666 60.85,494.824 C64.061,493.979 66.61,491.544 67.601,488.374 L79.84,449.187 C81.35,444.342 84.655,440.376 89.147,438.019 C93.524,435.722 98.521,435.221 103.258,436.592 C103.381,436.636 103.505,436.677 103.631,436.717 C113.623,439.832 119.219,450.506 116.105,460.506 L104.022,499.237 C103.027,502.426 103.753,505.905 105.944,508.428 C107.791,510.557 110.456,511.75 113.224,511.75 C113.738,511.75 114.256,511.709 114.773,511.625 C128.542,509.386 141.322,503.374 151.744,494.229 C170.023,478.143 179.331,454.12 176.641,429.962 C173.868,405.187 182.705,380.551 200.884,362.37 L262.927,300.339 L306.936,344.348 L285.883,365.401 C282.118,369.169 282.118,375.273 285.883,379.038 L302.64,395.797 C305.314,398.471 309.308,399.332 312.843,398.007 L331.818,390.892 L444.128,503.203 C449.994,509.069 457.7,512.002 465.405,512.002 C473.11,512.002 480.815,509.07 486.682,503.203 L503.205,486.68 C514.933,474.946 514.933,455.857 503.202,444.126 L503.202,444.126 Z M324.776,163.278 C347.115,140.941 357.967,110.553 354.549,79.904 C352.544,62.013 359.449,44.207 373.024,32.272 C376.392,29.308 380.106,26.787 384.074,24.753 L377.517,45.775 C376.356,49.494 375.769,53.335 375.769,57.195 C375.769,74.015 386.572,88.69 402.657,93.715 C422.808,99.997 444.314,88.721 450.596,68.575 L457.406,46.739 C461.864,54.636 464.301,63.559 464.449,72.898 C464.688,87.953 458.957,102.106 448.314,112.747 C442.074,118.987 434.669,123.517 426.298,126.212 C410.335,131.356 395.806,140.175 384.287,151.708 L286.701,249.282 L262.735,225.316 L324.776,163.278 L324.776,163.278 Z M187.248,348.735 C164.898,371.085 154.047,401.474 157.477,432.101 C159.471,450.006 152.565,467.82 139.015,479.744 C135.639,482.706 131.926,485.223 127.957,487.255 L134.513,466.243 C140.733,446.266 129.705,424.962 109.895,418.475 C109.721,418.411 109.547,418.35 109.368,418.294 C99.606,415.254 89.244,416.194 80.191,420.943 C71.136,425.694 64.474,433.687 61.435,443.444 L54.614,465.281 C50.153,457.384 47.714,448.459 47.566,439.12 C47.327,424.067 53.058,409.917 63.701,399.273 C69.952,393.022 77.359,388.487 85.715,385.796 C101.679,380.655 116.213,371.842 127.742,360.31 L225.328,262.736 L249.293,286.701 L187.248,348.735 L187.248,348.735 Z M87.934,98.078 C86.051,96.195 83.584,95.254 81.116,95.254 C80.036,95.254 78.955,95.435 77.926,95.795 L57.978,93.952 L21.891,36.412 L36.413,21.89 L93.954,57.978 L95.797,77.928 C95.442,78.944 95.255,80.019 95.255,81.115 C95.255,83.672 96.271,86.124 98.078,87.932 L330.713,320.569 L320.568,330.715 L87.934,98.078 L87.934,98.078 Z M328.901,371.388 L311.883,377.769 L306.332,372.218 L372.22,306.332 L377.771,311.883 L371.39,328.9 L328.901,371.388 L328.901,371.388 Z M489.566,473.042 L473.043,489.565 C468.831,493.777 461.974,493.777 457.76,489.565 L347.877,379.683 L379.683,347.877 L489.566,457.76 C493.78,461.973 493.78,468.828 489.566,473.042 L489.566,473.042 Z" id="Shape"></path>
            </g>
        </g>
    </g>
</svg>