<?xml version="1.0" encoding="UTF-8"?>
<svg width="497px" height="477px" viewBox="0 0 497 477" version="1.1" xmlns="http://www.w3.org/2000/svg" xmlns:xlink="http://www.w3.org/1999/xlink">
    <!-- Generator: Sketch 39.1 (31720) - http://www.bohemiancoding.com/sketch -->
    <title>sun-umbrella</title>
    <desc>Created with Sketch.</desc>
    <defs></defs>
    <g id="Page-1" stroke="none" stroke-width="1" fill="none" fill-rule="evenodd">
        <g id="sun-umbrella" transform="translate(-1.000000, 0.000000)" fill="#FEE078">
            <g id="Capa_1">
                <g id="Group">
                    <path d="M305.194,306.588 C277.218,306.588 254.456,329.349 254.456,357.326 C254.456,385.302 277.217,408.062 305.194,408.062 C333.17,408.062 355.932,385.302 355.932,357.326 C355.932,329.349 333.171,306.588 305.194,306.588 L305.194,306.588 Z M340.071,357.325 C340.071,363.796 338.268,369.84 335.184,375.039 C316.052,369.434 299.089,351.112 298.516,323.107 C300.68,322.685 302.91,322.449 305.195,322.449 C324.426,322.449 340.071,338.094 340.071,357.325 L340.071,357.325 Z M270.318,357.325 C270.318,344.282 277.526,332.905 288.157,326.924 C290.029,356.096 307.425,375.947 327.901,383.739 C321.793,388.997 313.867,392.2 305.193,392.2 C285.963,392.199 270.318,376.555 270.318,357.325 L270.318,357.325 Z" id="Shape"></path>
                    <path d="M433.273,250.985 C433.734,250.985 434.191,250.925 434.632,250.808 C434.639,250.808 434.641,250.806 434.641,250.806 C434.772,250.771 434.9,250.731 435.027,250.686 C435.031,250.686 435.034,250.682 435.036,250.684 C436.235,250.261 437.286,249.409 437.934,248.203 C445.845,233.502 460.708,225.473 483.215,223.724 C484.007,224.161 484.821,224.608 485.597,225.038 C486.797,225.701 488.118,226.027 489.431,226.027 C491.26,226.027 493.074,225.397 494.537,224.167 C497.049,222.054 498.001,218.611 496.93,215.509 C468.01,131.705 402.871,61.666 321.893,26.812 L327.686,10.892 C329.183,6.775 327.061,2.225 322.945,0.726 C318.83,-0.766 314.278,1.351 312.779,5.467 L307.019,21.294 C224.384,-4.671 129.834,7.237 52.375,53.705 C49.561,55.394 48.076,58.643 48.643,61.876 C49.211,65.109 51.71,67.659 54.933,68.289 C55.795,68.458 56.697,68.636 57.576,68.809 C69.357,80.81 73.008,93.45 68.69,107.305 C68.686,107.31 68.685,107.318 68.686,107.318 C68.3,108.569 68.4,109.854 68.879,110.968 C68.881,110.972 68.883,110.973 68.884,110.977 L68.884,110.979 C68.977,111.192 69.083,111.398 69.201,111.596 C69.206,111.598 69.206,111.603 69.208,111.607 C69.76,112.525 70.594,113.281 71.632,113.729 C101.645,127.235 138.974,144.055 164.246,184.691 C165.543,186.777 168.1,187.693 170.432,186.906 C193.984,178.936 214.72,173.773 247.697,185.08 L163.707,418.851 C163.582,419.198 163.52,419.549 163.446,419.899 C109.433,425.746 63.593,438.116 6.449,456.945 C2.291,458.315 0.028,462.799 1.4,466.96 C2.772,471.12 7.254,473.384 11.415,472.009 C91.854,445.504 149.342,432.013 240.316,431.832 C240.848,431.83 241.376,431.83 241.906,431.83 C327.478,431.83 403.015,445.743 479.481,475.569 C480.428,475.939 481.403,476.114 482.361,476.114 C485.534,476.114 488.529,474.198 489.751,471.063 C491.343,466.983 489.327,462.385 485.245,460.793 C406.879,430.223 329.522,415.968 241.912,415.968 C241.373,415.968 240.823,415.968 240.284,415.97 C218.835,416.012 199.267,416.809 180.766,418.289 L262.427,191 C287.661,202.851 299.48,218.448 310.854,235.903 C310.886,235.952 310.935,235.982 310.969,236.029 C311.245,236.424 311.561,236.79 311.938,237.1 C311.955,237.114 311.968,237.132 311.985,237.146 C312.353,237.441 312.776,237.671 313.226,237.861 C313.338,237.909 313.448,237.951 313.564,237.991 C313.674,238.029 313.773,238.084 313.887,238.116 C314.104,238.175 314.32,238.172 314.538,238.203 C314.737,238.232 314.927,238.276 315.129,238.282 C315.182,238.284 315.236,238.303 315.288,238.303 C315.495,238.303 315.687,238.228 315.89,238.204 C316.137,238.175 316.383,238.194 316.628,238.128 C361.918,226.223 400.464,239.755 431.446,250.654 C432.043,250.879 432.661,250.985 433.273,250.985 L433.273,250.985 Z M439.613,229.158 C439.566,219.688 438.39,210.502 436.145,201.643 C447.433,205.514 457.99,210.404 467.686,215.393 C456.307,218.019 446.92,222.606 439.613,229.158 L439.613,229.158 Z M474.309,200.939 C451.446,189.198 423.883,177.899 392.592,177.899 C389.557,177.899 386.485,178.005 383.381,178.227 C379.795,131.56 365.297,90.231 339.33,52.87 C399.008,85.242 447.444,138.225 474.309,200.939 L474.309,200.939 Z M280.156,118.295 C280.151,118.293 280.146,118.292 280.141,118.29 C280.135,118.288 280.131,118.285 280.125,118.282 C280.117,118.279 280.11,118.279 280.102,118.276 C247.718,106.493 215.988,100.562 185.466,100.562 C184.823,100.562 184.184,100.564 183.543,100.569 C218.909,67.689 260.208,47.751 309.138,39.862 C341.551,77.363 360.371,119.19 366.327,167.111 C342.564,146.87 313.67,130.491 280.156,118.295 L280.156,118.295 Z M278.633,30.155 C234.309,42.013 196.313,64.441 163.322,98.133 C138.034,73.625 106.522,63.328 79.022,57.073 C141.299,25.366 212.876,15.816 278.633,30.155 L278.633,30.155 Z M73.689,72.144 C83.296,74.292 93.425,76.967 103.543,80.576 C95.567,84.54 88.047,89.368 81.037,95.056 C80.826,87.102 78.322,79.46 73.689,72.144 L73.689,72.144 Z M83.024,107.273 C93.194,98.089 104.629,90.992 117.151,86.093 C131.654,92.73 145.63,101.802 157.416,114.836 C157.551,114.987 157.691,115.135 157.839,115.279 C157.843,115.281 157.844,115.284 157.848,115.288 C157.848,115.288 157.85,115.288 157.85,115.29 C157.956,115.392 158.065,115.492 158.176,115.589 C158.18,115.596 158.187,115.607 158.192,115.602 C159.605,116.821 161.334,117.454 163.077,117.516 L163.079,117.516 C163.09,117.516 163.101,117.518 163.114,117.518 L163.116,117.518 C163.433,117.525 163.744,117.522 164.061,117.491 C164.101,117.487 164.141,117.484 164.181,117.48 C175.571,116.338 187.209,116.224 199.021,116.937 C188.196,131.295 176.959,150.13 167.252,170.237 C142.817,136.221 110.667,119.861 83.024,107.273 L83.024,107.273 Z M177.383,173.581 C187.855,152.139 200.325,131.894 211.604,118.041 C229.778,120.12 248.363,124.336 267.246,130.676 L251.275,175.128 C220.188,164.431 198.512,167.264 177.383,173.581 L177.383,173.581 Z M266.018,181.007 L282.152,136.1 C296.547,141.747 309.971,148.222 322.38,155.502 C322.084,173.478 318.701,197.049 313.077,220.372 C302.469,205.567 289.308,191.757 266.018,181.007 L266.018,181.007 Z M428.706,238.491 C399.482,228.318 364.161,217.527 322.591,225.945 C328.267,203.272 331.859,180.589 332.759,161.933 C346.693,171.05 359.277,181.205 370.266,192.475 C371.747,194.014 373.838,194.956 376.129,194.907 C376.136,194.905 376.142,194.903 376.145,194.907 C376.262,194.905 376.376,194.9 376.491,194.892 C376.498,194.892 376.511,194.894 376.509,194.89 C376.733,194.875 376.952,194.852 377.17,194.819 C393.681,192.531 409.42,194.227 424.122,198.024 C428.242,210.721 429.78,224.283 428.706,238.491 L428.706,238.491 Z" id="Shape"></path>
                </g>
            </g>
        </g>
    </g>
</svg>