<?xml version="1.0" encoding="UTF-8"?>
<svg width="169px" height="60px" viewBox="0 0 169 60" version="1.1" xmlns="http://www.w3.org/2000/svg" xmlns:xlink="http://www.w3.org/1999/xlink">
    <!-- Generator: Sketch 39.1 (31720) - http://www.bohemiancoding.com/sketch -->
    <title>Group 2</title>
    <desc>Created with Sketch.</desc>
    <defs></defs>
    <g id="Page-1" stroke="none" stroke-width="1" fill="none" fill-rule="evenodd">
        <g id="Group-2">
            <rect id="Rectangle-2" fill="#FFFFFF" x="0" y="0" width="169" height="60"></rect>
            <g id="Logo" transform="translate(25.000000, 15.000000)">
                <g id="Слой_x0020_1">
                    <g id="Page-1">
                        <g id="Слой_x0020_1">
                            <path d="M9.25537349e-15,0.923822715 C0.854816825,4.7998615 4.68113976,26.1682825 8.30393487,26.2285319 C11.92673,26.067867 12.8629579,15.3033241 15.0814111,3.69529086 C15.5291723,1.36565097 16.5468114,0.0200831025 19.0909091,0.0200831025 C35.3324288,-0.0200831025 86.641791,0.08033241 118.188602,0 C119.2673,0.100415512 120.122117,0.64265928 119.979647,1.88781163 C119.837178,3.2132964 118.595658,4.0166205 117.252374,4.63919668 C114.301221,6.02493075 112.123474,8.91689751 110.861601,11.3268698 C109.742198,13.4757618 108.134328,17.4923823 106.24152,22.6537396 C104.450475,27.4937673 99.7286296,29 95.9023066,29 L13.697422,29" id="Shape" stroke="#0069CB" stroke-width="2.44233379"></path>
                            <path d="M24.6268657,18.2354571 L24.5861601,18.2354571 C24.4436906,18.3760388 24.3012212,18.5166205 24.0976934,18.6572022 C23.9145183,18.7977839 23.6906377,18.9383657 23.4464043,19.0789474 C23.202171,19.199446 22.9375848,19.3199446 22.6322931,19.400277 C22.3270014,19.4806094 22.0013569,19.5207756 21.6553596,19.5207756 C21.1872456,19.5207756 20.7394844,19.4404432 20.3527815,19.2998615 C19.9457259,19.1592798 19.5997286,18.9383657 19.3147897,18.6772853 C19.0298507,18.416205 18.7856174,18.0747922 18.6227951,17.6932133 C18.4599729,17.3116343 18.3785617,16.8698061 18.3785617,16.4078947 C18.3785617,15.8857341 18.4803256,15.4238227 18.6635007,15.0020776 C18.8670285,14.5803324 19.1316147,14.2389197 19.4776119,13.9577562 C19.8236092,13.6765928 20.2306649,13.4556787 20.7191316,13.2950139 C21.2075984,13.134349 21.7367707,13.0740997 22.3066486,13.0740997 C22.734057,13.0740997 23.1207598,13.0941828 23.4871099,13.1544321 C23.85346,13.2146814 24.1587517,13.2749307 24.4233379,13.3552632 L24.4233379,12.9736842 C24.4233379,12.7527701 24.3826323,12.531856 24.3012212,12.3109418 C24.21981,12.0900277 24.0976934,11.9092798 23.9348711,11.748615 C23.7516961,11.5879501 23.5278155,11.4674515 23.2632293,11.367036 C22.9782904,11.2666205 22.6526459,11.2264543 22.2455902,11.2264543 C21.7571235,11.2264543 21.2686567,11.2867036 20.78019,11.3871191 C20.2917232,11.4875346 19.7625509,11.6481994 19.192673,11.8691136 L19.192673,10.0214681 C19.6811398,9.80055402 20.2103121,9.6398892 20.7598372,9.53947368 C21.3093623,9.41897507 21.8995929,9.35872576 22.5101764,9.35872576 C23.2225237,9.35872576 23.85346,9.43905817 24.4029851,9.61980609 C24.9321574,9.80055402 25.4002714,10.0415512 25.7666214,10.3427978 C26.1329715,10.6440443 26.3975577,11.0055402 26.5807327,11.4272853 C26.7639077,11.8490305 26.8453189,12.2908587 26.8453189,12.7728532 L26.8453189,16.4279778 C26.8453189,17.0706371 26.8453189,17.632964 26.8656716,18.0948753 C26.8860244,18.5567867 26.8860244,18.9584488 26.9063772,19.3199446 L24.7286296,19.3199446 L24.6268657,18.2957064 L24.6268657,18.2354571 L24.6268657,18.2354571 Z M24.4233379,15.1225762 C24.1994573,15.0623269 23.9348711,15.0221607 23.6295794,14.9819945 C23.3242877,14.9418283 23.0189959,14.9217452 22.734057,14.9217452 C22.1438263,14.9217452 21.6757123,15.0422438 21.3297151,15.2631579 C20.9837178,15.5041551 20.8208955,15.8455679 20.8208955,16.3275623 C20.8208955,16.5484765 20.8616011,16.7292244 20.9430122,16.9099723 C21.0244233,17.0706371 21.1261872,17.2112188 21.2483039,17.3116343 C21.3704206,17.4120499 21.5332429,17.4923823 21.7164179,17.5526316 C21.8995929,17.6128809 22.082768,17.632964 22.265943,17.632964 C22.5101764,17.632964 22.734057,17.5927978 22.9579376,17.5325485 C23.1818182,17.4722992 23.3649932,17.3919668 23.5481682,17.2915512 C23.7313433,17.1911357 23.8941655,17.0907202 24.036635,16.9702216 C24.1791045,16.849723 24.3012212,16.7292244 24.4029851,16.6087258 L24.4029851,15.1225762 L24.4233379,15.1225762 L24.4233379,15.1225762 Z M31.7299864,10.9051247 L31.770692,10.9051247 C31.9131615,10.7042936 32.0963365,10.5034626 32.2998643,10.3026316 C32.5237449,10.1018006 32.7679783,9.94113573 33.0325645,9.80055402 C33.3175034,9.6599723 33.6227951,9.53947368 33.9484396,9.43905817 C34.2944369,9.33864266 34.6404342,9.29847645 35.027137,9.29847645 C35.3934871,9.29847645 35.7394844,9.33864266 36.0651289,9.41897507 C36.3907734,9.49930748 36.7164179,9.61980609 36.9810041,9.80055402 C37.265943,9.98130194 37.5101764,10.182133 37.7137042,10.4632964 C37.9375848,10.7444598 38.1004071,11.0657895 38.2225237,11.4272853 C38.2835821,11.6281163 38.3446404,11.8691136 38.3649932,12.1101108 C38.385346,12.351108 38.4056988,12.6322715 38.4056988,12.9536011 L38.4056988,19.2596953 L35.9837178,19.2596953 L35.9837178,13.315097 C35.9837178,13.0540166 35.963365,12.8331025 35.9430122,12.6523546 C35.9226594,12.4716066 35.8819539,12.2908587 35.8412483,12.150277 C35.7191316,11.8490305 35.5359566,11.6281163 35.2917232,11.4875346 C35.0474898,11.3469529 34.7421981,11.2867036 34.3962008,11.2867036 C33.9280868,11.2867036 33.4803256,11.3871191 33.0529172,11.6080332 C32.6255088,11.8289474 32.238806,12.150277 31.9131615,12.5519391 L31.9131615,19.2396122 L29.4911805,19.2396122 L29.4911805,9.51939058 L31.4857531,9.51939058 L31.7096336,10.8649584 L31.7299864,10.9051247 L31.7299864,10.9051247 Z M53.7516961,13.3552632 C53.7516961,13.1544321 53.7516961,12.9536011 53.7313433,12.7728532 C53.7109905,12.5921053 53.6906377,12.4314404 53.6702849,12.2908587 C53.5888738,11.9896122 53.4464043,11.7686981 53.2428765,11.5879501 C53.0189959,11.4072022 52.7137042,11.3067867 52.3270014,11.3067867 C52.1234735,11.3067867 51.8995929,11.3469529 51.6757123,11.3871191 C51.4518318,11.4473684 51.2279512,11.5277008 51.0040706,11.6481994 C50.78019,11.7686981 50.5766621,11.8891967 50.3731343,12.0498615 C50.1696065,12.2105263 49.9864315,12.3912742 49.8236092,12.5720222 L49.8236092,19.2596953 L47.4016282,19.2596953 L47.4016282,13.3351801 C47.4016282,13.134349 47.4016282,12.933518 47.3812754,12.7527701 C47.3609227,12.5720222 47.3405699,12.4113573 47.3202171,12.2707756 C47.238806,11.9695291 47.0963365,11.748615 46.8928087,11.567867 C46.6892809,11.3871191 46.3636364,11.2867036 45.9769335,11.2867036 C45.7734057,11.2867036 45.5495251,11.3268698 45.3256445,11.367036 C45.1017639,11.4272853 44.8778833,11.5076177 44.6540027,11.6281163 C44.4301221,11.748615 44.2265943,11.8691136 44.0230665,12.0297784 C43.8195387,12.1904432 43.6363636,12.3711911 43.4735414,12.5519391 L43.4735414,19.2396122 L41.0515604,19.2396122 L41.0515604,9.51939058 L43.046133,9.51939058 L43.2700136,10.8649584 L43.3107191,10.8649584 C43.4531886,10.6641274 43.6363636,10.4632964 43.8398915,10.2624654 C44.063772,10.0616343 44.3080054,9.90096953 44.5725916,9.76038781 C44.8371777,9.61980609 45.1424695,9.49930748 45.4884668,9.39889197 C45.8141113,9.29847645 46.1601085,9.25831025 46.5264586,9.25831025 C47.1777476,9.25831025 47.7679783,9.39889197 48.2767978,9.6800554 C48.7856174,9.96121884 49.192673,10.4030471 49.4572592,11.0055402 L49.4979647,11.0055402 C49.6811398,10.7444598 49.9050204,10.5034626 50.1289009,10.3026316 C50.3731343,10.0817175 50.6173677,9.90096953 50.9023066,9.76038781 C51.1872456,9.59972299 51.4925373,9.47922438 51.8181818,9.39889197 C52.1438263,9.31855956 52.4898236,9.27839335 52.8765265,9.27839335 C53.5888738,9.27839335 54.1791045,9.43905817 54.6472185,9.72022161 C55.1356852,10.001385 55.5020353,10.4030471 55.7462687,10.8850416 C55.807327,11.0055402 55.8683853,11.1461219 55.9090909,11.3067867 C55.9497965,11.4674515 55.990502,11.6281163 56.0312076,11.8088643 C56.0719132,11.9896122 56.0922659,12.2105263 56.0922659,12.4314404 C56.1126187,12.6523546 56.1126187,12.9134349 56.1126187,13.2146814 L56.1126187,19.2396122 L53.6906377,19.2396122 L53.6906377,13.315097 L53.7516961,13.3552632 L53.7516961,13.3552632 Z M64.6200814,18.2354571 L64.5793758,18.2354571 C64.4369064,18.3760388 64.2944369,18.5166205 64.0909091,18.6572022 C63.9077341,18.7977839 63.6838535,18.9383657 63.4396201,19.0789474 C63.1953867,19.199446 62.9308005,19.3199446 62.6255088,19.400277 C62.3202171,19.4806094 61.9945726,19.5207756 61.6485753,19.5207756 C61.1804613,19.5207756 60.7327001,19.4404432 60.3459973,19.2998615 C59.9389417,19.1592798 59.5929444,18.9383657 59.3080054,18.6772853 C59.0230665,18.416205 58.7788331,18.0747922 58.6160109,17.6932133 C58.4531886,17.3116343 58.3717775,16.8698061 58.3717775,16.4078947 C58.3717775,15.8857341 58.4735414,15.4238227 58.6567164,15.0020776 C58.8602442,14.5803324 59.1248304,14.2389197 59.4708277,13.9577562 C59.816825,13.6765928 60.2238806,13.4556787 60.7123474,13.2950139 C61.2008141,13.134349 61.7299864,13.0740997 62.2998643,13.0740997 C62.7272727,13.0740997 63.1139756,13.0941828 63.4803256,13.1544321 C63.8466757,13.2146814 64.1519674,13.2749307 64.4165536,13.3552632 L64.4165536,12.9736842 C64.4165536,12.7527701 64.375848,12.531856 64.2944369,12.3109418 C64.2130258,12.0900277 64.0909091,11.9092798 63.9280868,11.748615 C63.7449118,11.5879501 63.5210312,11.4674515 63.256445,11.367036 C62.9715061,11.2666205 62.6458616,11.2264543 62.238806,11.2264543 C61.7503392,11.2264543 61.2618725,11.2867036 60.7734057,11.3871191 C60.2849389,11.4875346 59.7557666,11.6481994 59.1858887,11.8691136 L59.1858887,10.0214681 C59.6743555,9.80055402 60.2035278,9.6398892 60.7530529,9.53947368 C61.302578,9.41897507 61.8928087,9.35872576 62.5033921,9.35872576 C63.2157395,9.35872576 63.8466757,9.43905817 64.3962008,9.61980609 C64.9253731,9.80055402 65.3934871,10.0415512 65.7598372,10.3427978 C66.1261872,10.6440443 66.3907734,11.0055402 66.5739484,11.4272853 C66.7571235,11.8490305 66.8385346,12.2908587 66.8385346,12.7728532 L66.8385346,16.4279778 C66.8385346,17.0706371 66.8385346,17.632964 66.8588874,18.0948753 C66.8792402,18.5567867 66.8792402,18.9584488 66.8995929,19.3199446 L64.7218453,19.3199446 L64.6200814,18.2957064 L64.6200814,18.2354571 L64.6200814,18.2354571 Z M64.4165536,15.1225762 C64.192673,15.0623269 63.9280868,15.0221607 63.6227951,14.9819945 C63.3175034,14.9418283 63.0122117,14.9217452 62.7272727,14.9217452 C62.1370421,14.9217452 61.6689281,15.0422438 61.3229308,15.2631579 C60.9769335,15.5041551 60.8141113,15.8455679 60.8141113,16.3275623 C60.8141113,16.5484765 60.8548168,16.7292244 60.936228,16.9099723 C61.0176391,17.0706371 61.119403,17.2112188 61.2415197,17.3116343 C61.3636364,17.4120499 61.5264586,17.4923823 61.7096336,17.5526316 C61.8928087,17.6128809 62.0759837,17.632964 62.2591588,17.632964 C62.5033921,17.632964 62.7272727,17.5927978 62.9511533,17.5325485 C63.1750339,17.4722992 63.358209,17.3919668 63.541384,17.2915512 C63.724559,17.1911357 63.8873813,17.0907202 64.0298507,16.9702216 C64.1723202,16.849723 64.2944369,16.7292244 64.3962008,16.6087258 L64.3962008,15.1225762 L64.4165536,15.1225762 L64.4165536,15.1225762 Z M73.880597,16.4480609 C73.880597,16.2472299 73.8195387,16.066482 73.697422,15.9259003 C73.5753053,15.7853186 73.412483,15.684903 73.229308,15.5844875 C73.0257802,15.5041551 72.8018996,15.4238227 72.5576662,15.3434903 C72.2930801,15.283241 72.0284939,15.2029086 71.7639077,15.1426593 C71.4179104,15.0422438 71.0719132,14.9418283 70.7462687,14.8213296 C70.4206242,14.700831 70.1356852,14.5401662 69.8914518,14.3393352 C69.6472185,14.1385042 69.4436906,13.8774238 69.3012212,13.5761773 C69.1587517,13.2749307 69.0773406,12.8933518 69.0773406,12.4515235 C69.0773406,11.9092798 69.1791045,11.4473684 69.3622795,11.0457064 C69.5658073,10.6440443 69.8303935,10.3227147 70.156038,10.0616343 C70.5020353,9.80055402 70.8887381,9.59972299 71.3364993,9.47922438 C71.7842605,9.35872576 72.2523745,9.27839335 72.7408412,9.27839335 C73.3514247,9.27839335 73.9009498,9.31855956 74.4301221,9.41897507 C74.9592944,9.51939058 75.4274084,9.6398892 75.8548168,9.80055402 L75.8548168,11.7285319 C75.6309362,11.6481994 75.3867028,11.5879501 75.1424695,11.5277008 C74.8982361,11.4674515 74.6540027,11.4072022 74.3894166,11.367036 C74.1248304,11.3268698 73.880597,11.2867036 73.6363636,11.2666205 C73.3921303,11.2264543 73.1478969,11.2264543 72.9240163,11.2264543 C72.6390773,11.2264543 72.394844,11.2465374 72.2116689,11.3067867 C72.0081411,11.367036 71.8656716,11.4272853 71.743555,11.5277008 C71.6214383,11.6080332 71.5400271,11.7285319 71.4789688,11.8289474 C71.4179104,11.949446 71.3975577,12.0699446 71.3975577,12.1904432 C71.3975577,12.4113573 71.458616,12.5921053 71.5807327,12.732687 C71.7028494,12.8732687 71.8656716,12.9937673 72.0691995,13.0740997 C72.2727273,13.1544321 72.4966079,13.2347645 72.7204885,13.2950139 C72.9443691,13.3552632 73.1682497,13.4155125 73.3921303,13.4556787 C73.7381275,13.5360111 74.063772,13.6364266 74.4097693,13.7368421 C74.7557666,13.8573407 75.0610583,13.9979224 75.3256445,14.2188366 C75.5902307,14.4196676 75.8141113,14.6807479 75.9972863,15.0020776 C76.1804613,15.3234072 76.2618725,15.7451524 76.2618725,16.2472299 C76.2618725,16.7894737 76.1601085,17.2714681 75.936228,17.6731302 C75.7327001,18.0747922 75.4274084,18.416205 75.0610583,18.6973684 C74.6743555,18.9584488 74.2265943,19.1793629 73.697422,19.2998615 C73.1682497,19.4203601 72.5983718,19.5006925 71.9674355,19.5006925 C71.3364993,19.5006925 70.7869742,19.4605263 70.2781547,19.3601108 C69.7896879,19.2596953 69.3622795,19.1391967 69.036635,18.998615 L69.036635,17.0907202 C69.5658073,17.2915512 70.0542741,17.4120499 70.5020353,17.4722992 C70.9497965,17.5325485 71.3568521,17.5727147 71.7639077,17.5727147 C72.0691995,17.5727147 72.3337856,17.5526316 72.5983718,17.5124654 C72.8629579,17.4722992 73.0868385,17.4120499 73.2700136,17.3116343 C73.4531886,17.2112188 73.5956581,17.1108033 73.7177748,16.9501385 C73.8195387,16.8095568 73.880597,16.6288089 73.880597,16.4279778 L73.880597,16.4480609 L73.880597,16.4480609 Z M84.3622795,19.2596953 C84.0976934,19.3400277 83.7720488,19.400277 83.385346,19.4605263 C82.9986431,19.5006925 82.6526459,19.5207756 82.3270014,19.5207756 C81.4925373,19.5207756 80.8208955,19.3801939 80.2917232,19.1191136 C79.7625509,18.8580332 79.3962008,18.4764543 79.1723202,17.9743767 C79.009498,17.6128809 78.9280868,17.1308864 78.9280868,16.5283934 L78.9280868,11.4875346 L77.0963365,11.4875346 L77.0963365,9.53947368 L78.9280868,9.53947368 L78.9280868,6.82825485 L81.3500678,6.82825485 L81.3500678,9.53947368 L84.1994573,9.53947368 L84.1994573,11.4875346 L81.3500678,11.4875346 L81.3500678,16.2070637 C81.3500678,16.5886427 81.4111262,16.849723 81.5332429,17.0304709 C81.7367707,17.3317175 82.1438263,17.4923823 82.734057,17.4923823 C83.0189959,17.4923823 83.2835821,17.4722992 83.568521,17.432133 C83.8331072,17.3919668 84.0976934,17.3317175 84.3419267,17.2714681 L84.3419267,19.2396122 L84.3622795,19.2596953 L84.3622795,19.2596953 Z M91.3229308,17.6128809 C91.7910448,17.6128809 92.2795115,17.5727147 92.7883311,17.4722992 C93.2971506,17.3718837 93.8059701,17.251385 94.3351425,17.0706371 L94.3351425,18.9584488 C94.0298507,19.0990305 93.541384,19.2195291 92.9104478,19.3400277 C92.2591588,19.4605263 91.6078697,19.5207756 90.9158752,19.5207756 C90.2238806,19.5207756 89.5522388,19.4404432 88.9213026,19.2596953 C88.2903664,19.0789474 87.7408412,18.7977839 87.2727273,18.3961219 C86.8046133,17.9944598 86.4382632,17.4923823 86.1533243,16.8698061 C85.8887381,16.2472299 85.7462687,15.484072 85.7462687,14.5803324 C85.7462687,13.6966759 85.8683853,12.933518 86.1329715,12.2707756 C86.3975577,11.6080332 86.743555,11.0657895 87.1709634,10.6239612 C87.5983718,10.182133 88.1071913,9.86080332 88.6567164,9.6398892 C89.2062415,9.41897507 89.7964722,9.31855956 90.3867028,9.31855956 C91.0176391,9.31855956 91.587517,9.41897507 92.1166893,9.59972299 C92.6458616,9.78047091 93.0936228,10.0817175 93.4803256,10.4833795 C93.8670285,10.8850416 94.1723202,11.4072022 94.375848,12.0297784 C94.5997286,12.6724377 94.7014925,13.4155125 94.7014925,14.2790859 C94.7014925,14.6204986 94.6811398,14.901662 94.660787,15.1225762 L88.2089552,15.1225762 C88.2496608,15.5844875 88.3514247,15.9660665 88.5142469,16.2873961 C88.6770692,16.6087258 88.9009498,16.8698061 89.1858887,17.0706371 C89.4504749,17.2714681 89.7761194,17.4120499 90.1424695,17.5124654 C90.5088195,17.6128809 90.9158752,17.6530471 91.3229308,17.6530471 L91.3229308,17.6128809 L91.3229308,17.6128809 Z M90.3663501,11.166205 C90.0610583,11.166205 89.7964722,11.2264543 89.5522388,11.3268698 C89.3080054,11.4473684 89.1044776,11.5879501 88.9416554,11.7887812 C88.7584803,11.9896122 88.6363636,12.2105263 88.5345997,12.4515235 C88.4328358,12.7126039 88.3717775,12.9736842 88.3310719,13.2548476 L92.1981004,13.2548476 C92.1981004,12.9736842 92.1573948,12.6925208 92.0759837,12.4515235 C91.9945726,12.1904432 91.8928087,11.9695291 91.7299864,11.7887812 C91.5671642,11.5879501 91.3839891,11.4473684 91.1601085,11.3268698 C90.936228,11.2264543 90.6716418,11.166205 90.3663501,11.166205 L90.3663501,11.166205 L90.3663501,11.166205 Z M102.781547,11.4473684 L102.578019,11.4473684 C101.845319,11.4473684 101.19403,11.5477839 100.624152,11.7686981 C100.054274,11.9896122 99.6268657,12.3109418 99.3215739,12.7527701 L99.3215739,19.2596953 L96.8995929,19.2596953 L96.8995929,9.53947368 L98.8941655,9.53947368 L99.1180461,10.8850416 L99.1587517,10.8850416 C99.4436906,10.382964 99.8303935,10.001385 100.339213,9.72022161 C100.848033,9.43905817 101.438263,9.29847645 102.130258,9.29847645 C102.374491,9.29847645 102.578019,9.31855956 102.761194,9.33864266 L102.761194,11.4272853 L102.781547,11.4473684 L102.781547,11.4473684 Z" id="Shape" fill="#0069CB"></path>
                        </g>
                    </g>
                </g>
            </g>
        </g>
    </g>
</svg>