<?xml version="1.0" encoding="UTF-8"?>
<svg width="18px" height="11px" viewBox="0 0 18 11" version="1.1" xmlns="http://www.w3.org/2000/svg" xmlns:xlink="http://www.w3.org/1999/xlink">
    <!-- Generator: Sketch 39.1 (31720) - http://www.bohemiancoding.com/sketch -->
    <title>vk</title>
    <desc>Created with Sketch.</desc>
    <defs></defs>
    <g id="Page-1" stroke="none" stroke-width="1" fill="none" fill-rule="evenodd">
        <g id="Дизайн" transform="translate(-186.000000, -501.000000)">
            <g id="Hero">
                <g id="Social" transform="translate(180.000000, 491.000000)">
                    <g id="vk">
                        <rect id="Rectangle" x="0" y="0" width="30" height="30"></rect>
                        <path d="M15.4950256,20.4076923 C15.4950256,20.4076923 15.8026586,20.3741399 15.9602267,20.2080147 C16.1044558,20.0558014 16.0994536,19.7685602 16.0994536,19.7685602 C16.0994536,19.7685602 16.0802786,18.4272829 16.7147196,18.229242 C17.33999,18.0344744 18.1428372,19.5263283 18.9948722,20.0999923 C19.6384839,20.5337183 20.1270284,20.4387896 20.1270284,20.4387896 L22.4038463,20.4076923 C22.4038463,20.4076923 23.594361,20.3356774 23.0299503,19.4166692 C22.9832635,19.341381 22.7006413,18.7366196 21.3375519,17.4943628 C19.9094344,16.194003 20.1011839,16.4043192 21.8202606,14.1546724 C22.86738,12.7847528 23.2858943,11.9483981 23.1550044,11.5907787 C23.030784,11.248708 22.2604509,11.339545 22.2604509,11.339545 L19.6976761,11.3550936 C19.6976761,11.3550936 19.5075939,11.3297248 19.3666997,11.4123782 C19.2291402,11.493395 19.139935,11.682434 19.139935,11.682434 C19.139935,11.682434 18.7347598,12.7421986 18.1936925,13.6440214 C17.0523656,15.5458691 16.5963351,15.6465262 16.4095877,15.5286837 C15.9752332,15.2528994 16.0836134,14.4222731 16.0836134,13.8322421 C16.0836134,11.9884973 16.3687367,11.2200657 15.529207,11.0212064 C15.2507533,10.95492 15.0456646,10.9115474 14.3328564,10.9041822 C13.4182943,10.8951804 12.6446264,10.9074556 12.2061035,11.1177718 C11.9143106,11.2577099 11.6892133,11.5703199 11.8267728,11.5883237 C11.9960126,11.6104191 12.3795118,11.6897992 12.5829331,11.9614917 C12.8455466,12.3125643 12.836376,13.0998179 12.836376,13.0998179 C12.836376,13.0998179 12.9872746,15.2700848 12.4837235,15.5393223 C12.1385743,15.7242696 11.6650362,15.3470098 10.647096,13.6211075 C10.1260374,12.7372885 9.7325339,11.7601774 9.7325339,11.7601774 C9.7325339,11.7601774 9.65666776,11.5776851 9.52077567,11.479483 C9.35653799,11.3608221 9.12727219,11.3239963 9.12727219,11.3239963 L6.69205254,11.339545 C6.69205254,11.339545 6.32606095,11.3493652 6.19183625,11.5056702 C6.07261803,11.6439715 6.18266561,11.9312127 6.18266561,11.9312127 C6.18266561,11.9312127 8.08932338,16.3102089 10.2485904,18.5173015 C12.2286132,20.5402652 14.4762517,20.4076923 14.4762517,20.4076923 L15.4950256,20.4076923 Z" id="Shape" fill="#FFFFFF"></path>
                    </g>
                </g>
            </g>
        </g>
    </g>
</svg>