<?xml version="1.0" encoding="UTF-8"?>
<svg width="463px" height="335px" viewBox="0 0 463 335" version="1.1" xmlns="http://www.w3.org/2000/svg" xmlns:xlink="http://www.w3.org/1999/xlink">
    <!-- Generator: Sketch 39.1 (31720) - http://www.bohemiancoding.com/sketch -->
    <title>wallet</title>
    <desc>Created with Sketch.</desc>
    <defs></defs>
    <g id="Page-1" stroke="none" stroke-width="1" fill="none" fill-rule="evenodd">
        <g id="wallet" fill="#FEE078">
            <g id="Layer_1">
                <g id="Group">
                    <path d="M447.5,112 L447,112 L447,31.5 C447,14.131 432.869,0 415.5,0 L31.5,0 C14.131,0 0,14.131 0,31.5 L0,303.5 C0,320.869 14.131,335 31.5,335 L415.5,335 C432.869,335 447,320.869 447,303.5 L447,223 L447.5,223 C456.047,223 463,216.047 463,207.5 L463,127.5 C463,118.953 456.047,112 447.5,112 L447.5,112 Z M432,303.5 C432,312.598 424.598,320 415.5,320 L31.5,320 C22.402,320 15,312.598 15,303.5 L15,303.001 L31.506,303.001 C35.648,303.001 39.006,299.644 39.006,295.501 C39.006,291.358 35.648,288.001 31.506,288.001 L15,288.001 L15,47 L31.5,47 C35.642,47 39,43.643 39,39.5 C39,35.357 35.642,32 31.5,32 L15,32 L15,31.5 C15,22.402 22.402,15 31.5,15 L415.5,15 C424.598,15 432,22.402 432,31.5 L432,112 L335.5,112 C304.897,112 280,136.897 280,167.5 C280,198.103 304.897,223 335.5,223 L432,223 L432,303.5 L432,303.5 Z M448,207.5 C448,207.775 447.776,208 447.5,208 L439.519,208 C439.512,208 439.506,207.999 439.5,207.999 C439.494,207.999 439.487,208 439.481,208 L335.5,208 C313.168,208 295,189.832 295,167.5 C295,145.168 313.168,127 335.5,127 L439.461,127 C439.474,127 439.487,127.002 439.5,127.002 C439.513,127.002 439.526,127 439.539,127 L447.5,127 C447.776,127 448,127.225 448,127.5 L448,207.5 L448,207.5 Z" id="Shape"></path>
                    <path d="M335.5,144 C322.542,144 312,154.542 312,167.5 C312,180.458 322.542,191 335.5,191 C348.458,191 359,180.458 359,167.5 C359,154.542 348.458,144 335.5,144 L335.5,144 Z M335.5,176 C330.813,176 327,172.187 327,167.5 C327,162.813 330.813,159 335.5,159 C340.187,159 344,162.813 344,167.5 C344,172.187 340.187,176 335.5,176 L335.5,176 Z" id="Shape"></path>
                    <path d="M63.5,47 L87.5,47 C91.642,47 95,43.643 95,39.5 C95,35.357 91.642,32 87.5,32 L63.5,32 C59.358,32 56,35.357 56,39.5 C56,43.643 59.358,47 63.5,47 L63.5,47 Z" id="Shape"></path>
                    <path d="M119.5,47 L143.5,47 C147.642,47 151,43.643 151,39.5 C151,35.357 147.642,32 143.5,32 L119.5,32 C115.358,32 112,35.357 112,39.5 C112,43.643 115.358,47 119.5,47 L119.5,47 Z" id="Shape"></path>
                    <path d="M175.5,47 L199.5,47 C203.642,47 207,43.643 207,39.5 C207,35.357 203.642,32 199.5,32 L175.5,32 C171.358,32 168,35.357 168,39.5 C168,43.643 171.358,47 175.5,47 L175.5,47 Z" id="Shape"></path>
                    <path d="M231.5,47 L255.5,47 C259.642,47 263,43.643 263,39.5 C263,35.357 259.642,32 255.5,32 L231.5,32 C227.358,32 224,35.357 224,39.5 C224,43.643 227.358,47 231.5,47 L231.5,47 Z" id="Shape"></path>
                    <path d="M287.5,47 L311.5,47 C315.642,47 319,43.643 319,39.5 C319,35.357 315.642,32 311.5,32 L287.5,32 C283.358,32 280,35.357 280,39.5 C280,43.643 283.358,47 287.5,47 L287.5,47 Z" id="Shape"></path>
                    <path d="M343.5,47 L367.5,47 C371.642,47 375,43.643 375,39.5 C375,35.357 371.642,32 367.5,32 L343.5,32 C339.358,32 336,35.357 336,39.5 C336,43.643 339.358,47 343.5,47 L343.5,47 Z" id="Shape"></path>
                    <path d="M399.5,47 L400,47 L400,47.5 C400,51.643 403.358,55 407.5,55 C411.642,55 415,51.643 415,47.5 L415,39.5 C415,35.357 411.642,32 407.5,32 L399.5,32 C395.358,32 392,35.357 392,39.5 C392,43.643 395.358,47 399.5,47 L399.5,47 Z" id="Shape"></path>
                    <path d="M407.5,72 C403.358,72 400,75.357 400,79.5 L400,95.5 C400,99.643 403.358,103 407.5,103 C411.642,103 415,99.643 415,95.5 L415,79.5 C415,75.357 411.642,72 407.5,72 L407.5,72 Z" id="Shape"></path>
                    <path d="M87.506,288.001 L63.506,288.001 C59.364,288.001 56.006,291.358 56.006,295.501 C56.006,299.644 59.364,303.001 63.506,303.001 L87.506,303.001 C91.648,303.001 95.006,299.644 95.006,295.501 C95.006,291.358 91.648,288.001 87.506,288.001 L87.506,288.001 Z" id="Shape"></path>
                    <path d="M143.506,288.001 L119.506,288.001 C115.364,288.001 112.006,291.358 112.006,295.501 C112.006,299.644 115.364,303.001 119.506,303.001 L143.506,303.001 C147.648,303.001 151.006,299.644 151.006,295.501 C151.006,291.358 147.648,288.001 143.506,288.001 L143.506,288.001 Z" id="Shape"></path>
                    <path d="M199.506,288.001 L175.506,288.001 C171.364,288.001 168.006,291.358 168.006,295.501 C168.006,299.644 171.364,303.001 175.506,303.001 L199.506,303.001 C203.648,303.001 207.006,299.644 207.006,295.501 C207.006,291.358 203.648,288.001 199.506,288.001 L199.506,288.001 Z" id="Shape"></path>
                    <path d="M255.506,288.001 L231.506,288.001 C227.364,288.001 224.006,291.358 224.006,295.501 C224.006,299.644 227.364,303.001 231.506,303.001 L255.506,303.001 C259.648,303.001 263.006,299.644 263.006,295.501 C263.006,291.358 259.648,288.001 255.506,288.001 L255.506,288.001 Z" id="Shape"></path>
                    <path d="M311.506,288.001 L287.506,288.001 C283.364,288.001 280.006,291.358 280.006,295.501 C280.006,299.644 283.364,303.001 287.506,303.001 L311.506,303.001 C315.648,303.001 319.006,299.644 319.006,295.501 C319.006,291.358 315.648,288.001 311.506,288.001 L311.506,288.001 Z" id="Shape"></path>
                    <path d="M343.506,303.001 L367.506,303.001 C371.648,303.001 375.006,299.644 375.006,295.501 C375.006,291.358 371.648,288.001 367.506,288.001 L343.506,288.001 C339.364,288.001 336.006,291.358 336.006,295.501 C336.006,299.644 339.364,303.001 343.506,303.001 L343.506,303.001 Z" id="Shape"></path>
                    <path d="M399.506,303.001 L407.506,303.001 C411.648,303.001 415.006,299.644 415.006,295.501 L415.006,287.501 C415.006,283.358 411.648,280.001 407.506,280.001 C403.364,280.001 400.006,283.358 400.006,287.501 L400.006,288.001 L399.506,288.001 C395.364,288.001 392.006,291.358 392.006,295.501 C392.006,299.644 395.364,303.001 399.506,303.001 L399.506,303.001 Z" id="Shape"></path>
                    <path d="M407.506,263.001 C411.648,263.001 415.006,259.644 415.006,255.501 L415.006,239.501 C415.006,235.358 411.648,232.001 407.506,232.001 C403.364,232.001 400.006,235.358 400.006,239.501 L400.006,255.501 C400.006,259.644 403.364,263.001 407.506,263.001 L407.506,263.001 Z" id="Shape"></path>
                </g>
            </g>
        </g>
    </g>
</svg>