<?xml version="1.0" encoding="UTF-8"?>
<svg width="80px" height="13px" viewBox="0 0 80 13" version="1.1" xmlns="http://www.w3.org/2000/svg" xmlns:xlink="http://www.w3.org/1999/xlink">
    <!-- Generator: Sketch 39.1 (31720) - http://www.bohemiancoding.com/sketch -->
    <title>Fill 69</title>
    <desc>Created with Sketch.</desc>
    <defs></defs>
    <g id="Page-1" stroke="none" stroke-width="1" fill="none" fill-rule="evenodd">
        <path d="M55.9932785,-16.1350469 C55.0872785,-15.4760469 55.5172785,-13.7100469 56.6732785,-13.9670469 C56.8462785,-13.7080469 57.1312785,-13.5320469 57.5652785,-13.5780469 C58.5902785,-13.6850469 59.6152785,-13.7930469 60.6392785,-13.9010469 C43.8462785,0.782953055 26.5922785,15.4299531 11.2422785,31.5939531 C10.5082785,32.3659531 11.6022785,33.4179531 12.3952785,32.7469531 C29.6632785,18.1619531 45.8852785,2.25995306 62.8112785,-12.7440469 C62.9462785,-11.4630469 63.0812785,-10.1830469 63.2162785,-8.90304694 C63.3432785,-7.70504694 65.1372785,-7.24804694 65.4652785,-8.59904694 C66.5132785,-12.9210469 67.5622785,-17.2420469 68.6102785,-21.5640469 C68.8532785,-22.5660469 67.8142785,-23.3220469 66.9222785,-22.8620469 C63.0882785,-20.8860469 59.4832785,-18.6690469 55.9932785,-16.1350469 Z" id="Fill-69" fill="#FDDF7F" transform="translate(39.823074, 4.980509) rotate(42.000000) translate(-39.823074, -4.980509) "></path>
    </g>
</svg>