<?xml version="1.0" encoding="UTF-8"?>
<svg width="1267px" height="1839px" viewBox="0 0 1267 1839" version="1.1" xmlns="http://www.w3.org/2000/svg" xmlns:xlink="http://www.w3.org/1999/xlink">
    <!-- Generator: Sketch 39.1 (31720) - http://www.bohemiancoding.com/sketch -->
    <title>549 [преобразованный]</title>
    <desc>Created with Sketch.</desc>
    <defs></defs>
    <g id="Page-1" stroke="none" stroke-width="1" fill="none" fill-rule="evenodd">
        <g id="Дизайн" transform="translate(-413.000000, -2473.000000)" fill="#231F20">
            <g id="Why-We" transform="translate(0.000000, 2473.000000)">
                <g id="549">
                    <g id="549-[преобразованный]" transform="translate(-205.000000, -740.651563)">
                        <g id="Layer_1">
                            <g id="Group" transform="translate(617.541353, 698.722885)">
                                <g transform="translate(6.518797, 13.397855)" id="Shape">
                                    <path d="M292.857143,967.914272 L651.879699,353.408804 L652.631579,354.926102 L942.857143,969.810894 L941.353383,969.810894 L292.857143,967.914272 L292.857143,967.914272 Z M651.503759,357.202048 L296.240602,965.638326 L939.849624,967.914272 L651.503759,357.202048 L651.503759,357.202048 Z"></path>
                                    <path d="M941.353383,970.569543 L940.601504,969.052245 L650,354.167453 L651.503759,354.167453 L1274.43609,424.34246 L1273.68421,425.480433 L941.353383,970.569543 L941.353383,970.569543 Z M653.007519,356.443399 L941.353383,966.776299 L1271.05263,425.859757 L653.007519,356.443399 L653.007519,356.443399 Z"></path>
                                    <path d="M1274.43609,426.239082 L1272.93233,426.239082 L649.24812,356.064075 L651.503759,354.546777 L1116.54135,35.1556634 L1116.91729,36.2936365 L1274.43609,426.239082 L1274.43609,426.239082 Z M654.135338,354.546777 L1271.42857,423.963136 L1115.78947,37.810934 L654.135338,354.546777 L654.135338,354.546777 Z"></path>
                                    <path d="M651.12782,356.822723 L650.75188,355.68475 L515.789474,79.5366139 L517.293233,79.5366139 L1119.54887,35.1556634 L651.12782,356.822723 L651.12782,356.822723 Z M518.796992,81.4332357 L651.879699,354.167453 L1112.78195,37.810934 L518.796992,81.4332357 L518.796992,81.4332357 Z"></path>
                                    <path d="M517.293233,81.4332357 L516.917293,79.5366139 L926.315789,0.637146391 L926.315789,0.637146391 L1122.93233,37.0522852 L517.293233,81.4332357 L517.293233,81.4332357 Z M926.691729,2.53376821 L533.458647,78.3986408 L1108.64662,36.2936365 L926.691729,2.53376821 L926.691729,2.53376821 Z"></path>
                                    <path d="M1578.57143,445.963949 L1272.18045,425.859757 L1271.80451,425.480433 L1113.90977,33.2590416 L1578.57143,445.963949 L1578.57143,445.963949 Z M1273.30827,424.34246 L1573.30827,444.067327 L1118.42105,39.7075558 L1273.30827,424.34246 L1273.30827,424.34246 Z"></path>
                                    <path d="M1577.81955,448.998544 L1111.65414,33.638366 L1422.55639,151.987567 L1422.55639,152.366892 L1577.81955,448.998544 L1577.81955,448.998544 Z M1120.67669,39.3282314 L1571.80451,441.032732 L1421.05263,153.504865 L1120.67669,39.3282314 L1120.67669,39.3282314 Z"></path>
                                    <path d="M1622.18045,978.914679 L1620.30075,978.914679 L939.849624,969.810894 L940.601504,968.293597 L1272.93233,423.583811 L1273.68421,424.721784 L1622.18045,978.914679 L1622.18045,978.914679 Z M943.233083,967.914272 L1618.79699,976.638733 L1272.93233,426.99773 L943.233083,967.914272 L943.233083,967.914272 Z"></path>
                                    <path d="M1222.55639,1582.41974 L1221.80451,1580.90244 L939.849624,967.914272 L1622.18045,977.018057 L1621.42857,978.535354 L1222.55639,1582.41974 L1222.55639,1582.41974 Z M942.857143,969.810894 L1222.93233,1578.6265 L1618.42105,978.535354 L942.857143,969.810894 L942.857143,969.810894 Z"></path>
                                    <path d="M634.210526,1495.17514 L633.458647,1493.65784 L292.857143,966.01765 L294.360902,966.01765 L942.857143,968.672921 L942.105263,970.190218 L634.210526,1495.17514 L634.210526,1495.17514 Z M296.240602,967.914272 L634.210526,1491.38189 L939.849624,970.569543 L296.240602,967.914272 L296.240602,967.914272 Z"></path>
                                    <path d="M245.864662,1516.03798 L245.864662,1514.9 L293.609023,964.121029 L295.112782,966.396975 L635.714286,1494.03716 L634.210526,1494.03716 L245.864662,1516.03798 L245.864662,1516.03798 Z M295.112782,969.810894 L247.744361,1514.14136 L632.330827,1492.51987 L295.112782,969.810894 L295.112782,969.810894 Z"></path>
                                    <path d="M774.81203,1838.46369 L243.984962,1514.52068 L246.992481,1514.52068 L634.962406,1492.51987 L635.338346,1493.27852 L774.81203,1838.46369 L774.81203,1838.46369 Z M250,1515.65865 L770.676692,1833.91179 L633.458647,1494.41649 L250,1515.65865 L250,1515.65865 Z"></path>
                                    <path d="M780.075188,1839.22233 L482.330827,1744.77057 L240.225564,1509.58946 L780.075188,1839.22233 L780.075188,1839.22233 Z M483.082707,1743.63259 L765.413534,1832.77382 L253.383459,1520.21054 L483.082707,1743.63259 L483.082707,1743.63259 Z"></path>
                                    <path d="M250.75188,1521.34852 L135.338346,1377.58458 L1.12781955,967.155624 L3.0075188,966.396975 L250.75188,1521.34852 L250.75188,1521.34852 Z M137.218045,1376.82594 L242.857143,1508.45149 L8.64661654,983.466571 L137.218045,1376.82594 L137.218045,1376.82594 Z"></path>
                                    <path d="M926.691729,1858.9472 L926.691729,1858.9472 L764.285714,1835.80841 L1328.94737,1789.15152 L1329.32331,1791.04814 L926.691729,1858.9472 L926.691729,1858.9472 Z M781.203008,1836.18774 L926.691729,1856.67125 L1306.76692,1792.56544 L781.203008,1836.18774 L781.203008,1836.18774 Z"></path>
                                    <path d="M772.180451,1837.32571 L632.706767,1491.76122 L634.210526,1492.14054 L1225.56391,1580.14379 L1223.30827,1581.66109 L772.180451,1837.32571 L772.180451,1837.32571 Z M635.714286,1494.41649 L773.308271,1834.67044 L1220.30075,1580.90244 L635.714286,1494.41649 L635.714286,1494.41649 Z"></path>
                                    <path d="M768.421053,1837.32571 L772.180451,1835.04977 L1223.30827,1579.00582 L1223.68421,1579.76447 L1330.45113,1790.66882 L1328.94737,1790.66882 L768.421053,1837.32571 L768.421053,1837.32571 Z M1222.55639,1582.04042 L777.067669,1835.04977 L1327.81955,1789.53084 L1222.55639,1582.04042 L1222.55639,1582.04042 Z"></path>
                                    <path d="M1328.94737,1791.80679 L1328.19549,1790.66882 L1221.42857,1580.90244 L1222.55639,1580.52312 L1678.57143,1451.93216 L1675.93985,1454.58743 L1328.94737,1791.80679 L1328.94737,1791.80679 Z M1224.43609,1582.41974 L1329.32331,1788.77219 L1672.18045,1456.10473 L1224.43609,1582.41974 L1224.43609,1582.41974 Z"></path>
                                    <path d="M247.368421,1518.69325 L0.751879699,966.01765 L295.488722,966.01765 L295.488722,967.155624 L247.368421,1518.69325 L247.368421,1518.69325 Z M3.7593985,967.914272 L246.240602,1511.48608 L293.233083,967.914272 L3.7593985,967.914272 L3.7593985,967.914272 Z"></path>
                                    <path d="M164.661654,492.620845 L166.541353,490.344899 L517.293233,78.7779652 L518.045113,79.9159383 L652.631579,355.68475 L164.661654,492.620845 L164.661654,492.620845 Z M517.293233,82.1918845 L170.300752,489.206926 L650.37594,354.926102 L517.293233,82.1918845 L517.293233,82.1918845 Z"></path>
                                    <path d="M295.488722,967.914272 L0.751879699,967.914272 L1.12781955,966.776299 L167.293233,487.689629 L295.488722,967.914272 L295.488722,967.914272 Z M3.38345865,966.01765 L292.857143,966.01765 L166.917293,494.138143 L3.38345865,966.01765 L3.38345865,966.01765 Z"></path>
                                    <path d="M3.0075188,967.155624 L1.12781955,966.776299 L98.4962406,564.692474 L98.4962406,564.692474 L169.548872,486.93098 L3.0075188,967.155624 L3.0075188,967.155624 Z M100.37594,565.451123 L7.51879699,948.189405 L165.037594,494.896791 L100.37594,565.451123 L100.37594,565.451123 Z"></path>
                                    <path d="M96.2406015,570.38234 L147.744361,461.136923 L516.917293,79.9159383 L518.421053,81.0539114 L168.421053,491.482872 L96.2406015,570.38234 L96.2406015,570.38234 Z M149.24812,462.274896 L103.383459,559.761258 L166.917293,489.965575 L497.368421,102.296076 L149.24812,462.274896 L149.24812,462.274896 Z"></path>
                                    <path d="M293.984962,969.43157 L293.233083,967.155624 L166.165414,489.965575 L166.917293,489.58625 L653.383459,353.408804 L652.255639,355.305426 L293.984962,969.43157 L293.984962,969.43157 Z M168.421053,491.482872 L294.736842,964.500353 L649.62406,356.822723 L168.421053,491.482872 L168.421053,491.482872 Z"></path>
                                    <path d="M1224.43609,1581.66109 L1222.55639,1581.28177 L632.706767,1493.65784 L633.458647,1492.51987 L941.729323,967.155624 L942.481203,969.052245 L1224.43609,1581.66109 L1224.43609,1581.66109 Z M635.714286,1492.51987 L1221.42857,1579.38515 L941.729323,971.707516 L635.714286,1492.51987 L635.714286,1492.51987 Z"></path>
                                    <path d="M1220.67669,1582.04042 L1222.18045,1579.76447 L1621.05263,977.018057 L1621.42857,979.673327 L1676.31579,1454.58743 L1675.56391,1454.96675 L1220.67669,1582.04042 L1220.67669,1582.04042 Z M1619.92481,982.707922 L1225.18797,1579.00582 L1674.43609,1453.07013 L1619.92481,982.707922 L1619.92481,982.707922 Z"></path>
                                </g>
                                <g transform="translate(7.518797, 13.397855)">
                                    <g>
                                        <polygon id="Shape" points="379.827068 608.314776 377.947368 607.556127 515.165414 81.8125601 517.045113 82.5712088"></polygon>
                                        <polygon id="Shape" points="379.451128 608.6941 378.323308 607.176803 1115.91729 35.1556634 1117.04511 36.6729609"></polygon>
                                        <rect id="Rectangle-path" transform="translate(523.579906, 708.638397) rotate(-55.478788) translate(-523.579906, -708.638397) " x="522.640075" y="531.118136" width="1.87966175" height="355.040521"></rect>
                                        <polygon id="Shape" points="669.300752 809.736013 668.172932 808.218715 1045.2406 545.346932 1046.36842 546.864229"></polygon>
                                        <polygon id="Shape" points="1046.74436 546.10558 1044.86466 545.726256 1115.54135 35.9143122 1117.42105 36.2936365"></polygon>
                                        <rect id="Rectangle-path" transform="translate(780.860545, 314.326355) rotate(-49.034525) translate(-780.860545, -314.326355) " x="779.920701" y="-39.3913796" width="1.87968738" height="707.43547"></rect>
                                        <rect id="Rectangle-path" transform="translate(1144.929812, 799.830034) rotate(-21.525828) translate(-1144.929812, -799.830034) " x="1143.99002" y="527.111139" width="1.87959365" height="545.437792"></rect>
                                        <polygon id="Shape" points="1243.73684 1054.40023 668.172932 810.115337 668.924812 808.218715 1244.48872 1052.88293"></polygon>
                                        <rect id="Rectangle-path" transform="translate(640.793682, 1005.675311) rotate(-81.934721) translate(-640.793682, -1005.675311) " x="443.802964" y="1004.72701" width="393.981436" height="1.89660484"></rect>
                                        <rect id="Rectangle-path" transform="translate(928.524561, 1128.171533) rotate(-13.114865) translate(-928.524561, -1128.171533) " x="604.658078" y="1127.22324" width="647.732967" height="1.89658845"></rect>
                                        <polygon id="Shape" points="2.0075188 967.914272 0.503759398 966.396975 378.323308 607.176803 379.451128 608.6941"></polygon>
                                        <rect id="Rectangle-path" transform="translate(496.120451, 905.129207) rotate(-21.690759) translate(-496.120451, -905.129207) " x="495.180594" y="585.166419" width="1.87971504" height="639.925576"></rect>
                                        <polygon id="Shape" points="1499.37594 645.109239 1045.61654 546.864229 1045.99248 544.967607 1499.75188 643.212617"></polygon>
                                        <polygon id="Shape" points="1244.86466 1054.0209 1243.3609 1053.26225 1498.62406 643.591942 1500.50376 644.350591"></polygon>
                                        <rect id="Rectangle-path" transform="translate(1308.214887, 339.991373) rotate(-32.437796) translate(-1308.214887, -339.991373) " x="1307.27501" y="-20.1880879" width="1.87975654" height="720.358921"></rect>
                                        <polygon id="Shape" points="1244.11278 1054.40023 1244.11278 1052.50361 1862.15789 984.22522 1862.15789 986.121842"></polygon>
                                        <polygon id="Shape" points="1261.03008 1371.13607 1243.3609 1053.64158 1245.2406 1053.64158 1262.90977 1370.75675"></polygon>
                                        <rect id="Rectangle-path" transform="translate(1468.740977, 1411.531894) rotate(-79.000209) translate(-1468.740977, -1411.531894) " x="1467.80115" y="1198.92663" width="1.87964586" height="425.210535"></rect>
                                        <rect id="Rectangle-path" transform="translate(1016.546955, 1604.210749) rotate(-43.338661) translate(-1016.546955, -1604.210749) " x="679.521433" y="1603.26245" width="674.051044" height="1.89659619"></rect>
                                        <rect id="Rectangle-path" transform="translate(937.772613, 1286.740455) rotate(-75.576056) translate(-937.772613, -1286.740455) " x="936.832743" y="948.755171" width="1.87973972" height="675.970568"></rect>
                                        <rect id="Rectangle-path" transform="translate(572.808964, 1391.114174) rotate(-77.806797) translate(-572.808964, -1391.114174) " x="381.839522" y="1390.1659" width="381.938883" height="1.89654235"></rect>
                                        <polygon id="Shape" points="770.428571 1838.08436 531.706767 1579.76447 532.834586 1578.6265 771.932331 1836.56706"></polygon>
                                        <rect id="Rectangle-path" transform="translate(506.544150, 1662.004799) rotate(-72.692119) translate(-506.544150, -1662.004799) " x="420.643684" y="1661.05651" width="171.800933" height="1.89658231"></rect>
                                        <polygon id="Shape" points="532.082707 1580.14379 246.368421 1514.9 246.744361 1513.00338 532.458647 1578.24717"></polygon>
                                        <rect id="Rectangle-path" transform="translate(897.040823, 1475.243292) rotate(-15.783270) translate(-897.040823, -1475.243292) " x="517.904482" y="1474.29498" width="758.272682" height="1.89662683"></rect>
                                        <polygon id="Shape" points="531.706767 1579.76447 224.18797 1217.88903 225.691729 1216.75105 532.834586 1578.6265"></polygon>
                                        <rect id="Rectangle-path" transform="translate(419.287099, 1209.709262) rotate(-2.130440) translate(-419.287099, -1209.709262) " x="224.927905" y="1208.76096" width="388.718387" height="1.89660514"></rect>
                                        <rect id="Rectangle-path" transform="translate(301.922741, 912.700406) rotate(-75.752524) translate(-301.922741, -912.700406) " x="-9.53000725" y="911.752136" width="622.905497" height="1.89654012"></rect>
                                        <polygon id="Shape" points="224.18797 1217.88903 0.503759398 967.914272 2.0075188 966.396975 225.691729 1216.75105"></polygon>
                                        <polygon id="Shape" points="135.842105 1377.96391 133.962406 1377.20526 224.18797 1216.75105 225.691729 1217.5097"></polygon>
                                        <polygon id="Shape" points="378.323308 608.6941 146.744361 461.516248 147.87218 459.99895 379.451128 607.176803"></polygon>
                                        <polygon id="Shape" points="768.548872 305.613934 766.669173 304.475961 925.691729 0.637146391 927.195489 1.39579512"></polygon>
                                        <polygon id="Shape" points="1046.36842 546.864229 1044.86466 545.346932 1419.30075 150.47027 1420.80451 151.987567"></polygon>
                                    </g>
                                    <g transform="translate(213.285714, 294.863941)" id="Oval">
                                        <ellipse cx="456.015038" cy="513.354774" rx="10.1503759" ry="10.2417578"></ellipse>
                                        <ellipse cx="165.037594" cy="313.450835" rx="10.1503759" ry="10.2417578"></ellipse>
                                        <ellipse cx="399.62406" cy="906.714139" rx="10.1503759" ry="10.2417578"></ellipse>
                                        <ellipse cx="10.9022556" cy="923.025086" rx="10.1503759" ry="10.2417578"></ellipse>
                                        <ellipse cx="319.172932" cy="1283.76256" rx="10.1503759" ry="10.2417578"></ellipse>
                                        <ellipse cx="1048.49624" cy="1075.13416" rx="10.1503759" ry="10.2417578"></ellipse>
                                        <ellipse cx="1030.07519" cy="757.639664" rx="10.1503759" ry="10.2417578"></ellipse>
                                        <ellipse cx="833.082707" cy="251.241639" rx="10.1503759" ry="10.2417578"></ellipse>
                                        <ellipse cx="557.518797" cy="10.7499932" rx="10.1503759" ry="10.2417578"></ellipse>
                                    </g>
                                </g>
                                <g id="Oval">
                                    <ellipse cx="1227.19549" cy="1595.8176" rx="15.037594" ry="15.1729745"></ellipse>
                                    <ellipse cx="931.330827" cy="1872.34506" rx="8.27067669" ry="8.34513599"></ellipse>
                                    <ellipse cx="776.443609" cy="1850.72357" rx="15.037594" ry="15.1729745"></ellipse>
                                    <ellipse cx="485.466165" cy="1758.54775" rx="9.77443609" ry="9.86243344"></ellipse>
                                    <ellipse cx="639.225564" cy="1508.57299" rx="15.037594" ry="15.1729745"></ellipse>
                                    <ellipse cx="251.631579" cy="1529.43583" rx="15.037594" ry="15.1729745"></ellipse>
                                    <ellipse cx="145.240602" cy="1393.63771" rx="9.02255639" ry="9.10378471"></ellipse>
                                    <ellipse cx="949.37594" cy="981.312127" rx="15.037594" ry="15.1729745"></ellipse>
                                    <ellipse cx="302.007519" cy="983.208749" rx="15.037594" ry="15.1729745"></ellipse>
                                    <ellipse cx="9.90225564" cy="979.79483" rx="9.02255639" ry="9.10378471"></ellipse>
                                    <ellipse cx="175.691729" cy="506.0187" rx="15.037594" ry="15.1729745"></ellipse>
                                    <ellipse cx="659.526316" cy="370.220578" rx="15.037594" ry="15.1729745"></ellipse>
                                    <ellipse cx="524.56391" cy="95.9690639" rx="15.037594" ry="15.1729745"></ellipse>
                                    <ellipse cx="1124.18797" cy="53.1054108" rx="15.037594" ry="15.1729745"></ellipse>
                                    <ellipse cx="1278.69925" cy="436.981666" rx="15.037594" ry="15.1729745"></ellipse>
                                    <ellipse cx="154.639098" cy="471.500183" rx="10.5263158" ry="10.6210822"></ellipse>
                                    <ellipse cx="102.759398" cy="580.366276" rx="9.02255639" ry="9.10378471"></ellipse>
                                </g>
                            </g>
                        </g>
                    </g>
                </g>
            </g>
        </g>
    </g>
</svg>