<?xml version="1.0" encoding="UTF-8"?>
<svg width="92px" height="391px" viewBox="0 0 92 391" version="1.1" xmlns="http://www.w3.org/2000/svg" xmlns:xlink="http://www.w3.org/1999/xlink">
    <!-- Generator: Sketch 39.1 (31720) - http://www.bohemiancoding.com/sketch -->
    <title>Кейсы</title>
    <desc>Created with Sketch.</desc>
    <defs></defs>
    <g id="Page-1" stroke="none" stroke-width="1" fill="none" fill-rule="evenodd">
        <g id="Дизайн" transform="translate(-1588.000000, -1589.000000)" fill="#ECECEC">
            <g id="Group-2" transform="translate(0.000000, 1586.000000)">
                <g id="For-Why">
                    <g id="Background">
                        <path d="M1437.0918,233.876953 L1446.64258,232.236328 L1446.64258,165.029297 L1437.0918,163.388672 L1437.0918,155.947266 L1467.73633,155.947266 L1467.73633,163.388672 L1458.18555,165.029297 L1458.18555,194.384766 L1467.50195,194.384766 L1486.7793,166.611328 C1489.94338,162.236306 1492.69725,159.25782 1495.04102,157.675781 C1497.38478,156.093742 1500.09959,155.302734 1503.18555,155.302734 C1505.02149,155.302734 1506.57421,155.527342 1507.84375,155.976562 C1509.11329,156.425783 1510.45116,157.080074 1511.85742,157.939453 L1510.1582,166.083984 C1509.10351,165.888671 1508.17579,165.722657 1507.375,165.585938 C1506.57421,165.449218 1505.78321,165.380859 1505.00195,165.380859 C1503.16601,165.380859 1501.61329,165.869136 1500.34375,166.845703 C1499.07421,167.822271 1497.59962,169.48241 1495.91992,171.826172 L1477.58008,197.373047 L1505.93945,232.412109 L1513.9668,233.876953 L1513.9668,241.259766 L1485.95898,241.259766 L1485.95898,233.876953 L1492.46289,233.056641 L1469.20117,204.111328 L1458.18555,204.111328 L1458.18555,232.236328 L1467.73633,233.876953 L1467.73633,241.259766 L1437.0918,241.259766 L1437.0918,233.876953 Z M1552.16992,242.490234 C1543.34175,242.490234 1536.32034,239.550811 1531.10547,233.671875 C1525.8906,227.792939 1523.2832,220.166063 1523.2832,210.791016 L1523.2832,208.212891 C1523.2832,199.189408 1525.96872,191.679717 1531.33984,185.683594 C1536.71096,179.68747 1543.06832,176.689453 1550.41211,176.689453 C1558.92778,176.689453 1565.38279,179.267552 1569.77734,184.423828 C1574.1719,189.580104 1576.36914,196.455035 1576.36914,205.048828 L1576.36914,212.255859 L1535.23633,212.255859 L1535.06055,212.548828 C1535.17773,218.642609 1536.72069,223.652324 1539.68945,227.578125 C1542.65822,231.503926 1546.81833,233.466797 1552.16992,233.466797 C1556.07619,233.466797 1559.50389,232.910162 1562.45312,231.796875 C1565.40236,230.683588 1567.95116,229.1504 1570.09961,227.197266 L1574.61133,234.697266 C1572.34569,236.884777 1569.34767,238.730461 1565.61719,240.234375 C1561.8867,241.738289 1557.40432,242.490234 1552.16992,242.490234 L1552.16992,242.490234 Z M1550.41211,185.771484 C1546.5449,185.771484 1543.24415,187.402327 1540.50977,190.664062 C1537.77538,193.925798 1536.09571,198.017554 1535.4707,202.939453 L1535.58789,203.232422 L1564.82617,203.232422 L1564.82617,201.708984 C1564.82617,197.177712 1563.61525,193.388687 1561.19336,190.341797 C1558.77147,187.294907 1555.17776,185.771484 1550.41211,185.771484 L1550.41211,185.771484 Z M1618.79102,177.861328 L1618.79102,185.302734 L1609.24023,186.943359 L1609.24023,222.744141 L1609.5918,222.861328 L1637.54102,177.861328 L1649.08398,177.861328 L1658.63477,177.861328 L1658.63477,185.302734 L1649.08398,186.943359 L1649.08398,232.236328 L1658.63477,233.876953 L1658.63477,241.259766 L1627.99023,241.259766 L1627.99023,233.876953 L1637.54102,232.236328 L1637.54102,196.376953 L1637.18945,196.259766 L1609.24023,241.259766 L1588.20508,241.259766 L1588.20508,233.876953 L1597.75586,232.236328 L1597.75586,186.943359 L1588.20508,185.302734 L1588.20508,177.861328 L1609.24023,177.861328 L1618.79102,177.861328 Z M1641.23242,150.908203 L1641.34961,151.259766 C1641.50586,155.791038 1640.00197,159.482408 1636.83789,162.333984 C1633.67381,165.185561 1629.41604,166.611328 1624.06445,166.611328 C1618.6738,166.611328 1614.3965,165.185561 1611.23242,162.333984 C1608.06834,159.482408 1606.58398,155.791038 1606.7793,151.259766 L1606.89648,150.908203 L1615.68555,150.908203 C1615.68555,153.447278 1616.35937,155.527336 1617.70703,157.148438 C1619.05469,158.769539 1621.17381,159.580078 1624.06445,159.580078 C1626.87697,159.580078 1628.96679,158.769539 1630.33398,157.148438 C1631.70118,155.527336 1632.38477,153.447278 1632.38477,150.908203 L1641.23242,150.908203 Z M1698.00977,233.466797 C1701.83791,233.466797 1705.20702,232.285168 1708.11719,229.921875 C1711.02736,227.558582 1712.48242,224.65822 1712.48242,221.220703 L1722.85352,221.220703 L1722.9707,221.572266 C1723.16602,227.041043 1720.7344,231.89451 1715.67578,236.132812 C1710.61716,240.371115 1704.72855,242.490234 1698.00977,242.490234 C1688.79097,242.490234 1681.75002,239.482452 1676.88672,233.466797 C1672.02341,227.451142 1669.5918,219.892624 1669.5918,210.791016 L1669.5918,208.330078 C1669.5918,199.306596 1672.03318,191.777374 1676.91602,185.742188 C1681.79885,179.707001 1688.83003,176.689453 1698.00977,176.689453 C1703.08792,176.689453 1707.64842,177.529288 1711.69141,179.208984 C1715.7344,180.88868 1719.08397,183.193345 1721.74023,186.123047 L1722.26758,200.185547 L1713.06836,200.185547 L1710.54883,190.224609 C1709.18163,188.896478 1707.42384,187.82227 1705.27539,187.001953 C1703.12694,186.181637 1700.70509,185.771484 1698.00977,185.771484 C1691.95505,185.771484 1687.62892,187.949197 1685.03125,192.304688 C1682.43358,196.660178 1681.13477,202.001921 1681.13477,208.330078 L1681.13477,210.791016 C1681.13477,217.275423 1682.42382,222.67576 1685.00195,226.992188 C1687.58009,231.308615 1691.91599,233.466797 1698.00977,233.466797 L1698.00977,233.466797 Z M1755.7832,177.861328 L1755.7832,199.658203 L1771.48633,199.658203 C1778.98637,199.658203 1784.82615,201.562481 1789.00586,205.371094 C1793.18557,209.179707 1795.27539,214.130829 1795.27539,220.224609 C1795.27539,226.357453 1793.1758,231.396465 1788.97656,235.341797 C1784.77732,239.287129 1778.9473,241.259766 1771.48633,241.259766 L1734.68945,241.259766 L1734.68945,233.876953 L1744.24023,232.236328 L1744.24023,186.943359 L1734.68945,185.302734 L1734.68945,177.861328 L1744.24023,177.861328 L1755.7832,177.861328 Z M1796.56445,233.876953 L1806.11523,232.236328 L1806.11523,186.943359 L1796.56445,185.302734 L1796.56445,177.861328 L1817.6582,177.861328 L1817.6582,232.236328 L1827.20898,233.876953 L1827.20898,241.259766 L1796.56445,241.259766 L1796.56445,233.876953 Z M1755.7832,208.681641 L1755.7832,232.236328 L1771.48633,232.236328 C1775.66604,232.236328 1778.74218,231.132824 1780.71484,228.925781 C1782.68751,226.718739 1783.67383,223.955095 1783.67383,220.634766 C1783.67383,217.431625 1782.67774,214.638684 1780.68555,212.255859 C1778.69335,209.873035 1775.62697,208.681641 1771.48633,208.681641 L1755.7832,208.681641 Z M1765.33398,177.861328 L1765.33398,185.302734 L1755.7832,186.943359 L1755.7832,177.861328 L1765.33398,177.861328 Z" id="Кейсы" transform="translate(1633.791016, 196.699219) scale(-1, -1) rotate(90.000000) translate(-1633.791016, -196.699219) "></path>
                    </g>
                </g>
            </g>
        </g>
    </g>
</svg>